G75*
G70*
%OFA0B0*%
%FSLAX24Y24*%
%IPPOS*%
%LPD*%
%AMOC8*
5,1,8,0,0,1.08239X$1,22.5*
%
%ADD10C,0.0160*%
%ADD11C,0.0000*%
%ADD12C,0.1340*%
%ADD13C,0.0040*%
%ADD14C,0.0030*%
%ADD15C,0.0680*%
%ADD16C,0.0640*%
%ADD17OC8,0.0640*%
%ADD18C,0.0940*%
%ADD19C,0.0600*%
%ADD20R,0.0867X0.0867*%
%ADD21R,0.0474X0.0513*%
D10*
X000186Y000184D02*
X000186Y021273D01*
X020035Y021273D01*
X020034Y000184D01*
X000186Y000184D01*
D11*
X000483Y001114D02*
X000485Y001164D01*
X000491Y001214D01*
X000501Y001263D01*
X000515Y001311D01*
X000532Y001358D01*
X000553Y001403D01*
X000578Y001447D01*
X000606Y001488D01*
X000638Y001527D01*
X000672Y001564D01*
X000709Y001598D01*
X000749Y001628D01*
X000791Y001655D01*
X000835Y001679D01*
X000881Y001700D01*
X000928Y001716D01*
X000976Y001729D01*
X001026Y001738D01*
X001075Y001743D01*
X001126Y001744D01*
X001176Y001741D01*
X001225Y001734D01*
X001274Y001723D01*
X001322Y001708D01*
X001368Y001690D01*
X001413Y001668D01*
X001456Y001642D01*
X001497Y001613D01*
X001536Y001581D01*
X001572Y001546D01*
X001604Y001508D01*
X001634Y001468D01*
X001661Y001425D01*
X001684Y001381D01*
X001703Y001335D01*
X001719Y001287D01*
X001731Y001238D01*
X001739Y001189D01*
X001743Y001139D01*
X001743Y001089D01*
X001739Y001039D01*
X001731Y000990D01*
X001719Y000941D01*
X001703Y000893D01*
X001684Y000847D01*
X001661Y000803D01*
X001634Y000760D01*
X001604Y000720D01*
X001572Y000682D01*
X001536Y000647D01*
X001497Y000615D01*
X001456Y000586D01*
X001413Y000560D01*
X001368Y000538D01*
X001322Y000520D01*
X001274Y000505D01*
X001225Y000494D01*
X001176Y000487D01*
X001126Y000484D01*
X001075Y000485D01*
X001026Y000490D01*
X000976Y000499D01*
X000928Y000512D01*
X000881Y000528D01*
X000835Y000549D01*
X000791Y000573D01*
X000749Y000600D01*
X000709Y000630D01*
X000672Y000664D01*
X000638Y000701D01*
X000606Y000740D01*
X000578Y000781D01*
X000553Y000825D01*
X000532Y000870D01*
X000515Y000917D01*
X000501Y000965D01*
X000491Y001014D01*
X000485Y001064D01*
X000483Y001114D01*
X000453Y020402D02*
X000455Y020452D01*
X000461Y020502D01*
X000471Y020551D01*
X000485Y020599D01*
X000502Y020646D01*
X000523Y020691D01*
X000548Y020735D01*
X000576Y020776D01*
X000608Y020815D01*
X000642Y020852D01*
X000679Y020886D01*
X000719Y020916D01*
X000761Y020943D01*
X000805Y020967D01*
X000851Y020988D01*
X000898Y021004D01*
X000946Y021017D01*
X000996Y021026D01*
X001045Y021031D01*
X001096Y021032D01*
X001146Y021029D01*
X001195Y021022D01*
X001244Y021011D01*
X001292Y020996D01*
X001338Y020978D01*
X001383Y020956D01*
X001426Y020930D01*
X001467Y020901D01*
X001506Y020869D01*
X001542Y020834D01*
X001574Y020796D01*
X001604Y020756D01*
X001631Y020713D01*
X001654Y020669D01*
X001673Y020623D01*
X001689Y020575D01*
X001701Y020526D01*
X001709Y020477D01*
X001713Y020427D01*
X001713Y020377D01*
X001709Y020327D01*
X001701Y020278D01*
X001689Y020229D01*
X001673Y020181D01*
X001654Y020135D01*
X001631Y020091D01*
X001604Y020048D01*
X001574Y020008D01*
X001542Y019970D01*
X001506Y019935D01*
X001467Y019903D01*
X001426Y019874D01*
X001383Y019848D01*
X001338Y019826D01*
X001292Y019808D01*
X001244Y019793D01*
X001195Y019782D01*
X001146Y019775D01*
X001096Y019772D01*
X001045Y019773D01*
X000996Y019778D01*
X000946Y019787D01*
X000898Y019800D01*
X000851Y019816D01*
X000805Y019837D01*
X000761Y019861D01*
X000719Y019888D01*
X000679Y019918D01*
X000642Y019952D01*
X000608Y019989D01*
X000576Y020028D01*
X000548Y020069D01*
X000523Y020113D01*
X000502Y020158D01*
X000485Y020205D01*
X000471Y020253D01*
X000461Y020302D01*
X000455Y020352D01*
X000453Y020402D01*
X018425Y020353D02*
X018427Y020403D01*
X018433Y020453D01*
X018443Y020502D01*
X018457Y020550D01*
X018474Y020597D01*
X018495Y020642D01*
X018520Y020686D01*
X018548Y020727D01*
X018580Y020766D01*
X018614Y020803D01*
X018651Y020837D01*
X018691Y020867D01*
X018733Y020894D01*
X018777Y020918D01*
X018823Y020939D01*
X018870Y020955D01*
X018918Y020968D01*
X018968Y020977D01*
X019017Y020982D01*
X019068Y020983D01*
X019118Y020980D01*
X019167Y020973D01*
X019216Y020962D01*
X019264Y020947D01*
X019310Y020929D01*
X019355Y020907D01*
X019398Y020881D01*
X019439Y020852D01*
X019478Y020820D01*
X019514Y020785D01*
X019546Y020747D01*
X019576Y020707D01*
X019603Y020664D01*
X019626Y020620D01*
X019645Y020574D01*
X019661Y020526D01*
X019673Y020477D01*
X019681Y020428D01*
X019685Y020378D01*
X019685Y020328D01*
X019681Y020278D01*
X019673Y020229D01*
X019661Y020180D01*
X019645Y020132D01*
X019626Y020086D01*
X019603Y020042D01*
X019576Y019999D01*
X019546Y019959D01*
X019514Y019921D01*
X019478Y019886D01*
X019439Y019854D01*
X019398Y019825D01*
X019355Y019799D01*
X019310Y019777D01*
X019264Y019759D01*
X019216Y019744D01*
X019167Y019733D01*
X019118Y019726D01*
X019068Y019723D01*
X019017Y019724D01*
X018968Y019729D01*
X018918Y019738D01*
X018870Y019751D01*
X018823Y019767D01*
X018777Y019788D01*
X018733Y019812D01*
X018691Y019839D01*
X018651Y019869D01*
X018614Y019903D01*
X018580Y019940D01*
X018548Y019979D01*
X018520Y020020D01*
X018495Y020064D01*
X018474Y020109D01*
X018457Y020156D01*
X018443Y020204D01*
X018433Y020253D01*
X018427Y020303D01*
X018425Y020353D01*
X018436Y001114D02*
X018438Y001164D01*
X018444Y001214D01*
X018454Y001263D01*
X018468Y001311D01*
X018485Y001358D01*
X018506Y001403D01*
X018531Y001447D01*
X018559Y001488D01*
X018591Y001527D01*
X018625Y001564D01*
X018662Y001598D01*
X018702Y001628D01*
X018744Y001655D01*
X018788Y001679D01*
X018834Y001700D01*
X018881Y001716D01*
X018929Y001729D01*
X018979Y001738D01*
X019028Y001743D01*
X019079Y001744D01*
X019129Y001741D01*
X019178Y001734D01*
X019227Y001723D01*
X019275Y001708D01*
X019321Y001690D01*
X019366Y001668D01*
X019409Y001642D01*
X019450Y001613D01*
X019489Y001581D01*
X019525Y001546D01*
X019557Y001508D01*
X019587Y001468D01*
X019614Y001425D01*
X019637Y001381D01*
X019656Y001335D01*
X019672Y001287D01*
X019684Y001238D01*
X019692Y001189D01*
X019696Y001139D01*
X019696Y001089D01*
X019692Y001039D01*
X019684Y000990D01*
X019672Y000941D01*
X019656Y000893D01*
X019637Y000847D01*
X019614Y000803D01*
X019587Y000760D01*
X019557Y000720D01*
X019525Y000682D01*
X019489Y000647D01*
X019450Y000615D01*
X019409Y000586D01*
X019366Y000560D01*
X019321Y000538D01*
X019275Y000520D01*
X019227Y000505D01*
X019178Y000494D01*
X019129Y000487D01*
X019079Y000484D01*
X019028Y000485D01*
X018979Y000490D01*
X018929Y000499D01*
X018881Y000512D01*
X018834Y000528D01*
X018788Y000549D01*
X018744Y000573D01*
X018702Y000600D01*
X018662Y000630D01*
X018625Y000664D01*
X018591Y000701D01*
X018559Y000740D01*
X018531Y000781D01*
X018506Y000825D01*
X018485Y000870D01*
X018468Y000917D01*
X018454Y000965D01*
X018444Y001014D01*
X018438Y001064D01*
X018436Y001114D01*
D12*
X019066Y001114D03*
X001113Y001114D03*
X019055Y020353D03*
X001083Y020402D03*
D13*
X008565Y015413D02*
X008565Y014953D01*
X008872Y014953D02*
X008872Y015413D01*
X008718Y015260D01*
X008565Y015413D01*
X009025Y015260D02*
X009025Y014953D01*
X009025Y015183D02*
X009332Y015183D01*
X009332Y015260D02*
X009179Y015413D01*
X009025Y015260D01*
X009332Y015260D02*
X009332Y014953D01*
X009485Y014953D02*
X009792Y014953D01*
X009792Y015413D01*
X009485Y015413D01*
X009639Y015183D02*
X009792Y015183D01*
X009946Y015413D02*
X010253Y015413D01*
X010099Y015413D02*
X010099Y014953D01*
X010866Y014953D02*
X010866Y015413D01*
X010866Y015183D02*
X011173Y015183D01*
X011327Y015030D02*
X011404Y014953D01*
X011557Y014953D01*
X011634Y015030D01*
X011634Y015337D01*
X011557Y015413D01*
X011404Y015413D01*
X011327Y015337D01*
X011173Y015413D02*
X011173Y014953D01*
X011787Y014953D02*
X012094Y014953D01*
X012094Y015413D01*
X011787Y015413D01*
X011941Y015183D02*
X012094Y015183D01*
X012248Y015413D02*
X012554Y015413D01*
X012401Y015413D02*
X012401Y014953D01*
X013168Y015413D02*
X013475Y015413D01*
X013322Y015413D02*
X013322Y014953D01*
X013629Y014953D02*
X013782Y014953D01*
X013705Y014953D02*
X013705Y015413D01*
X013629Y015413D02*
X013782Y015413D01*
X013935Y015413D02*
X013935Y014953D01*
X014242Y014953D02*
X014242Y015413D01*
X014089Y015260D01*
X013935Y015413D01*
D14*
X003651Y020287D02*
X003445Y020492D01*
X003343Y020390D01*
X003343Y020321D01*
X003411Y020253D01*
X003480Y020253D01*
X003582Y020356D01*
X003442Y020079D02*
X003374Y020010D01*
X003408Y020045D02*
X003203Y020250D01*
X003237Y020284D02*
X003169Y020216D01*
X003132Y020111D02*
X003167Y020077D01*
X003167Y020008D01*
X003098Y019940D01*
X003098Y019872D01*
X003132Y019837D01*
X003201Y019837D01*
X003269Y019906D01*
X003269Y019974D01*
X003132Y020111D02*
X003064Y020111D01*
X002996Y020043D01*
X002996Y019974D01*
X002890Y019937D02*
X002753Y019800D01*
X002822Y019868D02*
X003027Y019663D01*
X002853Y019557D02*
X002853Y019489D01*
X002784Y019421D01*
X002716Y019421D01*
X002579Y019557D01*
X002579Y019626D01*
X002647Y019694D01*
X002716Y019694D01*
X002853Y019557D01*
X002679Y019315D02*
X002473Y019520D01*
X002542Y019178D01*
X002337Y019383D01*
X002057Y019103D02*
X001954Y019001D01*
X001954Y018932D01*
X001988Y018898D01*
X002057Y018898D01*
X002159Y019001D01*
X002057Y019103D02*
X002262Y018898D01*
X002159Y018796D01*
X002091Y018796D01*
X002057Y018830D01*
X002057Y018898D01*
X002019Y018724D02*
X002019Y018656D01*
X001951Y018587D01*
X001883Y018587D01*
X001746Y018724D01*
X001746Y018792D01*
X001814Y018861D01*
X001883Y018861D01*
X002019Y018724D01*
X001845Y018482D02*
X001709Y018618D01*
X001572Y018618D01*
X001572Y018482D01*
X001709Y018345D01*
X001637Y018273D02*
X001432Y018478D01*
X001329Y018376D01*
X001329Y018307D01*
X001398Y018239D01*
X001466Y018239D01*
X001569Y018342D01*
X001500Y018273D02*
X001500Y018136D01*
X001429Y018065D02*
X001326Y017962D01*
X001258Y017962D01*
X001121Y018099D01*
X001121Y018167D01*
X001224Y018270D01*
X001429Y018065D01*
X001606Y018447D02*
X001743Y018584D01*
D15*
X006742Y018656D02*
X007342Y018656D01*
X007342Y019656D02*
X006742Y019656D01*
X009593Y019404D02*
X009593Y020004D01*
X010593Y020004D02*
X010593Y019404D01*
X012720Y019404D02*
X012720Y020004D01*
X013720Y020004D02*
X013720Y019404D01*
X016032Y019774D02*
X016632Y019774D01*
X016632Y018774D02*
X016032Y018774D01*
X017915Y016547D02*
X017915Y015947D01*
X018915Y015947D02*
X018915Y016547D01*
X018917Y014093D02*
X018917Y013493D01*
X017917Y013493D02*
X017917Y014093D01*
X017710Y010849D02*
X017110Y010849D01*
X017110Y009849D02*
X017710Y009849D01*
X018142Y007168D02*
X018142Y006568D01*
X017142Y006568D02*
X017142Y007168D01*
X017151Y004908D02*
X017151Y004308D01*
X018151Y004308D02*
X018151Y004908D01*
X017247Y002153D02*
X017247Y001553D01*
X016247Y001553D02*
X016247Y002153D01*
X014044Y002111D02*
X014044Y001511D01*
X013044Y001511D02*
X013044Y002111D01*
X010951Y002107D02*
X010951Y001507D01*
X009951Y001507D02*
X009951Y002107D01*
X007869Y002107D02*
X007869Y001507D01*
X006869Y001507D02*
X006869Y002107D01*
D16*
X004896Y004155D03*
D17*
X004896Y005155D03*
X004896Y006155D03*
X004896Y007155D03*
X004896Y008155D03*
X004896Y009155D03*
X004896Y010155D03*
X003896Y010155D03*
X003896Y009155D03*
X003896Y008155D03*
X003896Y007155D03*
X003896Y006155D03*
X003896Y005155D03*
X003896Y004155D03*
D18*
X004316Y013090D02*
X003456Y013090D01*
X001996Y013841D02*
X001996Y014701D01*
X003456Y015452D02*
X004316Y015452D01*
D19*
X008592Y016388D02*
X008592Y016908D01*
X009592Y016908D02*
X009592Y016388D01*
X010592Y016388D02*
X010592Y016908D01*
X011592Y016908D02*
X011592Y016388D01*
X012592Y016388D02*
X012592Y016908D01*
X013592Y016908D02*
X013592Y016388D01*
X014592Y016388D02*
X014592Y016908D01*
X015592Y016908D02*
X015592Y016388D01*
X015592Y013908D02*
X015592Y013388D01*
X014592Y013388D02*
X014592Y013908D01*
X013592Y013908D02*
X013592Y013388D01*
X012592Y013388D02*
X012592Y013908D01*
X011592Y013908D02*
X011592Y013388D01*
X010592Y013388D02*
X010592Y013908D01*
X009592Y013908D02*
X009592Y013388D01*
X008592Y013388D02*
X008592Y013908D01*
X008520Y012109D02*
X008520Y011589D01*
X009520Y011589D02*
X009520Y012109D01*
X010520Y012109D02*
X010520Y011589D01*
X011520Y011589D02*
X011520Y012109D01*
X012520Y012109D02*
X012520Y011589D01*
X013520Y011589D02*
X013520Y012109D01*
X014520Y012109D02*
X014520Y011589D01*
X014520Y009109D02*
X014520Y008589D01*
X013520Y008589D02*
X013520Y009109D01*
X012520Y009109D02*
X012520Y008589D01*
X011520Y008589D02*
X011520Y009109D01*
X010520Y009109D02*
X010520Y008589D01*
X009520Y008589D02*
X009520Y009109D01*
X008520Y009109D02*
X008520Y008589D01*
X008831Y007332D02*
X008831Y006812D01*
X007831Y006812D02*
X007831Y007332D01*
X009831Y007332D02*
X009831Y006812D01*
X010831Y006812D02*
X010831Y007332D01*
X011831Y007332D02*
X011831Y006812D01*
X012831Y006812D02*
X012831Y007332D01*
X013831Y007332D02*
X013831Y006812D01*
X014831Y006812D02*
X014831Y007332D01*
X014831Y004332D02*
X014831Y003812D01*
X013831Y003812D02*
X013831Y004332D01*
X012831Y004332D02*
X012831Y003812D01*
X011831Y003812D02*
X011831Y004332D01*
X010831Y004332D02*
X010831Y003812D01*
X009831Y003812D02*
X009831Y004332D01*
X008831Y004332D02*
X008831Y003812D01*
X007831Y003812D02*
X007831Y004332D01*
D20*
X006874Y004704D03*
X006874Y006279D03*
X016630Y014481D03*
X016630Y016056D03*
D21*
X016257Y010702D03*
X016257Y010033D03*
M02*
