G75*
G70*
%OFA0B0*%
%FSLAX24Y24*%
%IPPOS*%
%LPD*%
%AMOC8*
5,1,8,0,0,1.08239X$1,22.5*
%
%ADD10C,0.0160*%
%ADD11C,0.0000*%
%ADD12C,0.0100*%
%ADD13C,0.0050*%
%ADD14R,0.0197X0.0295*%
%ADD15C,0.0040*%
D10*
X000186Y000184D02*
X000186Y021273D01*
X020035Y021273D01*
X020034Y000184D01*
X000186Y000184D01*
D11*
X000483Y001114D02*
X000485Y001164D01*
X000491Y001214D01*
X000501Y001263D01*
X000515Y001311D01*
X000532Y001358D01*
X000553Y001403D01*
X000578Y001447D01*
X000606Y001488D01*
X000638Y001527D01*
X000672Y001564D01*
X000709Y001598D01*
X000749Y001628D01*
X000791Y001655D01*
X000835Y001679D01*
X000881Y001700D01*
X000928Y001716D01*
X000976Y001729D01*
X001026Y001738D01*
X001075Y001743D01*
X001126Y001744D01*
X001176Y001741D01*
X001225Y001734D01*
X001274Y001723D01*
X001322Y001708D01*
X001368Y001690D01*
X001413Y001668D01*
X001456Y001642D01*
X001497Y001613D01*
X001536Y001581D01*
X001572Y001546D01*
X001604Y001508D01*
X001634Y001468D01*
X001661Y001425D01*
X001684Y001381D01*
X001703Y001335D01*
X001719Y001287D01*
X001731Y001238D01*
X001739Y001189D01*
X001743Y001139D01*
X001743Y001089D01*
X001739Y001039D01*
X001731Y000990D01*
X001719Y000941D01*
X001703Y000893D01*
X001684Y000847D01*
X001661Y000803D01*
X001634Y000760D01*
X001604Y000720D01*
X001572Y000682D01*
X001536Y000647D01*
X001497Y000615D01*
X001456Y000586D01*
X001413Y000560D01*
X001368Y000538D01*
X001322Y000520D01*
X001274Y000505D01*
X001225Y000494D01*
X001176Y000487D01*
X001126Y000484D01*
X001075Y000485D01*
X001026Y000490D01*
X000976Y000499D01*
X000928Y000512D01*
X000881Y000528D01*
X000835Y000549D01*
X000791Y000573D01*
X000749Y000600D01*
X000709Y000630D01*
X000672Y000664D01*
X000638Y000701D01*
X000606Y000740D01*
X000578Y000781D01*
X000553Y000825D01*
X000532Y000870D01*
X000515Y000917D01*
X000501Y000965D01*
X000491Y001014D01*
X000485Y001064D01*
X000483Y001114D01*
X000453Y020402D02*
X000455Y020452D01*
X000461Y020502D01*
X000471Y020551D01*
X000485Y020599D01*
X000502Y020646D01*
X000523Y020691D01*
X000548Y020735D01*
X000576Y020776D01*
X000608Y020815D01*
X000642Y020852D01*
X000679Y020886D01*
X000719Y020916D01*
X000761Y020943D01*
X000805Y020967D01*
X000851Y020988D01*
X000898Y021004D01*
X000946Y021017D01*
X000996Y021026D01*
X001045Y021031D01*
X001096Y021032D01*
X001146Y021029D01*
X001195Y021022D01*
X001244Y021011D01*
X001292Y020996D01*
X001338Y020978D01*
X001383Y020956D01*
X001426Y020930D01*
X001467Y020901D01*
X001506Y020869D01*
X001542Y020834D01*
X001574Y020796D01*
X001604Y020756D01*
X001631Y020713D01*
X001654Y020669D01*
X001673Y020623D01*
X001689Y020575D01*
X001701Y020526D01*
X001709Y020477D01*
X001713Y020427D01*
X001713Y020377D01*
X001709Y020327D01*
X001701Y020278D01*
X001689Y020229D01*
X001673Y020181D01*
X001654Y020135D01*
X001631Y020091D01*
X001604Y020048D01*
X001574Y020008D01*
X001542Y019970D01*
X001506Y019935D01*
X001467Y019903D01*
X001426Y019874D01*
X001383Y019848D01*
X001338Y019826D01*
X001292Y019808D01*
X001244Y019793D01*
X001195Y019782D01*
X001146Y019775D01*
X001096Y019772D01*
X001045Y019773D01*
X000996Y019778D01*
X000946Y019787D01*
X000898Y019800D01*
X000851Y019816D01*
X000805Y019837D01*
X000761Y019861D01*
X000719Y019888D01*
X000679Y019918D01*
X000642Y019952D01*
X000608Y019989D01*
X000576Y020028D01*
X000548Y020069D01*
X000523Y020113D01*
X000502Y020158D01*
X000485Y020205D01*
X000471Y020253D01*
X000461Y020302D01*
X000455Y020352D01*
X000453Y020402D01*
X018425Y020353D02*
X018427Y020403D01*
X018433Y020453D01*
X018443Y020502D01*
X018457Y020550D01*
X018474Y020597D01*
X018495Y020642D01*
X018520Y020686D01*
X018548Y020727D01*
X018580Y020766D01*
X018614Y020803D01*
X018651Y020837D01*
X018691Y020867D01*
X018733Y020894D01*
X018777Y020918D01*
X018823Y020939D01*
X018870Y020955D01*
X018918Y020968D01*
X018968Y020977D01*
X019017Y020982D01*
X019068Y020983D01*
X019118Y020980D01*
X019167Y020973D01*
X019216Y020962D01*
X019264Y020947D01*
X019310Y020929D01*
X019355Y020907D01*
X019398Y020881D01*
X019439Y020852D01*
X019478Y020820D01*
X019514Y020785D01*
X019546Y020747D01*
X019576Y020707D01*
X019603Y020664D01*
X019626Y020620D01*
X019645Y020574D01*
X019661Y020526D01*
X019673Y020477D01*
X019681Y020428D01*
X019685Y020378D01*
X019685Y020328D01*
X019681Y020278D01*
X019673Y020229D01*
X019661Y020180D01*
X019645Y020132D01*
X019626Y020086D01*
X019603Y020042D01*
X019576Y019999D01*
X019546Y019959D01*
X019514Y019921D01*
X019478Y019886D01*
X019439Y019854D01*
X019398Y019825D01*
X019355Y019799D01*
X019310Y019777D01*
X019264Y019759D01*
X019216Y019744D01*
X019167Y019733D01*
X019118Y019726D01*
X019068Y019723D01*
X019017Y019724D01*
X018968Y019729D01*
X018918Y019738D01*
X018870Y019751D01*
X018823Y019767D01*
X018777Y019788D01*
X018733Y019812D01*
X018691Y019839D01*
X018651Y019869D01*
X018614Y019903D01*
X018580Y019940D01*
X018548Y019979D01*
X018520Y020020D01*
X018495Y020064D01*
X018474Y020109D01*
X018457Y020156D01*
X018443Y020204D01*
X018433Y020253D01*
X018427Y020303D01*
X018425Y020353D01*
X018436Y001114D02*
X018438Y001164D01*
X018444Y001214D01*
X018454Y001263D01*
X018468Y001311D01*
X018485Y001358D01*
X018506Y001403D01*
X018531Y001447D01*
X018559Y001488D01*
X018591Y001527D01*
X018625Y001564D01*
X018662Y001598D01*
X018702Y001628D01*
X018744Y001655D01*
X018788Y001679D01*
X018834Y001700D01*
X018881Y001716D01*
X018929Y001729D01*
X018979Y001738D01*
X019028Y001743D01*
X019079Y001744D01*
X019129Y001741D01*
X019178Y001734D01*
X019227Y001723D01*
X019275Y001708D01*
X019321Y001690D01*
X019366Y001668D01*
X019409Y001642D01*
X019450Y001613D01*
X019489Y001581D01*
X019525Y001546D01*
X019557Y001508D01*
X019587Y001468D01*
X019614Y001425D01*
X019637Y001381D01*
X019656Y001335D01*
X019672Y001287D01*
X019684Y001238D01*
X019692Y001189D01*
X019696Y001139D01*
X019696Y001089D01*
X019692Y001039D01*
X019684Y000990D01*
X019672Y000941D01*
X019656Y000893D01*
X019637Y000847D01*
X019614Y000803D01*
X019587Y000760D01*
X019557Y000720D01*
X019525Y000682D01*
X019489Y000647D01*
X019450Y000615D01*
X019409Y000586D01*
X019366Y000560D01*
X019321Y000538D01*
X019275Y000520D01*
X019227Y000505D01*
X019178Y000494D01*
X019129Y000487D01*
X019079Y000484D01*
X019028Y000485D01*
X018979Y000490D01*
X018929Y000499D01*
X018881Y000512D01*
X018834Y000528D01*
X018788Y000549D01*
X018744Y000573D01*
X018702Y000600D01*
X018662Y000630D01*
X018625Y000664D01*
X018591Y000701D01*
X018559Y000740D01*
X018531Y000781D01*
X018506Y000825D01*
X018485Y000870D01*
X018468Y000917D01*
X018454Y000965D01*
X018444Y001014D01*
X018438Y001064D01*
X018436Y001114D01*
D12*
X017348Y014383D02*
X017122Y014383D01*
X017348Y014383D02*
X017348Y016154D01*
X017122Y016154D01*
X016138Y016154D02*
X015911Y016154D01*
X015911Y014383D01*
X016138Y014383D01*
X007593Y006377D02*
X007367Y006377D01*
X007593Y006377D02*
X007593Y004606D01*
X007367Y004606D01*
X006382Y004606D02*
X006156Y004606D01*
X006156Y006377D01*
X006382Y006377D01*
D13*
X007687Y005580D02*
X007687Y005429D01*
X007762Y005354D01*
X008062Y005655D01*
X007762Y005655D01*
X007687Y005580D01*
X008062Y005655D02*
X008137Y005580D01*
X008137Y005429D01*
X008062Y005354D01*
X007762Y005354D01*
X007687Y005194D02*
X007687Y004894D01*
X007687Y005044D02*
X008137Y005044D01*
X007987Y004894D01*
X008062Y004734D02*
X008137Y004659D01*
X008137Y004434D01*
X007687Y004434D01*
X007687Y004659D01*
X007762Y004734D01*
X008062Y004734D01*
X015367Y015455D02*
X015367Y015681D01*
X015442Y015756D01*
X015743Y015756D01*
X015818Y015681D01*
X015818Y015455D01*
X015367Y015455D01*
X015442Y015916D02*
X015743Y016216D01*
X015442Y016216D01*
X015367Y016141D01*
X015367Y015991D01*
X015442Y015916D01*
X015743Y015916D01*
X015818Y015991D01*
X015818Y016141D01*
X015743Y016216D01*
D14*
X016039Y015711D03*
X017220Y015711D03*
X007465Y005048D03*
X006284Y005048D03*
D15*
X015527Y009793D02*
X015527Y009947D01*
X015604Y010024D01*
X015527Y010177D02*
X015527Y010484D01*
X015527Y010331D02*
X015988Y010331D01*
X015834Y010177D01*
X015911Y010024D02*
X015988Y009947D01*
X015988Y009793D01*
X015911Y009717D01*
X015604Y009717D01*
X015527Y009793D01*
M02*
