G75*
G70*
%OFA0B0*%
%FSLAX24Y24*%
%IPPOS*%
%LPD*%
%AMOC8*
5,1,8,0,0,1.08239X$1,22.5*
%
%ADD10C,0.0160*%
%ADD11C,0.0000*%
%ADD12C,0.0600*%
%ADD13C,0.0560*%
%ADD14OC8,0.0560*%
%ADD15C,0.0860*%
%ADD16C,0.0520*%
%ADD17R,0.0787X0.0787*%
%ADD18R,0.0394X0.0433*%
%ADD19C,0.0660*%
%ADD20C,0.0700*%
%ADD21C,0.0100*%
%ADD22C,0.1000*%
%ADD23C,0.0760*%
%ADD24C,0.0320*%
%ADD25C,0.0500*%
%ADD26C,0.0240*%
%ADD27C,0.0400*%
%ADD28C,0.0560*%
%ADD29C,0.0120*%
D10*
X000186Y000184D02*
X000186Y021273D01*
X020035Y021273D01*
X020034Y000184D01*
X000186Y000184D01*
X003121Y000405D02*
X000286Y003240D01*
X000286Y004579D01*
X000325Y004618D01*
X000325Y004264D01*
X000719Y003870D01*
X000719Y003752D01*
X000601Y003634D01*
X003121Y000405D02*
X004774Y000405D01*
X005680Y000720D02*
X007392Y000720D01*
X007646Y000467D01*
X008194Y000467D01*
X008229Y000502D01*
X007976Y000502D01*
X007919Y000560D01*
X010619Y000560D01*
X010707Y000471D01*
X011173Y000471D01*
X011190Y000488D01*
X013799Y000488D01*
X013817Y000470D01*
X014268Y000470D01*
X014285Y000487D01*
X017062Y000487D01*
X018379Y001803D01*
X019364Y002850D01*
X019364Y003010D01*
X018576Y002242D01*
X018384Y001946D01*
X018384Y002058D01*
X018136Y001766D01*
X018436Y002186D01*
X017964Y001542D01*
X017456Y001034D01*
X017456Y001174D01*
X017976Y001694D01*
X017976Y001706D01*
X018084Y001814D01*
X018104Y001814D01*
X017584Y002334D01*
X017086Y002334D01*
X017014Y002262D01*
X017014Y001532D01*
X017135Y001652D01*
X017135Y002219D01*
X017264Y002089D01*
X017264Y002003D01*
X017327Y001940D01*
X017403Y001940D01*
X017317Y002027D01*
X017317Y002075D01*
X017288Y002103D01*
X017288Y002219D01*
X017331Y002175D01*
X017437Y002175D01*
X017451Y002161D01*
X017451Y002022D01*
X017471Y002003D01*
X017523Y002003D01*
X017619Y002099D01*
X017619Y002142D01*
X017552Y002209D01*
X017523Y002209D01*
X017528Y002214D01*
X017528Y001427D01*
X016976Y001427D01*
X016976Y001020D01*
X016723Y000767D01*
X016856Y000767D01*
X017039Y000950D01*
X017039Y001332D01*
X016956Y001416D01*
X016956Y002221D01*
X017011Y002277D01*
X017544Y002277D01*
X017591Y002323D01*
X017575Y002339D01*
X017393Y002339D01*
X018069Y003016D01*
X018069Y004465D01*
X017940Y004594D01*
X018151Y004608D02*
X018151Y004311D01*
X018199Y004263D01*
X018199Y002713D01*
X018209Y002703D01*
X018209Y002617D01*
X018069Y002478D01*
X018069Y003016D01*
X017528Y002252D02*
X017528Y002214D01*
X017456Y001034D02*
X017432Y001010D01*
X012530Y011839D02*
X012520Y011849D01*
X007760Y017844D02*
X007640Y017964D01*
X007640Y018214D01*
X007610Y018244D01*
X007610Y018754D01*
X007570Y018794D01*
X007507Y018794D01*
X007563Y018737D01*
X007563Y018208D01*
X007470Y018301D01*
X006977Y018301D01*
X006894Y018384D01*
X006894Y018757D01*
X006927Y018791D01*
X006970Y018791D01*
X007010Y018751D01*
X007010Y018384D01*
X007007Y018381D01*
X006764Y018381D01*
X006657Y018488D01*
X006657Y018837D01*
X006713Y018894D01*
X006897Y018894D01*
X006863Y018897D02*
X006770Y018804D01*
X006770Y018374D01*
X007107Y018038D01*
X007127Y018038D01*
X007153Y018011D01*
X007153Y018021D01*
X007254Y018122D01*
X007760Y017844D02*
X007760Y018774D01*
X007637Y018897D01*
X006863Y018897D01*
X005538Y020790D02*
X004729Y020790D01*
X004697Y020914D02*
X005662Y020914D01*
X005538Y020790D01*
X004697Y020914D02*
X000291Y016508D01*
X000291Y016328D01*
X000290Y016327D01*
X000290Y016068D01*
X000313Y016045D01*
X010305Y018780D02*
X010305Y019933D01*
X010305Y019962D01*
X010393Y020050D01*
X010681Y020050D01*
X010561Y019930D01*
X010421Y019930D01*
X010421Y019850D01*
X010661Y019850D01*
X010737Y019926D01*
X010737Y019966D01*
X010741Y019962D01*
X010741Y018851D01*
X010519Y018629D01*
X010519Y018626D01*
X010643Y018751D01*
X010643Y019744D01*
X010633Y019734D01*
X010480Y019734D01*
X010480Y019622D01*
X010593Y019704D01*
X010305Y018780D02*
X010307Y018777D01*
X013105Y018611D02*
X013244Y018472D01*
X013509Y018472D01*
X013549Y018513D01*
X013549Y019947D01*
X013578Y019919D01*
X013733Y019919D01*
X013780Y019873D01*
X013814Y019873D01*
X013762Y019924D01*
X013762Y019994D01*
X013756Y019988D01*
X013549Y019988D01*
X013578Y020017D01*
X013635Y020017D01*
X013722Y019930D01*
X013722Y019913D01*
X013733Y019924D01*
X013733Y020011D01*
X013896Y020037D02*
X013460Y020037D01*
X013460Y020036D01*
X013436Y020012D01*
X013436Y019894D01*
X013428Y020005D02*
X013428Y018807D01*
X013232Y018611D01*
X013105Y018611D01*
X013652Y018463D02*
X013924Y018735D01*
X013924Y020009D01*
X013896Y020037D01*
X013987Y020090D02*
X013475Y020090D01*
X013436Y020051D01*
X013436Y020012D01*
X013428Y020005D02*
X013460Y020037D01*
X013987Y020090D02*
X014026Y020051D01*
X014026Y018831D01*
X013711Y018516D01*
X006900Y004657D02*
X006861Y004657D01*
X006310Y004106D01*
X005050Y002846D01*
X005207Y002846D01*
X006506Y004146D01*
X006506Y003949D01*
X005562Y003004D01*
D11*
X000483Y001114D02*
X000485Y001164D01*
X000491Y001214D01*
X000501Y001263D01*
X000515Y001311D01*
X000532Y001358D01*
X000553Y001403D01*
X000578Y001447D01*
X000606Y001488D01*
X000638Y001527D01*
X000672Y001564D01*
X000709Y001598D01*
X000749Y001628D01*
X000791Y001655D01*
X000835Y001679D01*
X000881Y001700D01*
X000928Y001716D01*
X000976Y001729D01*
X001026Y001738D01*
X001075Y001743D01*
X001126Y001744D01*
X001176Y001741D01*
X001225Y001734D01*
X001274Y001723D01*
X001322Y001708D01*
X001368Y001690D01*
X001413Y001668D01*
X001456Y001642D01*
X001497Y001613D01*
X001536Y001581D01*
X001572Y001546D01*
X001604Y001508D01*
X001634Y001468D01*
X001661Y001425D01*
X001684Y001381D01*
X001703Y001335D01*
X001719Y001287D01*
X001731Y001238D01*
X001739Y001189D01*
X001743Y001139D01*
X001743Y001089D01*
X001739Y001039D01*
X001731Y000990D01*
X001719Y000941D01*
X001703Y000893D01*
X001684Y000847D01*
X001661Y000803D01*
X001634Y000760D01*
X001604Y000720D01*
X001572Y000682D01*
X001536Y000647D01*
X001497Y000615D01*
X001456Y000586D01*
X001413Y000560D01*
X001368Y000538D01*
X001322Y000520D01*
X001274Y000505D01*
X001225Y000494D01*
X001176Y000487D01*
X001126Y000484D01*
X001075Y000485D01*
X001026Y000490D01*
X000976Y000499D01*
X000928Y000512D01*
X000881Y000528D01*
X000835Y000549D01*
X000791Y000573D01*
X000749Y000600D01*
X000709Y000630D01*
X000672Y000664D01*
X000638Y000701D01*
X000606Y000740D01*
X000578Y000781D01*
X000553Y000825D01*
X000532Y000870D01*
X000515Y000917D01*
X000501Y000965D01*
X000491Y001014D01*
X000485Y001064D01*
X000483Y001114D01*
X000453Y020402D02*
X000455Y020452D01*
X000461Y020502D01*
X000471Y020551D01*
X000485Y020599D01*
X000502Y020646D01*
X000523Y020691D01*
X000548Y020735D01*
X000576Y020776D01*
X000608Y020815D01*
X000642Y020852D01*
X000679Y020886D01*
X000719Y020916D01*
X000761Y020943D01*
X000805Y020967D01*
X000851Y020988D01*
X000898Y021004D01*
X000946Y021017D01*
X000996Y021026D01*
X001045Y021031D01*
X001096Y021032D01*
X001146Y021029D01*
X001195Y021022D01*
X001244Y021011D01*
X001292Y020996D01*
X001338Y020978D01*
X001383Y020956D01*
X001426Y020930D01*
X001467Y020901D01*
X001506Y020869D01*
X001542Y020834D01*
X001574Y020796D01*
X001604Y020756D01*
X001631Y020713D01*
X001654Y020669D01*
X001673Y020623D01*
X001689Y020575D01*
X001701Y020526D01*
X001709Y020477D01*
X001713Y020427D01*
X001713Y020377D01*
X001709Y020327D01*
X001701Y020278D01*
X001689Y020229D01*
X001673Y020181D01*
X001654Y020135D01*
X001631Y020091D01*
X001604Y020048D01*
X001574Y020008D01*
X001542Y019970D01*
X001506Y019935D01*
X001467Y019903D01*
X001426Y019874D01*
X001383Y019848D01*
X001338Y019826D01*
X001292Y019808D01*
X001244Y019793D01*
X001195Y019782D01*
X001146Y019775D01*
X001096Y019772D01*
X001045Y019773D01*
X000996Y019778D01*
X000946Y019787D01*
X000898Y019800D01*
X000851Y019816D01*
X000805Y019837D01*
X000761Y019861D01*
X000719Y019888D01*
X000679Y019918D01*
X000642Y019952D01*
X000608Y019989D01*
X000576Y020028D01*
X000548Y020069D01*
X000523Y020113D01*
X000502Y020158D01*
X000485Y020205D01*
X000471Y020253D01*
X000461Y020302D01*
X000455Y020352D01*
X000453Y020402D01*
X018425Y020353D02*
X018427Y020403D01*
X018433Y020453D01*
X018443Y020502D01*
X018457Y020550D01*
X018474Y020597D01*
X018495Y020642D01*
X018520Y020686D01*
X018548Y020727D01*
X018580Y020766D01*
X018614Y020803D01*
X018651Y020837D01*
X018691Y020867D01*
X018733Y020894D01*
X018777Y020918D01*
X018823Y020939D01*
X018870Y020955D01*
X018918Y020968D01*
X018968Y020977D01*
X019017Y020982D01*
X019068Y020983D01*
X019118Y020980D01*
X019167Y020973D01*
X019216Y020962D01*
X019264Y020947D01*
X019310Y020929D01*
X019355Y020907D01*
X019398Y020881D01*
X019439Y020852D01*
X019478Y020820D01*
X019514Y020785D01*
X019546Y020747D01*
X019576Y020707D01*
X019603Y020664D01*
X019626Y020620D01*
X019645Y020574D01*
X019661Y020526D01*
X019673Y020477D01*
X019681Y020428D01*
X019685Y020378D01*
X019685Y020328D01*
X019681Y020278D01*
X019673Y020229D01*
X019661Y020180D01*
X019645Y020132D01*
X019626Y020086D01*
X019603Y020042D01*
X019576Y019999D01*
X019546Y019959D01*
X019514Y019921D01*
X019478Y019886D01*
X019439Y019854D01*
X019398Y019825D01*
X019355Y019799D01*
X019310Y019777D01*
X019264Y019759D01*
X019216Y019744D01*
X019167Y019733D01*
X019118Y019726D01*
X019068Y019723D01*
X019017Y019724D01*
X018968Y019729D01*
X018918Y019738D01*
X018870Y019751D01*
X018823Y019767D01*
X018777Y019788D01*
X018733Y019812D01*
X018691Y019839D01*
X018651Y019869D01*
X018614Y019903D01*
X018580Y019940D01*
X018548Y019979D01*
X018520Y020020D01*
X018495Y020064D01*
X018474Y020109D01*
X018457Y020156D01*
X018443Y020204D01*
X018433Y020253D01*
X018427Y020303D01*
X018425Y020353D01*
X018436Y001114D02*
X018438Y001164D01*
X018444Y001214D01*
X018454Y001263D01*
X018468Y001311D01*
X018485Y001358D01*
X018506Y001403D01*
X018531Y001447D01*
X018559Y001488D01*
X018591Y001527D01*
X018625Y001564D01*
X018662Y001598D01*
X018702Y001628D01*
X018744Y001655D01*
X018788Y001679D01*
X018834Y001700D01*
X018881Y001716D01*
X018929Y001729D01*
X018979Y001738D01*
X019028Y001743D01*
X019079Y001744D01*
X019129Y001741D01*
X019178Y001734D01*
X019227Y001723D01*
X019275Y001708D01*
X019321Y001690D01*
X019366Y001668D01*
X019409Y001642D01*
X019450Y001613D01*
X019489Y001581D01*
X019525Y001546D01*
X019557Y001508D01*
X019587Y001468D01*
X019614Y001425D01*
X019637Y001381D01*
X019656Y001335D01*
X019672Y001287D01*
X019684Y001238D01*
X019692Y001189D01*
X019696Y001139D01*
X019696Y001089D01*
X019692Y001039D01*
X019684Y000990D01*
X019672Y000941D01*
X019656Y000893D01*
X019637Y000847D01*
X019614Y000803D01*
X019587Y000760D01*
X019557Y000720D01*
X019525Y000682D01*
X019489Y000647D01*
X019450Y000615D01*
X019409Y000586D01*
X019366Y000560D01*
X019321Y000538D01*
X019275Y000520D01*
X019227Y000505D01*
X019178Y000494D01*
X019129Y000487D01*
X019079Y000484D01*
X019028Y000485D01*
X018979Y000490D01*
X018929Y000499D01*
X018881Y000512D01*
X018834Y000528D01*
X018788Y000549D01*
X018744Y000573D01*
X018702Y000600D01*
X018662Y000630D01*
X018625Y000664D01*
X018591Y000701D01*
X018559Y000740D01*
X018531Y000781D01*
X018506Y000825D01*
X018485Y000870D01*
X018468Y000917D01*
X018454Y000965D01*
X018444Y001014D01*
X018438Y001064D01*
X018436Y001114D01*
D12*
X017247Y001553D02*
X017247Y002153D01*
X016247Y002153D02*
X016247Y001553D01*
X014044Y001511D02*
X014044Y002111D01*
X013044Y002111D02*
X013044Y001511D01*
X010951Y001507D02*
X010951Y002107D01*
X009951Y002107D02*
X009951Y001507D01*
X007869Y001507D02*
X007869Y002107D01*
X006869Y002107D02*
X006869Y001507D01*
X017151Y004308D02*
X017151Y004908D01*
X018151Y004908D02*
X018151Y004308D01*
X018142Y006568D02*
X018142Y007168D01*
X017142Y007168D02*
X017142Y006568D01*
X017110Y009849D02*
X017710Y009849D01*
X017710Y010849D02*
X017110Y010849D01*
X017917Y013493D02*
X017917Y014093D01*
X018917Y014093D02*
X018917Y013493D01*
X018915Y015947D02*
X018915Y016547D01*
X017915Y016547D02*
X017915Y015947D01*
X016632Y018774D02*
X016032Y018774D01*
X016032Y019774D02*
X016632Y019774D01*
X013720Y020004D02*
X013720Y019404D01*
X012720Y019404D02*
X012720Y020004D01*
X010593Y020004D02*
X010593Y019404D01*
X009593Y019404D02*
X009593Y020004D01*
X007342Y019656D02*
X006742Y019656D01*
X006742Y018656D02*
X007342Y018656D01*
D13*
X004896Y004155D03*
D14*
X004896Y005155D03*
X004896Y006155D03*
X004896Y007155D03*
X004896Y008155D03*
X004896Y009155D03*
X004896Y010155D03*
X003896Y010155D03*
X003896Y009155D03*
X003896Y008155D03*
X003896Y007155D03*
X003896Y006155D03*
X003896Y005155D03*
X003896Y004155D03*
D15*
X002703Y002653D02*
X002695Y002653D01*
X000849Y004500D01*
X002703Y002653D02*
X003190Y002167D01*
X003290Y002067D01*
X004016Y001340D01*
X004188Y001169D01*
X007181Y004072D02*
X007181Y004140D01*
X006900Y004421D01*
X006900Y004657D01*
X006900Y004678D01*
X006874Y004704D01*
X006874Y006279D02*
X006861Y006292D01*
X006861Y006744D01*
X007189Y007072D01*
X007831Y007072D01*
X005798Y011647D02*
X007451Y013301D01*
X007451Y014657D01*
X007904Y015110D01*
X008121Y015110D01*
X014947Y015110D01*
X015443Y014614D01*
X016467Y014614D01*
X015770Y013649D02*
X015770Y013268D01*
X016290Y012748D01*
X019006Y017409D02*
X019006Y007768D01*
X018859Y007620D01*
X018235Y006996D01*
X018235Y006886D01*
X018247Y006874D01*
X018266Y006693D02*
X018266Y004764D01*
X018278Y004752D01*
X019006Y017409D02*
X019006Y017649D01*
X019006Y017945D01*
X017530Y019421D01*
X017247Y019705D01*
X004316Y015452D02*
X003456Y015452D01*
X001996Y014701D02*
X001996Y013841D01*
X003456Y013090D02*
X004316Y013090D01*
D16*
X008592Y013388D02*
X008592Y013908D01*
X009592Y013908D02*
X009592Y013388D01*
X010592Y013388D02*
X010592Y013908D01*
X011592Y013908D02*
X011592Y013388D01*
X012592Y013388D02*
X012592Y013908D01*
X013592Y013908D02*
X013592Y013388D01*
X014592Y013388D02*
X014592Y013908D01*
X015592Y013908D02*
X015592Y013388D01*
X014520Y012109D02*
X014520Y011589D01*
X013520Y011589D02*
X013520Y012109D01*
X012520Y012109D02*
X012520Y011589D01*
X011520Y011589D02*
X011520Y012109D01*
X010520Y012109D02*
X010520Y011589D01*
X009520Y011589D02*
X009520Y012109D01*
X008520Y012109D02*
X008520Y011589D01*
X008520Y009109D02*
X008520Y008589D01*
X009520Y008589D02*
X009520Y009109D01*
X010520Y009109D02*
X010520Y008589D01*
X011520Y008589D02*
X011520Y009109D01*
X012520Y009109D02*
X012520Y008589D01*
X013520Y008589D02*
X013520Y009109D01*
X014520Y009109D02*
X014520Y008589D01*
X014831Y007332D02*
X014831Y006812D01*
X013831Y006812D02*
X013831Y007332D01*
X012831Y007332D02*
X012831Y006812D01*
X011831Y006812D02*
X011831Y007332D01*
X010831Y007332D02*
X010831Y006812D01*
X009831Y006812D02*
X009831Y007332D01*
X008831Y007332D02*
X008831Y006812D01*
X007831Y006812D02*
X007831Y007332D01*
X007831Y004332D02*
X007831Y003812D01*
X008831Y003812D02*
X008831Y004332D01*
X009831Y004332D02*
X009831Y003812D01*
X010831Y003812D02*
X010831Y004332D01*
X011831Y004332D02*
X011831Y003812D01*
X012831Y003812D02*
X012831Y004332D01*
X013831Y004332D02*
X013831Y003812D01*
X014831Y003812D02*
X014831Y004332D01*
X014592Y016388D02*
X014592Y016908D01*
X013592Y016908D02*
X013592Y016388D01*
X012592Y016388D02*
X012592Y016908D01*
X011592Y016908D02*
X011592Y016388D01*
X010592Y016388D02*
X010592Y016908D01*
X009592Y016908D02*
X009592Y016388D01*
X008592Y016388D02*
X008592Y016908D01*
X015592Y016908D02*
X015592Y016388D01*
D17*
X016630Y016056D03*
X016630Y014481D03*
X006874Y006279D03*
X006874Y004704D03*
D18*
X016257Y010033D03*
X016257Y010702D03*
D19*
X017410Y010849D02*
X017410Y011628D01*
X016290Y012748D01*
X015719Y014067D02*
X016082Y014430D01*
X016630Y014481D01*
X018915Y013795D02*
X018917Y013793D01*
X018915Y013795D02*
X018915Y016247D01*
X018915Y017285D01*
X018915Y017318D01*
X019006Y017409D01*
X019066Y007649D02*
X018869Y007453D01*
X018869Y003122D01*
X019026Y003122D02*
X019026Y003240D01*
X019066Y003279D01*
X019066Y007649D01*
X018987Y007334D02*
X018593Y006941D01*
X018593Y005012D01*
X018593Y002689D01*
X019026Y003122D01*
X018151Y004608D02*
X018140Y006733D01*
X018191Y006681D01*
X008520Y011849D02*
X008466Y011795D01*
X003896Y010155D02*
X003896Y009155D01*
X003896Y008155D01*
X003896Y007155D01*
X003896Y006155D01*
X003896Y005155D01*
X003896Y004155D01*
X004944Y017885D02*
X005332Y017885D01*
X004556Y018662D01*
X003559Y018662D01*
X004161Y019263D01*
X004161Y019346D01*
X004237Y019270D01*
X004831Y019270D01*
X004859Y019242D01*
X004859Y018959D01*
X005619Y019719D01*
X006115Y019719D01*
X005384Y018988D01*
X005163Y018483D02*
X004694Y018015D01*
X002703Y018015D01*
X003012Y018324D01*
X004505Y018324D01*
X004944Y017885D01*
D20*
X005129Y017492D02*
X002018Y017492D01*
X000562Y016035D01*
X000562Y011390D01*
X000562Y011193D01*
X000562Y009618D01*
X000798Y009854D01*
X000798Y009933D01*
X000798Y010563D01*
X000601Y011153D02*
X000562Y011193D01*
X000798Y009933D02*
X001113Y009618D01*
X001113Y009500D01*
X001034Y009579D01*
X000562Y009579D01*
X000562Y004697D01*
X000699Y004559D01*
X002605Y002653D01*
X002695Y002653D01*
X003190Y002167D02*
X003711Y001646D01*
X004853Y001646D01*
X005995Y002886D02*
X006703Y003594D01*
X007181Y004072D01*
X007831Y004072D01*
X001861Y004146D02*
X001861Y005720D01*
X001664Y005917D01*
X001664Y009106D01*
X001861Y009303D01*
X001664Y009539D02*
X001270Y009146D01*
X001270Y004736D01*
X001861Y004146D01*
X001664Y009539D02*
X001664Y009579D01*
X004194Y019668D02*
X007042Y019656D01*
X015592Y013648D02*
X015769Y013648D01*
X015770Y013649D01*
D21*
X016152Y013870D02*
X016152Y013397D01*
X017727Y011823D01*
X017727Y011075D01*
X016388Y012413D01*
X016113Y012413D01*
X017569Y010957D01*
X017518Y010957D01*
X017410Y010849D01*
X017569Y010957D02*
X017648Y010957D01*
X017727Y011035D01*
X017727Y010838D01*
X017609Y010720D01*
X017727Y011035D02*
X017727Y011075D01*
X018239Y008594D02*
X018239Y005366D01*
X018593Y005012D01*
X018593Y002177D01*
X017097Y000681D01*
X005483Y000681D01*
X005286Y000878D01*
X005286Y002216D01*
X006900Y003831D01*
X006900Y004539D01*
X007294Y004933D01*
X007766Y004933D01*
X007688Y004854D01*
X007727Y004854D01*
X008003Y004579D01*
X008003Y004736D01*
X007963Y004775D01*
X007884Y004775D01*
X007963Y004697D01*
X007963Y004972D01*
X008121Y004815D01*
X008121Y004775D01*
X008042Y004854D01*
X008042Y004460D01*
X008121Y004382D01*
X008121Y004657D01*
X006703Y004657D01*
X006506Y004854D01*
X006467Y004815D01*
X006467Y004264D01*
X006310Y004106D01*
X006310Y003437D01*
X005995Y003122D01*
X003278Y003122D01*
X001979Y004421D01*
X001979Y009972D01*
X000562Y011390D01*
X000562Y016390D01*
X004892Y020720D01*
X013199Y020720D01*
X013357Y020563D01*
X013042Y020248D01*
X013042Y020563D01*
X013357Y020878D01*
X013406Y020660D02*
X012957Y020211D01*
X012922Y020211D01*
X012947Y020237D01*
X012947Y020461D01*
X012894Y020515D01*
X012070Y020515D01*
X012067Y020515D01*
X012033Y020549D01*
X012033Y020760D01*
X012070Y020515D02*
X012400Y020185D01*
X012400Y019244D01*
X012470Y019174D01*
X012897Y019174D01*
X012933Y019211D01*
X012933Y020197D01*
X012873Y020263D02*
X012873Y019975D01*
X012885Y019987D01*
X012885Y020043D01*
X012882Y020046D01*
X012882Y020065D01*
X013406Y020589D01*
X013406Y020660D01*
X013217Y020607D02*
X013116Y020506D01*
X012873Y020263D01*
X013116Y020506D02*
X012205Y020506D01*
X012397Y020314D01*
X012397Y020214D01*
X012121Y020490D01*
X012121Y020498D01*
X012201Y020418D01*
X012317Y020418D01*
X012449Y020286D01*
X012449Y020050D01*
X010253Y020574D02*
X010161Y020574D01*
X009981Y020394D01*
X009981Y020482D01*
X010001Y020502D01*
X010253Y020574D02*
X009873Y020194D01*
X009774Y020294D01*
X009770Y020294D01*
X009873Y020194D02*
X009833Y020154D01*
X009833Y020146D01*
X009833Y019826D01*
X009713Y020118D02*
X009745Y020150D01*
X009837Y020150D01*
X009833Y020146D01*
X006546Y017610D02*
X006546Y016626D01*
X006467Y016547D01*
X006467Y017610D01*
X005916Y018161D01*
X005916Y017649D01*
X006428Y017138D01*
X006428Y017531D01*
X005955Y018004D01*
X005955Y017886D01*
X006388Y017453D01*
X006388Y017334D01*
X006349Y017295D01*
X006349Y017413D01*
X005955Y017807D01*
X005955Y017689D01*
X006310Y017334D01*
X006546Y017610D02*
X005798Y018358D01*
X005798Y018437D01*
X004617Y020979D02*
X016536Y020979D01*
X019406Y018109D01*
X019406Y002763D01*
X019406Y002761D01*
X019396Y002750D01*
X019396Y003139D01*
X019406Y002763D02*
X018873Y002229D01*
X019396Y002750D02*
X017025Y000380D01*
X004399Y000380D01*
X004309Y000470D01*
X004309Y000581D01*
X004339Y000611D01*
X004339Y000615D01*
X004393Y000669D01*
X004370Y000380D02*
X000254Y004496D01*
X000254Y016616D01*
X004617Y020979D01*
X000552Y016045D02*
X000313Y016045D01*
X000552Y016045D02*
X000562Y016035D01*
X007215Y004972D02*
X007963Y004972D01*
X007963Y004933D02*
X007766Y004933D01*
X007806Y004854D02*
X007884Y004775D01*
X007924Y004815D02*
X007924Y004854D01*
X007884Y004894D01*
X007924Y004894D01*
X007963Y004854D01*
X007963Y004775D01*
X007924Y004815D01*
X008042Y004854D02*
X007963Y004933D01*
X008121Y004775D02*
X008121Y004657D01*
X008121Y004382D02*
X007294Y003555D01*
X007097Y003555D01*
X007136Y003594D01*
X007963Y003594D01*
X008121Y003752D01*
X008121Y004382D01*
X007160Y002370D02*
X007160Y001460D01*
X007113Y001414D01*
X006647Y001414D01*
X006647Y002394D01*
X006725Y002472D01*
X006727Y002470D01*
X006797Y002470D01*
X006900Y002367D01*
X006727Y002454D02*
X006727Y002470D01*
X007669Y001245D02*
X007228Y000803D01*
X007327Y000803D01*
X007392Y000738D01*
X007228Y000803D02*
X007128Y000803D01*
X008161Y001242D02*
X008167Y001242D01*
X008650Y000759D01*
X008650Y000650D01*
X008658Y000642D01*
X009647Y001431D02*
X009825Y001253D01*
X010052Y001253D01*
X010200Y001400D01*
X010200Y002378D01*
X010219Y002397D01*
X009968Y002410D02*
X009838Y002539D01*
X009838Y002564D01*
X009647Y002372D01*
X009647Y001431D01*
X009838Y002564D02*
X009838Y002567D01*
X012670Y002367D02*
X012670Y001567D01*
X012763Y001474D01*
X012763Y002017D01*
X012720Y002060D01*
X012720Y001524D01*
X012813Y001430D01*
X012813Y001540D01*
X012830Y001557D01*
X012830Y001460D01*
X012887Y001404D01*
X013163Y001404D01*
X013237Y001477D01*
X012950Y001477D01*
X012947Y001474D01*
X012933Y001474D01*
X012903Y001504D01*
X013157Y001504D01*
X013200Y001547D01*
X013257Y001547D01*
X013260Y001550D01*
X013260Y002200D01*
X013263Y002197D01*
X013263Y002173D01*
X013038Y002173D01*
X013003Y002138D01*
X013263Y002173D02*
X013280Y002157D01*
X013280Y001517D01*
X013193Y001430D01*
X013260Y002200D02*
X013020Y002440D01*
X014026Y001761D02*
X014043Y001778D01*
X014026Y001761D02*
X014026Y001751D01*
X015907Y001634D02*
X016024Y001517D01*
X016368Y001517D01*
X016435Y001584D01*
X016435Y001581D02*
X016400Y001616D01*
X016400Y001732D01*
X016349Y001681D01*
X016337Y001681D01*
X016400Y001732D02*
X016418Y001750D01*
X016418Y002459D01*
X016307Y002570D01*
X016043Y002570D01*
X016035Y002570D01*
X016027Y002577D01*
X016043Y002570D02*
X015907Y002434D01*
X015907Y001634D01*
X016435Y001581D02*
X016435Y002450D01*
X016294Y002590D01*
X016343Y004244D02*
X016468Y004244D01*
X016923Y004700D01*
X016923Y004973D01*
X017041Y005091D01*
X017319Y005091D01*
X017386Y005024D01*
X017398Y005024D01*
X017418Y005003D01*
X017418Y004288D01*
X017409Y004278D01*
X017204Y004278D01*
X017188Y004295D01*
X017409Y004278D02*
X017409Y004841D01*
X017233Y005017D01*
X017076Y005017D01*
X017048Y004989D01*
X017048Y004977D01*
X016988Y004917D01*
X016988Y004663D01*
X016997Y004653D01*
X016997Y004575D01*
X017018Y004554D01*
X016946Y004554D01*
X016916Y004584D01*
X016916Y004588D01*
X016946Y004619D01*
X017104Y004619D01*
X017144Y004578D01*
X017151Y004585D01*
X017151Y004608D01*
X017144Y004578D02*
X017159Y004563D01*
X017349Y004563D01*
X017358Y004554D01*
X017358Y004644D01*
X017333Y004669D01*
X017333Y004767D01*
X017335Y004769D01*
X017335Y004801D01*
X017247Y004889D01*
X017205Y004889D01*
X017173Y004922D01*
X017134Y004922D01*
X017117Y004938D01*
X017117Y004915D01*
X017062Y004859D01*
X017062Y004748D01*
X017064Y004746D01*
X017064Y004683D01*
X017092Y004656D01*
X017261Y004656D01*
X017273Y004667D01*
X017273Y004697D01*
X017212Y004757D01*
X017212Y004799D01*
X017205Y004806D01*
X017136Y004806D01*
X017115Y004827D01*
X017136Y004848D01*
X017136Y004757D01*
X017124Y004746D01*
X017215Y004746D01*
X017259Y004790D01*
X017259Y004954D01*
X017298Y004993D01*
X017363Y004993D01*
X017365Y004991D01*
X017365Y004986D01*
X017363Y004984D01*
X017363Y004882D01*
X017217Y004737D01*
X017080Y004737D01*
X017046Y004771D01*
X017046Y004794D01*
X017043Y004797D01*
X017893Y004549D02*
X017938Y004594D01*
X017940Y004594D01*
X018859Y007620D02*
X018859Y007649D01*
X018987Y007649D01*
X015483Y013043D02*
X015483Y013122D01*
X015325Y013279D01*
X015325Y013909D01*
X015483Y014067D01*
X015522Y014106D01*
X015916Y014106D01*
X016152Y013870D01*
X015758Y014106D02*
X015562Y014106D01*
X015483Y014027D01*
X015483Y014067D01*
X015719Y014067D01*
X015758Y014106D01*
X015325Y013909D02*
X015286Y013870D01*
X015286Y013555D01*
X015286Y013240D01*
X015325Y013240D01*
X015286Y013240D02*
X015483Y013043D01*
X015286Y013555D02*
X015325Y013594D01*
X015325Y013712D01*
X018631Y017575D02*
X018707Y017575D01*
X018711Y017571D01*
X018631Y017575D02*
X018631Y017666D01*
X018416Y017881D01*
X018143Y017881D01*
X018101Y017922D01*
X018101Y018121D01*
X018161Y018182D01*
X018161Y017983D01*
X018189Y017955D01*
X018369Y017955D01*
X018372Y017952D01*
X018360Y017952D01*
X018231Y018082D01*
X018231Y017999D01*
X018228Y017996D01*
X018353Y017853D02*
X018631Y017575D01*
X018353Y017853D02*
X017895Y017853D01*
X017893Y017855D01*
X013534Y008863D02*
X013520Y008849D01*
X004936Y000411D02*
X004936Y000380D01*
X004370Y000380D01*
X003199Y002571D02*
X002569Y003201D01*
X002569Y003594D01*
X002963Y003201D01*
X002963Y003122D01*
X003003Y003122D01*
X002963Y003161D01*
X002806Y003161D01*
X002609Y003358D01*
X002609Y003437D01*
X002648Y003397D01*
X002688Y003397D01*
X002884Y003201D01*
X002845Y003201D01*
X002648Y003397D01*
X003022Y003220D02*
X003199Y003043D01*
X003199Y002571D01*
X003022Y003220D02*
X002254Y003988D01*
X002254Y003319D02*
X002294Y003319D01*
X002294Y003122D01*
X000699Y004559D02*
X000306Y004559D01*
X000286Y004579D01*
D22*
X003829Y010484D02*
X003829Y011075D01*
X004262Y011508D01*
X003829Y010484D02*
X002666Y011647D01*
X001979Y012334D01*
X001979Y014482D01*
X001996Y014500D01*
X001996Y014832D01*
X002609Y015445D01*
X003879Y015445D01*
X003886Y015452D01*
X005443Y017374D02*
X005865Y016952D01*
X005877Y016952D01*
X004944Y017885D01*
X005443Y017374D02*
X005443Y019303D01*
X005207Y019067D01*
X005129Y019146D01*
X004932Y019146D01*
X005877Y016952D02*
X005877Y013988D01*
X004978Y013090D01*
X003886Y013090D01*
X002666Y011647D02*
X005798Y011647D01*
X006170Y011647D01*
X001996Y014271D02*
X001996Y014500D01*
D23*
X004262Y011508D02*
X006191Y011508D01*
X006170Y011647D02*
X006317Y011795D01*
X008466Y011795D01*
X015719Y016705D02*
X016349Y016705D01*
X017766Y018122D01*
X017766Y019185D01*
X017530Y019421D01*
X003290Y002067D02*
X003558Y001799D01*
D24*
X015396Y013201D02*
X017298Y011299D01*
X017274Y011299D01*
X016707Y011866D01*
X016707Y010957D01*
X016963Y010701D01*
X016963Y011421D01*
X016971Y011429D01*
X016971Y011090D01*
X017373Y010689D01*
X015396Y013201D02*
X015396Y014075D01*
X015711Y014390D01*
X015979Y014657D01*
X016109Y014657D01*
X016105Y014653D01*
X016105Y013886D01*
X016286Y014067D01*
X016601Y014067D01*
X015861Y013327D01*
X015762Y013327D01*
X018852Y017256D02*
X018886Y017256D01*
X018915Y017285D01*
X018852Y017256D02*
X018425Y017684D01*
X017475Y017684D01*
D25*
X016703Y018634D02*
X016703Y018752D01*
X016625Y018831D01*
X016605Y018831D01*
X015404Y018831D01*
X014420Y017846D01*
X014890Y017728D02*
X015877Y018715D01*
X016117Y018715D01*
X016332Y018774D01*
X016703Y018634D02*
X016310Y018240D01*
X015443Y018240D01*
X014890Y017728D02*
X012136Y017728D01*
X011592Y017184D01*
X011592Y016648D01*
X010592Y016648D02*
X010592Y017405D01*
X011664Y018476D01*
X013436Y018476D01*
X013472Y018513D01*
X013672Y018712D01*
X013672Y019507D01*
X013720Y019704D01*
X012720Y019704D02*
X012668Y020464D01*
X012373Y020760D01*
X014625Y020760D01*
X016428Y020760D01*
X017294Y019894D01*
X017105Y019705D01*
X016841Y019705D01*
X015592Y016648D02*
X016185Y016056D01*
X016630Y016056D01*
X016467Y014614D02*
X016152Y014299D01*
X016152Y013870D01*
X010522Y018870D02*
X010522Y019580D01*
X010593Y019704D01*
X010522Y018870D02*
X009592Y017940D01*
X009592Y016648D01*
X008592Y016648D02*
X008592Y016784D01*
X007254Y018122D01*
X007254Y018648D01*
X007042Y018656D01*
X007042Y019656D02*
X009434Y019668D01*
X009593Y019704D01*
X009538Y019595D01*
X009538Y020563D02*
X009735Y020760D01*
X012033Y020760D01*
X012373Y020760D01*
X004223Y020445D02*
X004144Y020523D01*
X003514Y020523D01*
X000640Y017649D01*
X000640Y017610D01*
X000483Y017453D01*
X000483Y016901D01*
X003711Y020130D01*
X003711Y020642D01*
X016861Y007256D02*
X017136Y007256D01*
X017176Y007216D01*
X017176Y007020D01*
X015758Y005602D01*
X014499Y005602D01*
X014270Y005374D01*
X014223Y005327D01*
X016034Y005327D01*
X017097Y006390D01*
X017144Y006468D02*
X016050Y005374D01*
X014270Y005374D01*
X014223Y005327D02*
X013849Y004953D01*
X013849Y004090D01*
X013831Y004072D01*
X012831Y004072D02*
X012831Y003608D01*
X013475Y002964D01*
X014853Y002964D01*
X016113Y001705D01*
X016113Y002059D01*
X015522Y002649D01*
X015640Y002964D02*
X016027Y002577D01*
X016152Y002453D01*
X016152Y001784D01*
X016247Y001853D01*
X017247Y001853D02*
X017167Y000887D01*
X017176Y000878D01*
X017176Y001271D01*
X018593Y002689D01*
X018069Y002478D02*
X017958Y002366D01*
X017784Y002366D01*
X017980Y002562D01*
X017980Y002626D01*
X017912Y002558D01*
X017912Y002314D01*
X017916Y002310D01*
X017940Y002310D01*
X017928Y002322D01*
X017928Y002326D01*
X017928Y002334D01*
X017908Y002314D01*
X017247Y001853D02*
X017167Y000830D01*
X016979Y000642D01*
X014262Y000642D01*
X014026Y000878D01*
X013790Y000642D01*
X011191Y000642D01*
X010929Y000904D01*
X010951Y001807D01*
X010916Y001794D01*
X010916Y000878D02*
X010680Y000642D01*
X008658Y000642D01*
X008199Y000642D01*
X007898Y000943D01*
X007898Y000892D02*
X007648Y000642D01*
X004420Y000642D01*
X004393Y000669D01*
X003869Y001193D01*
X004016Y001340D01*
X003987Y000642D02*
X003239Y000642D01*
X000601Y003279D01*
X000601Y003634D01*
X000640Y003831D02*
X000562Y003831D01*
X000483Y003909D01*
X000640Y003831D02*
X003908Y000563D01*
X004066Y000563D01*
X003987Y000642D01*
X004656Y000996D02*
X005010Y001350D01*
X005089Y001350D01*
X005050Y001311D01*
X005050Y000996D01*
X005365Y001311D01*
X005404Y001311D01*
X005483Y001232D01*
X005483Y000996D01*
X005680Y001193D01*
X005798Y001193D01*
X005798Y002925D01*
X006073Y002925D01*
X006073Y002807D01*
X005601Y002807D01*
X005601Y001153D01*
X005798Y001153D01*
X005798Y000957D01*
X006073Y000681D01*
X005719Y000681D01*
X005680Y000720D01*
X005345Y001626D02*
X005050Y001921D01*
X005050Y002138D01*
X004656Y001744D01*
X004656Y000996D01*
X004892Y002216D02*
X003593Y002216D01*
X003317Y002492D01*
X005758Y002492D01*
X006152Y002886D01*
X005995Y002886D01*
X002530Y002886D01*
X002294Y003122D01*
X006869Y001807D02*
X006900Y001817D01*
X006869Y001807D01*
X006900Y001817D02*
X006900Y002367D01*
X007537Y003004D01*
X009262Y003004D01*
X009853Y003594D01*
X009853Y004051D01*
X009831Y004072D01*
X010798Y004039D02*
X010798Y003240D01*
X009968Y002410D01*
X009929Y002371D01*
X009951Y001807D01*
X011821Y003004D02*
X011821Y003752D01*
X011831Y004072D02*
X011831Y003348D01*
X012018Y003161D01*
X011861Y003004D01*
X011821Y003004D01*
X012254Y002571D01*
X012451Y002295D02*
X012491Y002256D01*
X012491Y001862D01*
X012845Y001508D01*
X013081Y001508D01*
X013042Y001468D01*
X012333Y001468D01*
X012136Y001665D01*
X012136Y003043D01*
X012018Y003161D01*
X012136Y003043D02*
X013003Y002177D01*
X013003Y002138D01*
X013003Y001778D01*
X013044Y001811D01*
X014026Y001751D02*
X014044Y001811D01*
X014853Y002964D02*
X015640Y002964D01*
X015955Y004067D02*
X016231Y004067D01*
X017117Y004953D01*
X017117Y004952D01*
X017117Y004938D01*
X017117Y004953D02*
X017136Y004972D01*
X017144Y006865D02*
X017142Y006868D01*
X016861Y007256D02*
X014971Y005366D01*
X014538Y005366D01*
X010831Y004072D02*
X010798Y004039D01*
X007869Y001807D02*
X007898Y000892D01*
D26*
X007701Y001090D02*
X007701Y002207D01*
X007724Y002230D01*
X008029Y002230D01*
X008127Y002132D01*
X008127Y001090D01*
X008508Y000709D01*
X007701Y001090D02*
X007385Y000774D01*
X007357Y000774D01*
X007392Y000738D01*
X007392Y000720D01*
X005325Y003043D02*
X002924Y003043D01*
X002569Y003397D01*
X002569Y004067D01*
X002609Y004027D01*
X002845Y004027D01*
X002845Y009106D01*
X002609Y009342D01*
X002530Y009342D01*
X002727Y009146D01*
X002727Y004185D01*
X002609Y004185D01*
X002609Y009146D01*
X002530Y009146D01*
X002530Y009185D01*
X003003Y009185D01*
X003003Y009421D01*
X000877Y011547D01*
X000877Y015366D01*
X002333Y016823D01*
X004774Y016823D01*
X004656Y016941D01*
X002491Y016941D01*
X002373Y017059D01*
X000955Y015642D01*
X000955Y015602D01*
X000837Y015720D01*
X000837Y015760D01*
X002176Y017098D01*
X004695Y017098D01*
X004892Y016901D01*
X004932Y016901D01*
X004853Y016980D01*
X004892Y017020D01*
X004892Y017059D01*
X005247Y016705D01*
X005365Y016705D01*
X005286Y016783D01*
X005010Y016783D01*
X005562Y016232D01*
X005562Y016035D01*
X004892Y016705D01*
X001743Y016705D01*
X001664Y016626D01*
X000325Y016626D01*
X000325Y017728D01*
X003514Y020917D01*
X005168Y020917D01*
X005365Y020720D01*
X004892Y020720D01*
X003593Y020720D01*
X003554Y020760D01*
X003593Y020760D01*
X003711Y020642D01*
X004729Y020790D02*
X000389Y016451D01*
X000389Y016382D01*
X002490Y018483D01*
X005163Y018483D01*
X005640Y017689D02*
X005739Y017590D01*
X005660Y017590D01*
X005443Y017374D01*
X005739Y017590D02*
X005798Y017531D01*
X005837Y017531D01*
X006467Y016901D01*
X006467Y016547D01*
X006467Y015327D01*
X006428Y015287D01*
X006428Y013988D01*
X006467Y014027D01*
X006467Y015248D01*
X006310Y015090D01*
X006231Y015090D01*
X006231Y015169D01*
X006231Y015090D02*
X006231Y014933D01*
X005758Y014933D01*
X004971Y014146D01*
X004971Y014106D01*
X004853Y013988D01*
X004105Y013988D01*
X004026Y013909D01*
X004026Y013870D01*
X003987Y013831D01*
X004853Y013831D01*
X005129Y014106D01*
X005129Y014342D01*
X005286Y014500D01*
X005286Y014106D01*
X004853Y013673D01*
X003947Y013673D01*
X003908Y013634D01*
X003908Y013988D01*
X003751Y013988D01*
X003711Y013949D01*
X003711Y013634D01*
X003593Y013516D01*
X003593Y013870D01*
X003554Y013909D01*
X003554Y013712D01*
X003357Y013516D01*
X003357Y013949D01*
X003514Y014106D01*
X004735Y014106D01*
X005286Y014657D01*
X005404Y014657D01*
X005404Y015012D01*
X005483Y015090D01*
X005404Y015012D02*
X004695Y014303D01*
X003514Y014303D01*
X003160Y013949D01*
X003160Y013201D01*
X003239Y013319D02*
X003357Y013201D01*
X003436Y013201D01*
X005050Y012689D02*
X005129Y012689D01*
X006428Y013988D01*
X006310Y013870D02*
X005168Y012728D01*
X005089Y012728D01*
X005050Y012689D01*
X005798Y011647D02*
X005619Y011468D01*
X004144Y011468D01*
X003896Y011220D01*
X003896Y010155D01*
X004184Y010563D02*
X004853Y011232D01*
X006388Y011232D01*
X006821Y011665D01*
X008199Y011665D01*
X008632Y012098D01*
X008632Y012295D01*
X007491Y013437D01*
X007491Y012649D01*
X007018Y012177D01*
X008357Y012177D01*
X008436Y012256D01*
X007688Y013004D01*
X007688Y012807D01*
X007609Y012728D01*
X007609Y012571D01*
X007412Y012374D01*
X008121Y012374D01*
X008160Y012334D01*
X008042Y012334D01*
X007766Y012610D01*
X007845Y012689D01*
X007845Y012768D01*
X007412Y013201D01*
X007412Y014539D01*
X008003Y015130D01*
X008022Y015110D01*
X008121Y015110D01*
X008592Y013648D02*
X008592Y013201D01*
X009499Y012295D01*
X009499Y011870D01*
X009520Y011849D01*
X010520Y011849D02*
X010522Y011847D01*
X010522Y011370D01*
X010069Y010917D01*
X006959Y010917D01*
X006197Y010155D01*
X004896Y010155D01*
X004896Y009155D02*
X005787Y009155D01*
X007156Y010523D01*
X011684Y010523D01*
X012530Y011370D01*
X012530Y011839D01*
X012520Y011849D02*
X012510Y011859D01*
X012510Y012315D01*
X011592Y013233D01*
X011592Y013648D01*
X010592Y013648D02*
X010592Y013229D01*
X011506Y012315D01*
X011506Y011862D01*
X011520Y011849D01*
X010522Y011851D02*
X010520Y011849D01*
X010522Y011851D02*
X010522Y012295D01*
X009592Y013225D01*
X009592Y013648D01*
X012592Y013648D02*
X012592Y013237D01*
X013514Y012315D01*
X013514Y011855D01*
X013520Y011849D01*
X014518Y011847D02*
X014518Y011252D01*
X013416Y010149D01*
X007471Y010149D01*
X005483Y008161D01*
X004902Y008161D01*
X004896Y008155D01*
X004918Y007177D02*
X004896Y007155D01*
X004918Y007177D02*
X005247Y007177D01*
X007806Y009736D01*
X013160Y009736D01*
X013534Y009362D01*
X013534Y008863D01*
X013520Y008849D02*
X013520Y008628D01*
X014833Y007315D01*
X014833Y007074D01*
X014831Y007072D01*
X013849Y007090D02*
X013831Y007072D01*
X013849Y007090D02*
X013849Y007275D01*
X012520Y008605D01*
X012520Y008849D01*
X011520Y008849D02*
X011520Y008620D01*
X012845Y007295D01*
X012845Y007086D01*
X012831Y007072D01*
X012845Y007059D01*
X012845Y006153D01*
X012176Y005484D01*
X006073Y005484D01*
X005403Y006155D01*
X004896Y006155D01*
X002806Y003870D02*
X002963Y003712D01*
X002963Y003673D01*
X003396Y003240D01*
X003121Y003240D01*
X003278Y003083D01*
X003357Y003161D01*
X003475Y003161D01*
X005443Y003161D01*
X005325Y003043D01*
X003790Y002846D02*
X003475Y003161D01*
X003396Y003240D01*
X003022Y003220D02*
X003003Y003201D01*
X002845Y003358D01*
X002845Y003752D01*
X002688Y003594D01*
X002609Y003673D01*
X002609Y003831D01*
X002648Y003870D01*
X002806Y003870D01*
X003003Y003201D02*
X003003Y009146D01*
X002333Y009815D01*
X002018Y009815D01*
X001467Y010366D01*
X000877Y011547D02*
X000640Y011783D01*
X004892Y016705D02*
X004774Y016823D01*
X006467Y015327D02*
X006467Y015248D01*
X006310Y015090D02*
X006310Y013870D01*
X008520Y008849D02*
X008520Y008628D01*
X009833Y007315D01*
X009833Y007074D01*
X009831Y007072D01*
X010831Y007072D02*
X010837Y007078D01*
X010837Y007315D01*
X009520Y008632D01*
X009520Y008849D01*
X010520Y008849D02*
X010520Y008616D01*
X011841Y007295D01*
X011841Y007082D01*
X011831Y007072D01*
X015325Y010642D02*
X015365Y010602D01*
X017373Y010602D01*
X017530Y010760D01*
X015522Y010760D01*
X015483Y010799D01*
X015483Y012768D01*
X015522Y012807D01*
X015522Y012728D01*
X015719Y012531D01*
X015719Y010996D01*
X015640Y010917D01*
X016270Y010917D01*
X016506Y011153D01*
X016506Y011783D01*
X015877Y012413D01*
X015877Y011153D01*
X015995Y011035D01*
X016113Y011035D01*
X016310Y011232D01*
X016310Y011783D01*
X016034Y012059D01*
X016034Y011311D01*
X016113Y011232D01*
X016113Y011429D01*
X016152Y011468D01*
X016152Y011744D01*
X017609Y011744D01*
X017648Y011783D01*
X017648Y011823D01*
X017884Y011586D01*
X017884Y011705D01*
X016900Y012689D01*
X016900Y014539D01*
X016743Y014382D01*
X016743Y013201D01*
X016703Y013161D01*
X016703Y012886D01*
X016506Y013083D01*
X016506Y013358D01*
X016546Y013397D01*
X016546Y013791D01*
X016310Y013555D01*
X016310Y013437D01*
X016388Y013358D01*
X016388Y013279D01*
X016152Y013870D02*
X016152Y013949D01*
X015711Y014390D01*
X015325Y014342D02*
X015325Y013240D01*
X015325Y013201D01*
X015325Y013122D01*
X015325Y010642D01*
X014518Y011847D02*
X014520Y011849D01*
X014518Y011851D01*
X014518Y012216D01*
X013592Y013142D01*
X013592Y013648D01*
X014538Y015130D02*
X015325Y014342D01*
X014538Y015130D02*
X014538Y015209D01*
X015325Y013201D02*
X015640Y012886D01*
X015640Y012846D01*
X015877Y012610D01*
X015837Y012610D01*
X015325Y013122D01*
X017884Y011586D02*
X017884Y010957D01*
X014551Y017712D02*
X014541Y017712D01*
X014551Y017712D02*
X015794Y018956D01*
X016514Y018956D01*
X016538Y018932D01*
X016538Y018802D01*
X016408Y018672D01*
X016408Y018682D01*
X016605Y018879D01*
X016605Y018831D01*
X016605Y018572D01*
X016548Y018514D01*
X015880Y018514D01*
X015823Y018514D01*
X015554Y018245D01*
X006703Y019972D02*
X006664Y020012D01*
X006664Y020218D01*
X006664Y020012D02*
X006231Y020012D01*
X010797Y002270D02*
X010736Y002209D01*
X010702Y002175D01*
X010702Y001041D01*
X010709Y001034D01*
X010929Y000904D02*
X010974Y000904D01*
X011121Y001050D01*
X011152Y001050D01*
X011155Y001053D01*
X011155Y001073D01*
X011147Y001081D01*
X011147Y001124D01*
X011145Y001126D01*
X011145Y001147D01*
X011482Y000810D01*
X011505Y000738D02*
X011433Y000738D01*
X011121Y001050D01*
X011147Y001124D02*
X011147Y002167D01*
X011044Y002270D01*
X010797Y002270D01*
X010736Y002209D02*
X010736Y002209D01*
X010853Y001290D02*
X010953Y001290D01*
X011505Y000738D01*
X011145Y001147D02*
X011145Y001198D01*
X010853Y001290D02*
X010281Y000718D01*
X010209Y000718D01*
X013313Y000720D02*
X013340Y000720D01*
X013967Y001347D01*
X014030Y001347D01*
X014640Y000737D01*
X014640Y000717D02*
X013317Y000717D01*
X013313Y000720D01*
X013577Y000750D02*
X014403Y000750D01*
X014423Y000770D01*
X014380Y000770D01*
X014200Y000950D01*
X014200Y002157D01*
X014133Y002223D01*
X013860Y002223D01*
X013797Y002160D01*
X013797Y001973D01*
X013877Y001973D01*
X014003Y002100D01*
X014003Y002063D01*
X014043Y002023D01*
X014043Y001778D01*
X014043Y001690D01*
X014023Y001670D01*
X014023Y001334D01*
X014640Y000717D01*
X013787Y000960D02*
X013577Y000750D01*
X013787Y000960D02*
X013787Y001977D01*
D27*
X007884Y003831D02*
X007831Y003884D01*
X007831Y004072D01*
X007884Y003831D02*
X007806Y003752D01*
X007136Y003752D01*
X006703Y003594D02*
X006664Y003634D01*
X006664Y004421D01*
X006743Y004500D01*
X007451Y004500D01*
X007569Y004382D01*
X007884Y004382D01*
X007451Y004815D01*
X007058Y004815D01*
X005345Y002177D02*
X005345Y001626D01*
X005325Y001646D01*
X004853Y001646D01*
X016257Y010033D02*
X016441Y009849D01*
X017410Y009849D01*
X016453Y010702D02*
X016257Y010702D01*
X016453Y010702D02*
X016707Y010957D01*
X016954Y019618D02*
X015840Y019618D01*
X015821Y019637D01*
X015768Y019637D01*
X015707Y019698D01*
X015707Y019798D01*
X015776Y019868D01*
X015785Y019868D01*
X015715Y019886D02*
X015537Y020064D01*
X015537Y020500D01*
X015696Y020340D01*
X015793Y020340D01*
X015797Y020343D01*
X015797Y020702D01*
X016129Y020702D01*
X016360Y020472D01*
X016360Y020108D01*
X016557Y019911D01*
X016557Y020154D01*
X016585Y020183D01*
X016898Y020289D02*
X016898Y019949D01*
X016984Y019862D01*
X016984Y019648D01*
X016954Y019618D01*
X016368Y019839D02*
X016246Y019961D01*
X016115Y019961D01*
X015949Y019794D01*
X015949Y019740D01*
X016332Y019774D01*
X016368Y019839D02*
X016368Y020089D01*
X016024Y020433D01*
X016024Y020194D01*
X015715Y019886D01*
X015913Y019740D02*
X015949Y019740D01*
X015537Y020064D02*
X014841Y020760D01*
X014625Y020760D01*
X015712Y020702D02*
X015715Y020699D01*
X015712Y020702D02*
X015797Y020702D01*
X016428Y020760D02*
X016898Y020289D01*
X009770Y020294D02*
X009452Y019976D01*
X009618Y019976D01*
X009687Y019907D01*
X009687Y019744D01*
X009593Y019704D01*
X009161Y019920D02*
X007993Y019920D01*
X007986Y019927D01*
X008926Y019927D01*
X009217Y020218D01*
X009493Y020218D01*
X009770Y020494D01*
X009770Y020294D01*
X009514Y020494D02*
X005724Y020494D01*
X005268Y020038D01*
X005676Y020038D01*
X005856Y020218D01*
X006664Y020218D01*
X006803Y020218D01*
X007004Y020017D01*
X007004Y020128D01*
X007142Y020266D01*
X007142Y020135D01*
X007260Y020017D01*
X007260Y020045D01*
X007412Y020197D01*
X007412Y020100D01*
X007564Y019948D01*
X007564Y020100D01*
X007668Y020204D01*
X007668Y020059D01*
X007764Y019962D01*
X007764Y020031D01*
X007889Y020155D01*
X008926Y020155D01*
X009161Y019920D01*
X009514Y020494D02*
X009472Y020536D01*
X005344Y020536D01*
X004798Y019989D01*
X004341Y019989D01*
X002018Y017666D01*
X002018Y017492D01*
X004341Y019989D02*
X005158Y020806D01*
X009717Y020806D01*
X009717Y020742D01*
X009538Y020563D01*
D28*
X007766Y018712D02*
X007018Y018712D01*
X007018Y018680D01*
X007042Y018656D01*
X007018Y018712D02*
X006979Y018673D01*
X007215Y018673D01*
X008278Y017610D01*
X008593Y017886D02*
X007766Y018712D01*
X008593Y017886D02*
X008593Y016823D01*
X002254Y009657D02*
X000758Y011153D01*
X000601Y011153D01*
X000877Y010366D02*
X001664Y009579D01*
X002254Y009657D02*
X002254Y003988D01*
X002254Y003319D01*
X001270Y004500D02*
X001270Y004736D01*
X001270Y004500D02*
X000849Y004500D01*
X007869Y001807D02*
X007898Y000943D01*
X010916Y000878D02*
X010916Y001794D01*
X014026Y001751D02*
X014026Y000878D01*
X014831Y004072D02*
X016965Y004072D01*
X017188Y004295D01*
X016880Y004295D01*
X016766Y004181D01*
X016766Y004223D01*
X018278Y004654D02*
X018142Y006868D01*
X018191Y006681D02*
X018254Y006681D01*
X018266Y006693D01*
X018121Y007571D02*
X018121Y007689D01*
X018554Y008122D01*
X018554Y008988D01*
X018593Y009027D01*
X018593Y008949D01*
X018239Y008594D01*
X018160Y008476D02*
X018160Y007610D01*
X018121Y007571D01*
X018239Y007649D02*
X018239Y008397D01*
X018160Y008476D01*
X017144Y006865D02*
X017144Y006468D01*
X018278Y004752D02*
X018278Y004654D01*
X015592Y016648D02*
X015592Y016932D01*
X015601Y016941D01*
X015601Y016823D01*
X015719Y016705D01*
X018491Y018299D02*
X018886Y017903D01*
X018965Y017903D01*
X019006Y017945D01*
X018916Y017874D02*
X018886Y017903D01*
D29*
X019006Y017649D02*
X019006Y017571D01*
X018711Y017571D01*
X018554Y018043D02*
X019262Y017334D01*
X019262Y010051D01*
X017845Y008634D01*
X017845Y002886D01*
X017373Y002413D01*
X017097Y002413D01*
X016940Y002256D01*
X017018Y002334D02*
X017924Y003240D01*
X017924Y003083D01*
X017294Y002453D01*
X017294Y002531D01*
X017766Y003004D01*
X018239Y003004D01*
X018829Y003594D01*
X018829Y003870D01*
X018081Y004618D01*
X018081Y007177D01*
X017884Y007374D01*
X017963Y007374D01*
X018239Y007649D01*
X018987Y007649D02*
X018987Y007334D01*
X018987Y007649D02*
X019380Y008043D01*
X019380Y002964D01*
X018514Y002098D01*
X018632Y002531D02*
X019223Y002531D01*
X019420Y002728D01*
X019420Y018712D01*
X017058Y021075D01*
X016979Y021153D01*
X003199Y021153D01*
X003121Y021075D01*
X000247Y018201D01*
X000247Y018083D01*
X000247Y018043D01*
X003711Y018043D01*
X006270Y020602D01*
X014577Y020602D01*
X014814Y020366D01*
X015680Y019500D01*
X017727Y019500D01*
X018711Y018516D01*
X018711Y019067D01*
X016821Y020957D01*
X016861Y020957D01*
X017136Y020681D01*
X015286Y020681D01*
X014932Y020327D01*
X014774Y020484D01*
X016900Y020484D01*
X019066Y018319D01*
X018436Y018319D01*
X016940Y016823D01*
X016940Y016508D01*
X016861Y016429D01*
X016703Y016429D01*
X016664Y016468D01*
X016703Y016468D01*
X016782Y016547D01*
X016861Y016547D01*
X016861Y016665D01*
X016821Y016626D01*
X016821Y017177D01*
X016585Y017413D01*
X015758Y017413D01*
X015483Y017138D01*
X016191Y017138D01*
X016231Y017098D01*
X016231Y017138D01*
X016428Y017334D01*
X015758Y017334D01*
X015719Y017295D01*
X015719Y017256D01*
X015680Y017216D01*
X016191Y017216D01*
X016231Y017256D01*
X015995Y017256D01*
X015365Y016626D01*
X015365Y016350D01*
X015798Y015917D01*
X015916Y015917D01*
X015443Y016390D01*
X015443Y016271D01*
X015837Y015878D01*
X016152Y015878D01*
X016310Y015720D01*
X016310Y016508D01*
X017845Y018043D01*
X018554Y018043D01*
X019066Y018673D02*
X019066Y018712D01*
X018514Y019264D01*
X018475Y019264D01*
X016821Y020917D01*
X003436Y020917D01*
X003278Y021075D01*
X003239Y021075D01*
X003121Y021075D01*
X003239Y021075D02*
X000247Y018083D01*
X000247Y018043D02*
X000247Y003240D01*
X000522Y002964D01*
X000522Y017728D01*
X000325Y017925D01*
X003396Y020996D01*
X003278Y020996D01*
X000286Y018004D01*
X002766Y018004D01*
X005522Y020760D01*
X016310Y020760D01*
X016546Y020996D01*
X017018Y020996D01*
X019341Y018673D01*
X019341Y018555D01*
X016940Y020957D01*
X016861Y020957D01*
X016821Y020957D02*
X016782Y020957D01*
X016703Y020878D01*
X016664Y020878D01*
X016625Y020917D01*
X016703Y020917D01*
X019262Y018358D01*
X019262Y018516D01*
X019223Y018516D01*
X019066Y018673D01*
X019341Y018555D02*
X019341Y018240D01*
X016861Y020878D02*
X017058Y021075D01*
X003278Y021075D01*
X005758Y018240D02*
X005798Y018240D01*
X005877Y018319D01*
X005837Y018201D02*
X005837Y018122D01*
X010286Y019933D02*
X010305Y019933D01*
X010286Y019933D02*
X010286Y020051D01*
X010325Y020090D01*
X010719Y020090D01*
X010877Y019933D01*
X010877Y019972D01*
X010877Y020051D01*
X010837Y020090D01*
X010758Y020090D01*
X010877Y019972D01*
X010877Y019933D02*
X010877Y018949D01*
X010443Y018516D01*
X010404Y018516D01*
X013472Y018513D02*
X013509Y018476D01*
X013509Y018472D01*
X014814Y020366D02*
X014814Y020523D01*
X015680Y019657D01*
X015680Y019500D01*
X015877Y018715D02*
X015877Y018518D01*
X015880Y018514D01*
X016861Y020878D02*
X013357Y020878D01*
X015916Y015917D02*
X016113Y015917D01*
X017878Y004549D02*
X017878Y002804D01*
X017970Y002711D01*
X017970Y004483D01*
X017985Y004498D01*
X017893Y004549D02*
X017878Y004549D01*
X018584Y003114D02*
X018584Y002982D01*
X017928Y002326D01*
X017920Y002326D01*
X017908Y002314D01*
X018632Y002531D02*
X016664Y000563D01*
X010837Y000563D01*
X011113Y000838D01*
X011113Y002334D01*
X011231Y002216D01*
X011231Y001193D01*
X011900Y000523D01*
X013475Y000523D01*
X013947Y000996D01*
X014341Y000996D01*
X014341Y002177D01*
X014302Y002216D01*
X014223Y002295D01*
X014302Y002216D02*
X014302Y001193D01*
X014774Y000720D01*
X016821Y000720D01*
X016979Y000878D01*
X016979Y001783D01*
X016940Y001744D01*
X016940Y001311D01*
X016940Y001271D01*
X016900Y001271D01*
X016625Y000996D01*
X016625Y000838D01*
X016940Y001153D01*
X016940Y001271D01*
X016900Y001271D02*
X016940Y001311D01*
X016625Y000996D02*
X015955Y000327D01*
X003357Y000327D01*
X003317Y000287D02*
X003278Y000248D01*
X016940Y000248D01*
X019223Y002531D01*
X019341Y002728D02*
X016940Y000327D01*
X015955Y000327D01*
X019341Y002728D02*
X019420Y002728D01*
X003278Y000248D02*
X003239Y000248D01*
X003199Y000287D01*
X003003Y000484D01*
X003042Y000484D01*
X003239Y000287D01*
X003199Y000287D01*
X003081Y000484D02*
X003042Y000484D01*
M02*
