G75*
G70*
%OFA0B0*%
%FSLAX24Y24*%
%IPPOS*%
%LPD*%
%AMOC8*
5,1,8,0,0,1.08239X$1,22.5*
%
%ADD10C,0.0160*%
%ADD11C,0.0000*%
%ADD12C,0.0600*%
%ADD13C,0.0560*%
%ADD14OC8,0.0560*%
%ADD15C,0.0860*%
%ADD16C,0.0520*%
%ADD17R,0.0787X0.0787*%
%ADD18R,0.0394X0.0433*%
%ADD19C,0.0660*%
%ADD20C,0.0700*%
%ADD21C,0.0100*%
%ADD22C,0.1000*%
%ADD23C,0.0760*%
%ADD24C,0.0320*%
%ADD25C,0.0500*%
%ADD26C,0.0240*%
%ADD27C,0.0400*%
%ADD28C,0.0560*%
%ADD29C,0.0120*%
D10*
X000247Y000184D02*
X000247Y021273D01*
X020095Y021273D01*
X020095Y000184D01*
X000247Y000184D01*
X003181Y000405D02*
X000346Y003240D01*
X000346Y004579D01*
X000386Y004618D01*
X000386Y004264D01*
X000780Y003870D01*
X000780Y003752D01*
X000661Y003634D01*
X003181Y000405D02*
X004835Y000405D01*
X005740Y000720D02*
X007453Y000720D01*
X007706Y000467D01*
X008255Y000467D01*
X008289Y000502D01*
X008037Y000502D01*
X007979Y000560D01*
X010679Y000560D01*
X010767Y000471D01*
X011234Y000471D01*
X011251Y000488D01*
X013860Y000488D01*
X013877Y000470D01*
X014328Y000470D01*
X014345Y000487D01*
X017123Y000487D01*
X018439Y001803D01*
X019424Y002850D01*
X019424Y003010D01*
X018636Y002242D01*
X018444Y001946D01*
X018444Y002058D01*
X018196Y001766D01*
X018496Y002186D01*
X018024Y001542D01*
X017516Y001034D01*
X017516Y001174D01*
X018036Y001694D01*
X018036Y001706D01*
X018144Y001814D01*
X018164Y001814D01*
X017645Y002334D01*
X017147Y002334D01*
X017075Y002262D01*
X017075Y001532D01*
X017195Y001652D01*
X017195Y002219D01*
X017325Y002089D01*
X017325Y002003D01*
X017387Y001940D01*
X017464Y001940D01*
X017377Y002027D01*
X017377Y002075D01*
X017349Y002103D01*
X017349Y002219D01*
X017392Y002175D01*
X017497Y002175D01*
X017512Y002161D01*
X017512Y002022D01*
X017531Y002003D01*
X017584Y002003D01*
X017680Y002099D01*
X017680Y002142D01*
X017613Y002209D01*
X017584Y002209D01*
X017589Y002214D01*
X017589Y001427D01*
X017037Y001427D01*
X017037Y001020D01*
X016783Y000767D01*
X016917Y000767D01*
X017100Y000950D01*
X017100Y001332D01*
X017016Y001416D01*
X017016Y002221D01*
X017071Y002277D01*
X017604Y002277D01*
X017651Y002323D01*
X017635Y002339D01*
X017453Y002339D01*
X018130Y003016D01*
X018130Y004465D01*
X018000Y004594D01*
X018212Y004608D02*
X018212Y004311D01*
X018259Y004263D01*
X018259Y002713D01*
X018269Y002703D01*
X018269Y002617D01*
X018130Y002478D01*
X018130Y003016D01*
X017589Y002252D02*
X017589Y002214D01*
X017516Y001034D02*
X017492Y001010D01*
X012591Y011839D02*
X012580Y011849D01*
X007821Y017844D02*
X007701Y017964D01*
X007701Y018214D01*
X007671Y018244D01*
X007671Y018754D01*
X007631Y018794D01*
X007567Y018794D01*
X007624Y018737D01*
X007624Y018208D01*
X007531Y018301D01*
X007037Y018301D01*
X006954Y018384D01*
X006954Y018757D01*
X006987Y018791D01*
X007031Y018791D01*
X007071Y018751D01*
X007071Y018384D01*
X007067Y018381D01*
X006824Y018381D01*
X006717Y018488D01*
X006717Y018837D01*
X006774Y018894D01*
X006957Y018894D01*
X006924Y018897D02*
X007697Y018897D01*
X007821Y018774D01*
X007821Y017844D01*
X007315Y018122D02*
X007214Y018021D01*
X007214Y018011D01*
X007187Y018038D01*
X007167Y018038D01*
X006831Y018374D01*
X006831Y018804D01*
X006924Y018897D01*
X005598Y020790D02*
X004789Y020790D01*
X004758Y020914D02*
X005723Y020914D01*
X005598Y020790D01*
X004758Y020914D02*
X000352Y016508D01*
X000352Y016328D01*
X000350Y016327D01*
X000350Y016068D01*
X000374Y016045D01*
X010365Y018780D02*
X010365Y019933D01*
X010365Y019962D01*
X010453Y020050D01*
X010741Y020050D01*
X010621Y019930D01*
X010481Y019930D01*
X010481Y019850D01*
X010721Y019850D01*
X010797Y019926D01*
X010797Y019966D01*
X010802Y019962D01*
X010802Y018851D01*
X010579Y018629D01*
X010579Y018626D01*
X010704Y018751D01*
X010704Y019744D01*
X010694Y019734D01*
X010541Y019734D01*
X010541Y019622D01*
X010653Y019704D01*
X010365Y018780D02*
X010367Y018777D01*
X013166Y018611D02*
X013304Y018472D01*
X013569Y018472D01*
X013610Y018513D01*
X013610Y019947D01*
X013638Y019919D01*
X013794Y019919D01*
X013840Y019873D01*
X013875Y019873D01*
X013823Y019924D01*
X013823Y019994D01*
X013817Y019988D01*
X013610Y019988D01*
X013638Y020017D01*
X013696Y020017D01*
X013782Y019930D01*
X013782Y019913D01*
X013794Y019924D01*
X013794Y020011D01*
X013957Y020037D02*
X013521Y020037D01*
X013521Y020036D01*
X013496Y020012D01*
X013496Y019894D01*
X013489Y020005D02*
X013489Y018807D01*
X013293Y018611D01*
X013166Y018611D01*
X013712Y018463D02*
X013984Y018735D01*
X013984Y020009D01*
X013957Y020037D01*
X014047Y020090D02*
X013535Y020090D01*
X013496Y020051D01*
X013496Y020012D01*
X013489Y020005D02*
X013521Y020037D01*
X014047Y020090D02*
X014087Y020051D01*
X014087Y018831D01*
X013772Y018516D01*
X006961Y004657D02*
X006921Y004657D01*
X006370Y004106D01*
X005110Y002846D01*
X005268Y002846D01*
X006567Y004146D01*
X006567Y003949D01*
X005622Y003004D01*
D11*
X000543Y001114D02*
X000545Y001164D01*
X000551Y001214D01*
X000561Y001263D01*
X000575Y001311D01*
X000592Y001358D01*
X000613Y001403D01*
X000638Y001447D01*
X000666Y001488D01*
X000698Y001527D01*
X000732Y001564D01*
X000769Y001598D01*
X000809Y001628D01*
X000851Y001655D01*
X000895Y001679D01*
X000941Y001700D01*
X000988Y001716D01*
X001036Y001729D01*
X001086Y001738D01*
X001135Y001743D01*
X001186Y001744D01*
X001236Y001741D01*
X001285Y001734D01*
X001334Y001723D01*
X001382Y001708D01*
X001428Y001690D01*
X001473Y001668D01*
X001516Y001642D01*
X001557Y001613D01*
X001596Y001581D01*
X001632Y001546D01*
X001664Y001508D01*
X001694Y001468D01*
X001721Y001425D01*
X001744Y001381D01*
X001763Y001335D01*
X001779Y001287D01*
X001791Y001238D01*
X001799Y001189D01*
X001803Y001139D01*
X001803Y001089D01*
X001799Y001039D01*
X001791Y000990D01*
X001779Y000941D01*
X001763Y000893D01*
X001744Y000847D01*
X001721Y000803D01*
X001694Y000760D01*
X001664Y000720D01*
X001632Y000682D01*
X001596Y000647D01*
X001557Y000615D01*
X001516Y000586D01*
X001473Y000560D01*
X001428Y000538D01*
X001382Y000520D01*
X001334Y000505D01*
X001285Y000494D01*
X001236Y000487D01*
X001186Y000484D01*
X001135Y000485D01*
X001086Y000490D01*
X001036Y000499D01*
X000988Y000512D01*
X000941Y000528D01*
X000895Y000549D01*
X000851Y000573D01*
X000809Y000600D01*
X000769Y000630D01*
X000732Y000664D01*
X000698Y000701D01*
X000666Y000740D01*
X000638Y000781D01*
X000613Y000825D01*
X000592Y000870D01*
X000575Y000917D01*
X000561Y000965D01*
X000551Y001014D01*
X000545Y001064D01*
X000543Y001114D01*
X000513Y020402D02*
X000515Y020452D01*
X000521Y020502D01*
X000531Y020551D01*
X000545Y020599D01*
X000562Y020646D01*
X000583Y020691D01*
X000608Y020735D01*
X000636Y020776D01*
X000668Y020815D01*
X000702Y020852D01*
X000739Y020886D01*
X000779Y020916D01*
X000821Y020943D01*
X000865Y020967D01*
X000911Y020988D01*
X000958Y021004D01*
X001006Y021017D01*
X001056Y021026D01*
X001105Y021031D01*
X001156Y021032D01*
X001206Y021029D01*
X001255Y021022D01*
X001304Y021011D01*
X001352Y020996D01*
X001398Y020978D01*
X001443Y020956D01*
X001486Y020930D01*
X001527Y020901D01*
X001566Y020869D01*
X001602Y020834D01*
X001634Y020796D01*
X001664Y020756D01*
X001691Y020713D01*
X001714Y020669D01*
X001733Y020623D01*
X001749Y020575D01*
X001761Y020526D01*
X001769Y020477D01*
X001773Y020427D01*
X001773Y020377D01*
X001769Y020327D01*
X001761Y020278D01*
X001749Y020229D01*
X001733Y020181D01*
X001714Y020135D01*
X001691Y020091D01*
X001664Y020048D01*
X001634Y020008D01*
X001602Y019970D01*
X001566Y019935D01*
X001527Y019903D01*
X001486Y019874D01*
X001443Y019848D01*
X001398Y019826D01*
X001352Y019808D01*
X001304Y019793D01*
X001255Y019782D01*
X001206Y019775D01*
X001156Y019772D01*
X001105Y019773D01*
X001056Y019778D01*
X001006Y019787D01*
X000958Y019800D01*
X000911Y019816D01*
X000865Y019837D01*
X000821Y019861D01*
X000779Y019888D01*
X000739Y019918D01*
X000702Y019952D01*
X000668Y019989D01*
X000636Y020028D01*
X000608Y020069D01*
X000583Y020113D01*
X000562Y020158D01*
X000545Y020205D01*
X000531Y020253D01*
X000521Y020302D01*
X000515Y020352D01*
X000513Y020402D01*
X018485Y020353D02*
X018487Y020403D01*
X018493Y020453D01*
X018503Y020502D01*
X018517Y020550D01*
X018534Y020597D01*
X018555Y020642D01*
X018580Y020686D01*
X018608Y020727D01*
X018640Y020766D01*
X018674Y020803D01*
X018711Y020837D01*
X018751Y020867D01*
X018793Y020894D01*
X018837Y020918D01*
X018883Y020939D01*
X018930Y020955D01*
X018978Y020968D01*
X019028Y020977D01*
X019077Y020982D01*
X019128Y020983D01*
X019178Y020980D01*
X019227Y020973D01*
X019276Y020962D01*
X019324Y020947D01*
X019370Y020929D01*
X019415Y020907D01*
X019458Y020881D01*
X019499Y020852D01*
X019538Y020820D01*
X019574Y020785D01*
X019606Y020747D01*
X019636Y020707D01*
X019663Y020664D01*
X019686Y020620D01*
X019705Y020574D01*
X019721Y020526D01*
X019733Y020477D01*
X019741Y020428D01*
X019745Y020378D01*
X019745Y020328D01*
X019741Y020278D01*
X019733Y020229D01*
X019721Y020180D01*
X019705Y020132D01*
X019686Y020086D01*
X019663Y020042D01*
X019636Y019999D01*
X019606Y019959D01*
X019574Y019921D01*
X019538Y019886D01*
X019499Y019854D01*
X019458Y019825D01*
X019415Y019799D01*
X019370Y019777D01*
X019324Y019759D01*
X019276Y019744D01*
X019227Y019733D01*
X019178Y019726D01*
X019128Y019723D01*
X019077Y019724D01*
X019028Y019729D01*
X018978Y019738D01*
X018930Y019751D01*
X018883Y019767D01*
X018837Y019788D01*
X018793Y019812D01*
X018751Y019839D01*
X018711Y019869D01*
X018674Y019903D01*
X018640Y019940D01*
X018608Y019979D01*
X018580Y020020D01*
X018555Y020064D01*
X018534Y020109D01*
X018517Y020156D01*
X018503Y020204D01*
X018493Y020253D01*
X018487Y020303D01*
X018485Y020353D01*
X018496Y001114D02*
X018498Y001164D01*
X018504Y001214D01*
X018514Y001263D01*
X018528Y001311D01*
X018545Y001358D01*
X018566Y001403D01*
X018591Y001447D01*
X018619Y001488D01*
X018651Y001527D01*
X018685Y001564D01*
X018722Y001598D01*
X018762Y001628D01*
X018804Y001655D01*
X018848Y001679D01*
X018894Y001700D01*
X018941Y001716D01*
X018989Y001729D01*
X019039Y001738D01*
X019088Y001743D01*
X019139Y001744D01*
X019189Y001741D01*
X019238Y001734D01*
X019287Y001723D01*
X019335Y001708D01*
X019381Y001690D01*
X019426Y001668D01*
X019469Y001642D01*
X019510Y001613D01*
X019549Y001581D01*
X019585Y001546D01*
X019617Y001508D01*
X019647Y001468D01*
X019674Y001425D01*
X019697Y001381D01*
X019716Y001335D01*
X019732Y001287D01*
X019744Y001238D01*
X019752Y001189D01*
X019756Y001139D01*
X019756Y001089D01*
X019752Y001039D01*
X019744Y000990D01*
X019732Y000941D01*
X019716Y000893D01*
X019697Y000847D01*
X019674Y000803D01*
X019647Y000760D01*
X019617Y000720D01*
X019585Y000682D01*
X019549Y000647D01*
X019510Y000615D01*
X019469Y000586D01*
X019426Y000560D01*
X019381Y000538D01*
X019335Y000520D01*
X019287Y000505D01*
X019238Y000494D01*
X019189Y000487D01*
X019139Y000484D01*
X019088Y000485D01*
X019039Y000490D01*
X018989Y000499D01*
X018941Y000512D01*
X018894Y000528D01*
X018848Y000549D01*
X018804Y000573D01*
X018762Y000600D01*
X018722Y000630D01*
X018685Y000664D01*
X018651Y000701D01*
X018619Y000740D01*
X018591Y000781D01*
X018566Y000825D01*
X018545Y000870D01*
X018528Y000917D01*
X018514Y000965D01*
X018504Y001014D01*
X018498Y001064D01*
X018496Y001114D01*
D12*
X017307Y001553D02*
X017307Y002153D01*
X016307Y002153D02*
X016307Y001553D01*
X014104Y001511D02*
X014104Y002111D01*
X013104Y002111D02*
X013104Y001511D01*
X011011Y001507D02*
X011011Y002107D01*
X010011Y002107D02*
X010011Y001507D01*
X007930Y001507D02*
X007930Y002107D01*
X006930Y002107D02*
X006930Y001507D01*
X017212Y004308D02*
X017212Y004908D01*
X018212Y004908D02*
X018212Y004308D01*
X018202Y006568D02*
X018202Y007168D01*
X017202Y007168D02*
X017202Y006568D01*
X017170Y009849D02*
X017770Y009849D01*
X017770Y010849D02*
X017170Y010849D01*
X017977Y013493D02*
X017977Y014093D01*
X018977Y014093D02*
X018977Y013493D01*
X018975Y015947D02*
X018975Y016547D01*
X017975Y016547D02*
X017975Y015947D01*
X016692Y018774D02*
X016092Y018774D01*
X016092Y019774D02*
X016692Y019774D01*
X013780Y020004D02*
X013780Y019404D01*
X012780Y019404D02*
X012780Y020004D01*
X010653Y020004D02*
X010653Y019404D01*
X009653Y019404D02*
X009653Y020004D01*
X007403Y019656D02*
X006803Y019656D01*
X006803Y018656D02*
X007403Y018656D01*
D13*
X004956Y004155D03*
D14*
X004956Y005155D03*
X004956Y006155D03*
X004956Y007155D03*
X004956Y008155D03*
X004956Y009155D03*
X004956Y010155D03*
X003956Y010155D03*
X003956Y009155D03*
X003956Y008155D03*
X003956Y007155D03*
X003956Y006155D03*
X003956Y005155D03*
X003956Y004155D03*
D15*
X002764Y002653D02*
X002756Y002653D01*
X000909Y004500D01*
X002764Y002653D02*
X003250Y002167D01*
X003350Y002067D01*
X004077Y001340D01*
X004248Y001169D01*
X007242Y004072D02*
X007242Y004140D01*
X006961Y004421D01*
X006961Y004657D01*
X006961Y004678D01*
X006935Y004704D01*
X006935Y006279D02*
X006921Y006292D01*
X006921Y006744D01*
X007250Y007072D01*
X007892Y007072D01*
X005858Y011647D02*
X007512Y013301D01*
X007512Y014657D01*
X007965Y015110D01*
X008181Y015110D01*
X015008Y015110D01*
X015504Y014614D01*
X016528Y014614D01*
X015831Y013649D02*
X015831Y013268D01*
X016350Y012748D01*
X019067Y017409D02*
X019067Y007768D01*
X018919Y007620D01*
X018295Y006996D01*
X018295Y006886D01*
X018307Y006874D01*
X018327Y006693D02*
X018327Y004764D01*
X018339Y004752D01*
X019067Y017409D02*
X019067Y017649D01*
X019067Y017945D01*
X017591Y019421D01*
X017307Y019705D01*
X004376Y015452D02*
X003516Y015452D01*
X002057Y014701D02*
X002057Y013841D01*
X003516Y013090D02*
X004376Y013090D01*
D16*
X008653Y013388D02*
X008653Y013908D01*
X009653Y013908D02*
X009653Y013388D01*
X010653Y013388D02*
X010653Y013908D01*
X011653Y013908D02*
X011653Y013388D01*
X012653Y013388D02*
X012653Y013908D01*
X013653Y013908D02*
X013653Y013388D01*
X014653Y013388D02*
X014653Y013908D01*
X015653Y013908D02*
X015653Y013388D01*
X014580Y012109D02*
X014580Y011589D01*
X013580Y011589D02*
X013580Y012109D01*
X012580Y012109D02*
X012580Y011589D01*
X011580Y011589D02*
X011580Y012109D01*
X010580Y012109D02*
X010580Y011589D01*
X009580Y011589D02*
X009580Y012109D01*
X008580Y012109D02*
X008580Y011589D01*
X008580Y009109D02*
X008580Y008589D01*
X009580Y008589D02*
X009580Y009109D01*
X010580Y009109D02*
X010580Y008589D01*
X011580Y008589D02*
X011580Y009109D01*
X012580Y009109D02*
X012580Y008589D01*
X013580Y008589D02*
X013580Y009109D01*
X014580Y009109D02*
X014580Y008589D01*
X014892Y007332D02*
X014892Y006812D01*
X013892Y006812D02*
X013892Y007332D01*
X012892Y007332D02*
X012892Y006812D01*
X011892Y006812D02*
X011892Y007332D01*
X010892Y007332D02*
X010892Y006812D01*
X009892Y006812D02*
X009892Y007332D01*
X008892Y007332D02*
X008892Y006812D01*
X007892Y006812D02*
X007892Y007332D01*
X007892Y004332D02*
X007892Y003812D01*
X008892Y003812D02*
X008892Y004332D01*
X009892Y004332D02*
X009892Y003812D01*
X010892Y003812D02*
X010892Y004332D01*
X011892Y004332D02*
X011892Y003812D01*
X012892Y003812D02*
X012892Y004332D01*
X013892Y004332D02*
X013892Y003812D01*
X014892Y003812D02*
X014892Y004332D01*
X014653Y016388D02*
X014653Y016908D01*
X015653Y016908D02*
X015653Y016388D01*
X013653Y016388D02*
X013653Y016908D01*
X012653Y016908D02*
X012653Y016388D01*
X011653Y016388D02*
X011653Y016908D01*
X010653Y016908D02*
X010653Y016388D01*
X009653Y016388D02*
X009653Y016908D01*
X008653Y016908D02*
X008653Y016388D01*
D17*
X016690Y016056D03*
X016690Y014481D03*
X006935Y006279D03*
X006935Y004704D03*
D18*
X016318Y010033D03*
X016318Y010702D03*
D19*
X017470Y010849D02*
X017470Y011628D01*
X016350Y012748D01*
X015780Y014067D02*
X016143Y014430D01*
X016690Y014481D01*
X018975Y013795D02*
X018977Y013793D01*
X018975Y013795D02*
X018975Y016247D01*
X018975Y017285D01*
X018975Y017318D01*
X019067Y017409D01*
X019126Y007649D02*
X018929Y007453D01*
X018929Y003122D01*
X019087Y003122D02*
X019087Y003240D01*
X019126Y003279D01*
X019126Y007649D01*
X019047Y007334D02*
X018654Y006941D01*
X018654Y005012D01*
X018654Y002689D01*
X019087Y003122D01*
X018212Y004608D02*
X018200Y006733D01*
X018252Y006681D01*
X008580Y011849D02*
X008526Y011795D01*
X003956Y010155D02*
X003956Y009155D01*
X003956Y008155D01*
X003956Y007155D01*
X003956Y006155D01*
X003956Y005155D01*
X003956Y004155D01*
X005004Y017885D02*
X005392Y017885D01*
X004616Y018662D01*
X003619Y018662D01*
X004221Y019263D01*
X004221Y019346D01*
X004297Y019270D01*
X004892Y019270D01*
X004919Y019242D01*
X004919Y018959D01*
X005679Y019719D01*
X006175Y019719D01*
X005445Y018988D01*
X005223Y018483D02*
X004755Y018015D01*
X002764Y018015D01*
X003073Y018324D01*
X004566Y018324D01*
X005004Y017885D01*
D20*
X005189Y017492D02*
X002079Y017492D01*
X000622Y016035D01*
X000622Y011390D01*
X000622Y011193D01*
X000622Y009618D01*
X000858Y009854D01*
X000858Y009933D01*
X000858Y010563D01*
X000661Y011153D02*
X000622Y011193D01*
X000858Y009933D02*
X001173Y009618D01*
X001173Y009500D01*
X001094Y009579D01*
X000622Y009579D01*
X000622Y004697D01*
X000760Y004559D01*
X002665Y002653D01*
X002756Y002653D01*
X003250Y002167D02*
X003772Y001646D01*
X004913Y001646D01*
X006055Y002886D02*
X006764Y003594D01*
X007242Y004072D01*
X007892Y004072D01*
X001921Y004146D02*
X001921Y005720D01*
X001724Y005917D01*
X001724Y009106D01*
X001921Y009303D01*
X001724Y009539D02*
X001331Y009146D01*
X001331Y004736D01*
X001921Y004146D01*
X001724Y009539D02*
X001724Y009579D01*
X004255Y019668D02*
X007103Y019656D01*
X015653Y013648D02*
X015830Y013648D01*
X015831Y013649D01*
D21*
X016213Y013870D02*
X016213Y013397D01*
X017787Y011823D01*
X017787Y011075D01*
X016449Y012413D01*
X016173Y012413D01*
X017630Y010957D01*
X017578Y010957D01*
X017470Y010849D01*
X017630Y010957D02*
X017709Y010957D01*
X017787Y011035D01*
X017787Y010838D01*
X017669Y010720D01*
X017787Y011035D02*
X017787Y011075D01*
X015543Y013043D02*
X015543Y013122D01*
X015386Y013279D01*
X015386Y013909D01*
X015543Y014067D01*
X015583Y014106D01*
X015976Y014106D01*
X016213Y013870D01*
X015819Y014106D02*
X015622Y014106D01*
X015543Y014027D01*
X015543Y014067D01*
X015780Y014067D01*
X015819Y014106D01*
X015386Y013909D02*
X015346Y013870D01*
X015346Y013555D01*
X015346Y013240D01*
X015386Y013240D01*
X015346Y013240D02*
X015543Y013043D01*
X015346Y013555D02*
X015386Y013594D01*
X015386Y013712D01*
X018691Y017575D02*
X018767Y017575D01*
X018772Y017571D01*
X018691Y017575D02*
X018691Y017666D01*
X018476Y017881D01*
X018203Y017881D01*
X018161Y017922D01*
X018161Y018121D01*
X018222Y018182D01*
X018222Y017983D01*
X018249Y017955D01*
X018430Y017955D01*
X018432Y017952D01*
X018421Y017952D01*
X018291Y018082D01*
X018291Y017999D01*
X018289Y017996D01*
X018414Y017853D02*
X018691Y017575D01*
X018414Y017853D02*
X017956Y017853D01*
X017953Y017855D01*
X019467Y018109D02*
X019467Y002763D01*
X019467Y002761D01*
X019456Y002750D01*
X019456Y003139D01*
X019467Y002763D02*
X018933Y002229D01*
X018654Y002177D02*
X017157Y000681D01*
X005543Y000681D01*
X005346Y000878D01*
X005346Y002216D01*
X006961Y003831D01*
X006961Y004539D01*
X007354Y004933D01*
X007827Y004933D01*
X007748Y004854D01*
X007787Y004854D01*
X008063Y004579D01*
X008063Y004736D01*
X008024Y004775D01*
X007945Y004775D01*
X008024Y004697D01*
X008024Y004972D01*
X008181Y004815D01*
X008181Y004775D01*
X008102Y004854D01*
X008102Y004460D01*
X008181Y004382D01*
X008181Y004657D01*
X006764Y004657D01*
X006567Y004854D01*
X006528Y004815D01*
X006528Y004264D01*
X006370Y004106D01*
X006370Y003437D01*
X006055Y003122D01*
X003339Y003122D01*
X002039Y004421D01*
X002039Y009972D01*
X000622Y011390D01*
X000622Y016390D01*
X004953Y020720D01*
X013260Y020720D01*
X013417Y020563D01*
X013102Y020248D01*
X013102Y020563D01*
X013417Y020878D01*
X013466Y020660D02*
X013017Y020211D01*
X012982Y020211D01*
X013008Y020237D01*
X013008Y020461D01*
X012955Y020515D01*
X012131Y020515D01*
X012128Y020515D01*
X012094Y020549D01*
X012094Y020760D01*
X012131Y020515D02*
X012460Y020185D01*
X012460Y019244D01*
X012530Y019174D01*
X012957Y019174D01*
X012994Y019211D01*
X012994Y020197D01*
X012933Y020263D02*
X012933Y019975D01*
X012945Y019987D01*
X012945Y020043D01*
X012942Y020046D01*
X012942Y020065D01*
X013466Y020589D01*
X013466Y020660D01*
X013277Y020607D02*
X013176Y020506D01*
X012933Y020263D01*
X013176Y020506D02*
X012265Y020506D01*
X012457Y020314D01*
X012457Y020214D01*
X012181Y020490D01*
X012181Y020498D01*
X012261Y020418D01*
X012377Y020418D01*
X012509Y020286D01*
X012509Y020050D01*
X010313Y020574D02*
X010221Y020574D01*
X010041Y020394D01*
X010041Y020482D01*
X010061Y020502D01*
X010313Y020574D02*
X009933Y020194D01*
X009834Y020294D01*
X009830Y020294D01*
X009933Y020194D02*
X009893Y020154D01*
X009893Y020146D01*
X009893Y019826D01*
X009773Y020118D02*
X009805Y020150D01*
X009897Y020150D01*
X009893Y020146D01*
X006606Y017610D02*
X006606Y016626D01*
X006528Y016547D01*
X006528Y017610D01*
X005976Y018161D01*
X005976Y017649D01*
X006488Y017138D01*
X006488Y017531D01*
X006016Y018004D01*
X006016Y017886D01*
X006449Y017453D01*
X006449Y017334D01*
X006409Y017295D01*
X006409Y017413D01*
X006016Y017807D01*
X006016Y017689D01*
X006370Y017334D01*
X006606Y017610D02*
X005858Y018358D01*
X005858Y018437D01*
X004678Y020979D02*
X016596Y020979D01*
X019467Y018109D01*
X013594Y008863D02*
X013580Y008849D01*
X017102Y005091D02*
X016984Y004973D01*
X016984Y004700D01*
X016528Y004244D01*
X016403Y004244D01*
X016977Y004584D02*
X016977Y004588D01*
X017007Y004619D01*
X017164Y004619D01*
X017205Y004578D01*
X017212Y004585D01*
X017212Y004608D01*
X017205Y004578D02*
X017220Y004563D01*
X017409Y004563D01*
X017419Y004554D01*
X017419Y004644D01*
X017393Y004669D01*
X017393Y004767D01*
X017396Y004769D01*
X017396Y004801D01*
X017308Y004889D01*
X017266Y004889D01*
X017234Y004922D01*
X017194Y004922D01*
X017178Y004938D01*
X017178Y004915D01*
X017122Y004859D01*
X017122Y004748D01*
X017125Y004746D01*
X017125Y004683D01*
X017153Y004656D01*
X017321Y004656D01*
X017333Y004667D01*
X017333Y004697D01*
X017273Y004757D01*
X017273Y004799D01*
X017266Y004806D01*
X017196Y004806D01*
X017176Y004827D01*
X017196Y004848D01*
X017196Y004757D01*
X017185Y004746D01*
X017275Y004746D01*
X017319Y004790D01*
X017319Y004954D01*
X017358Y004993D01*
X017423Y004993D01*
X017426Y004991D01*
X017426Y004986D01*
X017423Y004984D01*
X017423Y004882D01*
X017277Y004737D01*
X017141Y004737D01*
X017106Y004771D01*
X017106Y004794D01*
X017104Y004797D01*
X017048Y004917D02*
X017048Y004663D01*
X017058Y004653D01*
X017058Y004575D01*
X017078Y004554D01*
X017007Y004554D01*
X016977Y004584D01*
X017048Y004917D02*
X017109Y004977D01*
X017109Y004989D01*
X017136Y005017D01*
X017294Y005017D01*
X017470Y004841D01*
X017470Y004278D01*
X017265Y004278D01*
X017248Y004295D01*
X017470Y004278D02*
X017479Y004288D01*
X017479Y005003D01*
X017458Y005024D01*
X017446Y005024D01*
X017379Y005091D01*
X017102Y005091D01*
X017953Y004549D02*
X017999Y004594D01*
X018000Y004594D01*
X018654Y005012D02*
X018299Y005366D01*
X018299Y008594D01*
X018919Y007649D02*
X018919Y007620D01*
X018919Y007649D02*
X019047Y007649D01*
X018654Y005012D02*
X018654Y002177D01*
X019456Y002750D02*
X017086Y000380D01*
X004459Y000380D01*
X004369Y000470D01*
X004369Y000581D01*
X004400Y000611D01*
X004400Y000615D01*
X004453Y000669D01*
X004431Y000380D02*
X000315Y004496D01*
X000315Y016616D01*
X004678Y020979D01*
X000612Y016045D02*
X000374Y016045D01*
X000612Y016045D02*
X000622Y016035D01*
X007276Y004972D02*
X008024Y004972D01*
X008024Y004933D02*
X007827Y004933D01*
X007866Y004854D02*
X007945Y004775D01*
X007984Y004815D02*
X007984Y004854D01*
X007945Y004894D01*
X007984Y004894D01*
X008024Y004854D01*
X008024Y004775D01*
X007984Y004815D01*
X008102Y004854D02*
X008024Y004933D01*
X008181Y004775D02*
X008181Y004657D01*
X008181Y004382D02*
X007354Y003555D01*
X007157Y003555D01*
X007197Y003594D01*
X008024Y003594D01*
X008181Y003752D01*
X008181Y004382D01*
X006858Y002470D02*
X006961Y002367D01*
X006858Y002470D02*
X006788Y002470D01*
X006786Y002472D01*
X006707Y002394D01*
X006707Y001414D01*
X007174Y001414D01*
X007221Y001460D01*
X007221Y002370D01*
X006788Y002454D02*
X006788Y002470D01*
X007730Y001245D02*
X007288Y000803D01*
X007388Y000803D01*
X007453Y000738D01*
X007288Y000803D02*
X007188Y000803D01*
X008221Y001242D02*
X008227Y001242D01*
X008710Y000759D01*
X008710Y000650D01*
X008719Y000642D01*
X009707Y001431D02*
X009885Y001253D01*
X010113Y001253D01*
X010260Y001400D01*
X010260Y002378D01*
X010279Y002397D01*
X010028Y002410D02*
X009899Y002539D01*
X009899Y002564D01*
X009707Y002372D01*
X009707Y001431D01*
X009899Y002564D02*
X009899Y002567D01*
X012730Y002367D02*
X012730Y001567D01*
X012824Y001474D01*
X012824Y002017D01*
X012780Y002060D01*
X012780Y001524D01*
X012874Y001430D01*
X012874Y001540D01*
X012890Y001557D01*
X012890Y001460D01*
X012947Y001404D01*
X013224Y001404D01*
X013297Y001477D01*
X013010Y001477D01*
X013007Y001474D01*
X012994Y001474D01*
X012964Y001504D01*
X013217Y001504D01*
X013260Y001547D01*
X013317Y001547D01*
X013320Y001550D01*
X013320Y002200D01*
X013324Y002197D01*
X013324Y002173D01*
X013098Y002173D01*
X013063Y002138D01*
X013324Y002173D02*
X013340Y002157D01*
X013340Y001517D01*
X013254Y001430D01*
X013320Y002200D02*
X013080Y002440D01*
X014087Y001761D02*
X014104Y001778D01*
X014087Y001761D02*
X014087Y001751D01*
X015967Y001634D02*
X016084Y001517D01*
X016428Y001517D01*
X016495Y001584D01*
X016495Y001581D02*
X016460Y001616D01*
X016460Y001732D01*
X016409Y001681D01*
X016398Y001681D01*
X016460Y001732D02*
X016478Y001750D01*
X016478Y002459D01*
X016367Y002570D01*
X016103Y002570D01*
X016096Y002570D01*
X016088Y002577D01*
X016103Y002570D02*
X015967Y002434D01*
X015967Y001634D01*
X016495Y001581D02*
X016495Y002450D01*
X016355Y002590D01*
X004996Y000411D02*
X004996Y000380D01*
X004431Y000380D01*
X003260Y002571D02*
X002630Y003201D01*
X002630Y003594D01*
X003024Y003201D01*
X003024Y003122D01*
X003063Y003122D01*
X003024Y003161D01*
X002866Y003161D01*
X002669Y003358D01*
X002669Y003437D01*
X002709Y003397D01*
X002748Y003397D01*
X002945Y003201D01*
X002906Y003201D01*
X002709Y003397D01*
X002354Y003319D02*
X002354Y003122D01*
X002354Y003319D02*
X002315Y003319D01*
X002315Y003988D02*
X003083Y003220D01*
X003260Y003043D01*
X003260Y002571D01*
X000760Y004559D02*
X000366Y004559D01*
X000346Y004579D01*
D22*
X003890Y010484D02*
X003890Y011075D01*
X004323Y011508D01*
X003890Y010484D02*
X002726Y011647D01*
X002039Y012334D01*
X002039Y014482D01*
X002057Y014500D01*
X002057Y014832D01*
X002669Y015445D01*
X003939Y015445D01*
X003946Y015452D01*
X002057Y014500D02*
X002057Y014271D01*
X003946Y013090D02*
X005039Y013090D01*
X005937Y013988D01*
X005937Y016952D01*
X005925Y016952D01*
X005504Y017374D01*
X005504Y019303D01*
X005268Y019067D01*
X005189Y019146D01*
X004992Y019146D01*
X005004Y017885D02*
X005937Y016952D01*
X005858Y011647D02*
X002726Y011647D01*
X005858Y011647D02*
X006230Y011647D01*
D23*
X006378Y011795D01*
X008526Y011795D01*
X006252Y011508D02*
X004323Y011508D01*
X003350Y002067D02*
X003618Y001799D01*
X015780Y016705D02*
X016409Y016705D01*
X017827Y018122D01*
X017827Y019185D01*
X017591Y019421D01*
D24*
X017535Y017684D02*
X018486Y017684D01*
X018913Y017256D01*
X018947Y017256D01*
X018975Y017285D01*
X016169Y014657D02*
X016039Y014657D01*
X015772Y014390D01*
X015457Y014075D01*
X015457Y013201D01*
X017358Y011299D01*
X017335Y011299D01*
X016768Y011866D01*
X016768Y010957D01*
X017024Y010701D01*
X017024Y011421D01*
X017031Y011429D01*
X017031Y011090D01*
X017433Y010689D01*
X015921Y013327D02*
X016661Y014067D01*
X016346Y014067D01*
X016165Y013886D01*
X016165Y014653D01*
X016169Y014657D01*
X015921Y013327D02*
X015823Y013327D01*
D25*
X016213Y013870D02*
X016213Y014299D01*
X016528Y014614D01*
X016690Y016056D02*
X016245Y016056D01*
X015653Y016648D01*
X014951Y017728D02*
X015937Y018715D01*
X016178Y018715D01*
X016392Y018774D01*
X016666Y018831D02*
X016685Y018831D01*
X016764Y018752D01*
X016764Y018634D01*
X016370Y018240D01*
X015504Y018240D01*
X015465Y018831D02*
X014480Y017846D01*
X014951Y017728D02*
X012197Y017728D01*
X011653Y017184D01*
X011653Y016648D01*
X010653Y016648D02*
X010653Y017405D01*
X011724Y018476D01*
X013496Y018476D01*
X013533Y018513D01*
X013732Y018712D01*
X013732Y019507D01*
X013780Y019704D01*
X012780Y019704D02*
X012729Y020464D01*
X012433Y020760D01*
X014685Y020760D01*
X016488Y020760D01*
X017354Y019894D01*
X017165Y019705D01*
X016902Y019705D01*
X016666Y018831D02*
X015465Y018831D01*
X012433Y020760D02*
X012094Y020760D01*
X009795Y020760D01*
X009598Y020563D01*
X009653Y019704D02*
X009494Y019668D01*
X007103Y019656D01*
X007103Y018656D02*
X007315Y018648D01*
X007315Y018122D01*
X008653Y016784D01*
X008653Y016648D01*
X009653Y016648D02*
X009653Y017940D01*
X010583Y018870D01*
X010583Y019580D01*
X010653Y019704D01*
X009653Y019704D02*
X009598Y019595D01*
X004283Y020445D02*
X004205Y020523D01*
X003575Y020523D01*
X000701Y017649D01*
X000701Y017610D01*
X000543Y017453D01*
X000543Y016901D01*
X003772Y020130D01*
X003772Y020642D01*
X016921Y007256D02*
X017197Y007256D01*
X017236Y007216D01*
X017236Y007020D01*
X015819Y005602D01*
X014559Y005602D01*
X014331Y005374D01*
X014283Y005327D01*
X016094Y005327D01*
X017157Y006390D01*
X017205Y006468D02*
X016110Y005374D01*
X014331Y005374D01*
X014283Y005327D02*
X013909Y004953D01*
X013909Y004090D01*
X013892Y004072D01*
X012892Y004072D02*
X012892Y003608D01*
X013535Y002964D01*
X014913Y002964D01*
X016173Y001705D01*
X016173Y002059D01*
X015583Y002649D01*
X015701Y002964D02*
X016088Y002577D01*
X016213Y002453D01*
X016213Y001784D01*
X016307Y001853D01*
X017307Y001853D02*
X017227Y000887D01*
X017236Y000878D01*
X017236Y001271D01*
X018654Y002689D01*
X018130Y002478D02*
X018018Y002366D01*
X017845Y002366D01*
X018041Y002562D01*
X018041Y002626D01*
X017973Y002558D01*
X017973Y002314D01*
X017977Y002310D01*
X018001Y002310D01*
X017989Y002322D01*
X017989Y002326D01*
X017989Y002334D01*
X017969Y002314D01*
X017307Y001853D02*
X017227Y000830D01*
X017039Y000642D01*
X014323Y000642D01*
X014087Y000878D01*
X013850Y000642D01*
X011252Y000642D01*
X010990Y000904D01*
X011011Y001807D01*
X010976Y001794D01*
X010976Y000878D02*
X010740Y000642D01*
X008719Y000642D01*
X008260Y000642D01*
X007959Y000943D01*
X007959Y000892D02*
X007709Y000642D01*
X004480Y000642D01*
X004453Y000669D01*
X003929Y001193D01*
X004077Y001340D01*
X004717Y000996D02*
X005071Y001350D01*
X005150Y001350D01*
X005110Y001311D01*
X005110Y000996D01*
X005425Y001311D01*
X005465Y001311D01*
X005543Y001232D01*
X005543Y000996D01*
X005740Y001193D01*
X005858Y001193D01*
X005858Y002925D01*
X006134Y002925D01*
X006134Y002807D01*
X005661Y002807D01*
X005661Y001153D01*
X005858Y001153D01*
X005858Y000957D01*
X006134Y000681D01*
X005780Y000681D01*
X005740Y000720D01*
X005406Y001626D02*
X005110Y001921D01*
X005110Y002138D01*
X004717Y001744D01*
X004717Y000996D01*
X004126Y000563D02*
X003969Y000563D01*
X000701Y003831D01*
X000622Y003831D01*
X000543Y003909D01*
X000661Y003634D02*
X000661Y003279D01*
X003299Y000642D01*
X004047Y000642D01*
X004126Y000563D01*
X003654Y002216D02*
X004953Y002216D01*
X005819Y002492D02*
X003378Y002492D01*
X003654Y002216D01*
X002591Y002886D02*
X006055Y002886D01*
X006213Y002886D01*
X005819Y002492D01*
X006961Y002367D02*
X006961Y001817D01*
X006930Y001807D01*
X006961Y001817D01*
X006961Y002367D02*
X007597Y003004D01*
X009323Y003004D01*
X009913Y003594D01*
X009913Y004051D01*
X009892Y004072D01*
X010858Y004039D02*
X010858Y003240D01*
X010028Y002410D01*
X009990Y002371D01*
X010011Y001807D01*
X011882Y003004D02*
X011921Y003004D01*
X012079Y003161D01*
X011892Y003348D01*
X011892Y004072D01*
X011882Y003752D02*
X011882Y003004D01*
X012315Y002571D01*
X012512Y002295D02*
X012551Y002256D01*
X012551Y001862D01*
X012906Y001508D01*
X013142Y001508D01*
X013102Y001468D01*
X012394Y001468D01*
X012197Y001665D01*
X012197Y003043D01*
X012079Y003161D01*
X012197Y003043D02*
X013063Y002177D01*
X013063Y002138D01*
X013063Y001778D01*
X013104Y001811D01*
X014087Y001751D02*
X014104Y001811D01*
X014913Y002964D02*
X015701Y002964D01*
X016016Y004067D02*
X016291Y004067D01*
X017177Y004953D01*
X017178Y004952D01*
X017178Y004938D01*
X017177Y004953D02*
X017197Y004972D01*
X017205Y006865D02*
X017202Y006868D01*
X016921Y007256D02*
X015031Y005366D01*
X014598Y005366D01*
X010892Y004072D02*
X010858Y004039D01*
X007930Y001807D02*
X007959Y000892D01*
X002591Y002886D02*
X002354Y003122D01*
D26*
X002630Y003397D02*
X002630Y004067D01*
X002669Y004027D01*
X002906Y004027D01*
X002906Y009106D01*
X002669Y009342D01*
X002591Y009342D01*
X002787Y009146D01*
X002787Y004185D01*
X002669Y004185D01*
X002669Y009146D01*
X002591Y009146D01*
X002591Y009185D01*
X003063Y009185D01*
X003063Y009421D01*
X000937Y011547D01*
X000937Y015366D01*
X002394Y016823D01*
X004835Y016823D01*
X004717Y016941D01*
X002551Y016941D01*
X002433Y017059D01*
X001016Y015642D01*
X001016Y015602D01*
X000898Y015720D01*
X000898Y015760D01*
X002236Y017098D01*
X004756Y017098D01*
X004953Y016901D01*
X004992Y016901D01*
X004913Y016980D01*
X004953Y017020D01*
X004953Y017059D01*
X005307Y016705D01*
X005425Y016705D01*
X005346Y016783D01*
X005071Y016783D01*
X005622Y016232D01*
X005622Y016035D01*
X004953Y016705D01*
X001803Y016705D01*
X001724Y016626D01*
X000386Y016626D01*
X000386Y017728D01*
X003575Y020917D01*
X005228Y020917D01*
X005425Y020720D01*
X004953Y020720D01*
X003654Y020720D01*
X003614Y020760D01*
X003654Y020760D01*
X003772Y020642D01*
X004789Y020790D02*
X000450Y016451D01*
X000450Y016382D01*
X002551Y018483D01*
X005223Y018483D01*
X005701Y017689D02*
X005799Y017590D01*
X005720Y017590D01*
X005504Y017374D01*
X005799Y017590D02*
X005858Y017531D01*
X005898Y017531D01*
X006528Y016901D01*
X006528Y016547D01*
X006528Y015327D01*
X006488Y015287D01*
X006488Y013988D01*
X006528Y014027D01*
X006528Y015248D01*
X006370Y015090D01*
X006291Y015090D01*
X006291Y015169D01*
X006291Y015090D02*
X006291Y014933D01*
X005819Y014933D01*
X005031Y014146D01*
X005031Y014106D01*
X004913Y013988D01*
X004165Y013988D01*
X004087Y013909D01*
X004087Y013870D01*
X004047Y013831D01*
X004913Y013831D01*
X005189Y014106D01*
X005189Y014342D01*
X005346Y014500D01*
X005346Y014106D01*
X004913Y013673D01*
X004008Y013673D01*
X003969Y013634D01*
X003969Y013988D01*
X003811Y013988D01*
X003772Y013949D01*
X003772Y013634D01*
X003654Y013516D01*
X003654Y013870D01*
X003614Y013909D01*
X003614Y013712D01*
X003417Y013516D01*
X003417Y013949D01*
X003575Y014106D01*
X004795Y014106D01*
X005346Y014657D01*
X005465Y014657D01*
X005465Y015012D01*
X005543Y015090D01*
X005465Y015012D02*
X004756Y014303D01*
X003575Y014303D01*
X003220Y013949D01*
X003220Y013201D01*
X003299Y013319D02*
X003417Y013201D01*
X003496Y013201D01*
X005110Y012689D02*
X005189Y012689D01*
X006488Y013988D01*
X006370Y013870D02*
X005228Y012728D01*
X005150Y012728D01*
X005110Y012689D01*
X005858Y011647D02*
X005679Y011468D01*
X004205Y011468D01*
X003956Y011220D01*
X003956Y010155D01*
X004244Y010563D02*
X004913Y011232D01*
X006449Y011232D01*
X006882Y011665D01*
X008260Y011665D01*
X008693Y012098D01*
X008693Y012295D01*
X007551Y013437D01*
X007551Y012649D01*
X007079Y012177D01*
X008417Y012177D01*
X008496Y012256D01*
X007748Y013004D01*
X007748Y012807D01*
X007669Y012728D01*
X007669Y012571D01*
X007472Y012374D01*
X008181Y012374D01*
X008220Y012334D01*
X008102Y012334D01*
X007827Y012610D01*
X007906Y012689D01*
X007906Y012768D01*
X007472Y013201D01*
X007472Y014539D01*
X008063Y015130D01*
X008083Y015110D01*
X008181Y015110D01*
X008653Y013648D02*
X008653Y013201D01*
X009559Y012295D01*
X009559Y011870D01*
X009580Y011849D01*
X010130Y010917D02*
X010583Y011370D01*
X010583Y011847D01*
X010580Y011849D01*
X010583Y011851D01*
X010583Y012295D01*
X009653Y013225D01*
X009653Y013648D01*
X010653Y013648D02*
X010653Y013229D01*
X011567Y012315D01*
X011567Y011862D01*
X011580Y011849D01*
X012571Y011859D02*
X012580Y011849D01*
X012571Y011859D02*
X012571Y012315D01*
X011653Y013233D01*
X011653Y013648D01*
X012653Y013648D02*
X012653Y013237D01*
X013575Y012315D01*
X013575Y011855D01*
X013580Y011849D01*
X012591Y011839D02*
X012591Y011370D01*
X011744Y010523D01*
X007217Y010523D01*
X005848Y009155D01*
X004956Y009155D01*
X004956Y010155D02*
X006257Y010155D01*
X007020Y010917D01*
X010130Y010917D01*
X010580Y008849D02*
X010580Y008616D01*
X011902Y007295D01*
X011902Y007082D01*
X011892Y007072D01*
X010898Y007078D02*
X010892Y007072D01*
X010898Y007078D02*
X010898Y007315D01*
X009580Y008632D01*
X009580Y008849D01*
X008580Y008849D02*
X008580Y008628D01*
X009894Y007315D01*
X009894Y007074D01*
X009892Y007072D01*
X011580Y008620D02*
X012906Y007295D01*
X012906Y007086D01*
X012892Y007072D01*
X012906Y007059D01*
X012906Y006153D01*
X012236Y005484D01*
X006134Y005484D01*
X005463Y006155D01*
X004956Y006155D01*
X004956Y007155D02*
X004978Y007177D01*
X005307Y007177D01*
X007866Y009736D01*
X013220Y009736D01*
X013594Y009362D01*
X013594Y008863D01*
X013580Y008849D02*
X013580Y008628D01*
X014894Y007315D01*
X014894Y007074D01*
X014892Y007072D01*
X013909Y007090D02*
X013892Y007072D01*
X013909Y007090D02*
X013909Y007275D01*
X012580Y008605D01*
X012580Y008849D01*
X011580Y008849D02*
X011580Y008620D01*
X013476Y010149D02*
X007531Y010149D01*
X005543Y008161D01*
X004963Y008161D01*
X004956Y008155D01*
X003063Y009146D02*
X003063Y003201D01*
X003083Y003220D01*
X003063Y003201D02*
X002906Y003358D01*
X002906Y003752D01*
X002748Y003594D01*
X002669Y003673D01*
X002669Y003831D01*
X002709Y003870D01*
X002866Y003870D01*
X003024Y003712D01*
X003024Y003673D01*
X003457Y003240D01*
X003181Y003240D01*
X003339Y003083D01*
X003417Y003161D01*
X003535Y003161D01*
X005504Y003161D01*
X005386Y003043D01*
X002984Y003043D01*
X002630Y003397D01*
X003457Y003240D02*
X003535Y003161D01*
X003850Y002846D01*
X007417Y000774D02*
X007453Y000738D01*
X007453Y000720D01*
X007446Y000774D02*
X007762Y001090D01*
X007762Y002207D01*
X007785Y002230D01*
X008090Y002230D01*
X008188Y002132D01*
X008188Y001090D01*
X008568Y000709D01*
X007446Y000774D02*
X007417Y000774D01*
X010269Y000718D02*
X010341Y000718D01*
X010913Y001290D01*
X011013Y001290D01*
X011565Y000738D01*
X011493Y000738D01*
X011181Y001050D01*
X011035Y000904D01*
X010990Y000904D01*
X011181Y001050D02*
X011212Y001050D01*
X011215Y001053D01*
X011215Y001073D01*
X011207Y001081D01*
X011207Y001124D01*
X011205Y001126D01*
X011205Y001147D01*
X011543Y000810D01*
X011207Y001124D02*
X011207Y002167D01*
X011104Y002270D01*
X010857Y002270D01*
X010796Y002209D01*
X010796Y002209D01*
X010763Y002175D01*
X010763Y001041D01*
X010769Y001034D01*
X011205Y001147D02*
X011205Y001198D01*
X013374Y000720D02*
X013400Y000720D01*
X014027Y001347D01*
X014091Y001347D01*
X014700Y000737D01*
X014700Y000717D02*
X013377Y000717D01*
X013374Y000720D01*
X013637Y000750D02*
X014464Y000750D01*
X014484Y000770D01*
X014440Y000770D01*
X014260Y000950D01*
X014260Y002157D01*
X014194Y002223D01*
X013920Y002223D01*
X013857Y002160D01*
X013857Y001973D01*
X013937Y001973D01*
X014064Y002100D01*
X014064Y002063D01*
X014104Y002023D01*
X014104Y001778D01*
X014104Y001690D01*
X014084Y001670D01*
X014084Y001334D01*
X014700Y000717D01*
X013847Y000960D02*
X013637Y000750D01*
X013847Y000960D02*
X013847Y001977D01*
X013476Y010149D02*
X014579Y011252D01*
X014579Y011847D01*
X014580Y011849D01*
X014579Y011851D01*
X014579Y012216D01*
X013653Y013142D01*
X013653Y013648D01*
X014598Y015130D02*
X015386Y014342D01*
X015386Y013240D01*
X015386Y013201D01*
X015386Y013122D01*
X015386Y010642D01*
X015425Y010602D01*
X017433Y010602D01*
X017591Y010760D01*
X015583Y010760D01*
X015543Y010799D01*
X015543Y012768D01*
X015583Y012807D01*
X015583Y012728D01*
X015780Y012531D01*
X015780Y010996D01*
X015701Y010917D01*
X016331Y010917D01*
X016567Y011153D01*
X016567Y011783D01*
X015937Y012413D01*
X015937Y011153D01*
X016055Y011035D01*
X016173Y011035D01*
X016370Y011232D01*
X016370Y011783D01*
X016094Y012059D01*
X016094Y011311D01*
X016173Y011232D01*
X016173Y011429D01*
X016213Y011468D01*
X016213Y011744D01*
X017669Y011744D01*
X017709Y011783D01*
X017709Y011823D01*
X017945Y011586D01*
X017945Y011705D01*
X016961Y012689D01*
X016961Y014539D01*
X016803Y014382D01*
X016803Y013201D01*
X016764Y013161D01*
X016764Y012886D01*
X016567Y013083D01*
X016567Y013358D01*
X016606Y013397D01*
X016606Y013791D01*
X016370Y013555D01*
X016370Y013437D01*
X016449Y013358D01*
X016449Y013279D01*
X016213Y013870D02*
X016213Y013949D01*
X015772Y014390D01*
X014598Y015130D02*
X014598Y015209D01*
X015386Y013201D02*
X015701Y012886D01*
X015701Y012846D01*
X015937Y012610D01*
X015898Y012610D01*
X015386Y013122D01*
X017945Y011586D02*
X017945Y010957D01*
X014611Y017712D02*
X014602Y017712D01*
X014611Y017712D02*
X015854Y018956D01*
X016574Y018956D01*
X016598Y018932D01*
X016598Y018802D01*
X016469Y018672D01*
X016469Y018682D01*
X016666Y018879D01*
X016666Y018831D01*
X016666Y018572D01*
X016608Y018514D01*
X015941Y018514D01*
X015883Y018514D01*
X015614Y018245D01*
X006764Y019972D02*
X006724Y020012D01*
X006724Y020218D01*
X006724Y020012D02*
X006291Y020012D01*
X004835Y016823D02*
X004953Y016705D01*
X006370Y015090D02*
X006370Y013870D01*
X006528Y015248D02*
X006528Y015327D01*
X002394Y009815D02*
X002079Y009815D01*
X001528Y010366D01*
X002394Y009815D02*
X003063Y009146D01*
X000937Y011547D02*
X000701Y011783D01*
D27*
X002079Y017492D02*
X002079Y017666D01*
X004402Y019989D01*
X004858Y019989D01*
X005404Y020536D01*
X009533Y020536D01*
X009574Y020494D01*
X005785Y020494D01*
X005328Y020038D01*
X005736Y020038D01*
X005916Y020218D01*
X006724Y020218D01*
X006864Y020218D01*
X007064Y020017D01*
X007064Y020128D01*
X007202Y020266D01*
X007202Y020135D01*
X007320Y020017D01*
X007320Y020045D01*
X007472Y020197D01*
X007472Y020100D01*
X007624Y019948D01*
X007624Y020100D01*
X007728Y020204D01*
X007728Y020059D01*
X007825Y019962D01*
X007825Y020031D01*
X007949Y020155D01*
X008987Y020155D01*
X009222Y019920D01*
X008053Y019920D01*
X008046Y019927D01*
X008987Y019927D01*
X009277Y020218D01*
X009554Y020218D01*
X009830Y020494D01*
X009830Y020294D01*
X009512Y019976D01*
X009678Y019976D01*
X009747Y019907D01*
X009747Y019744D01*
X009653Y019704D01*
X009598Y020563D02*
X009777Y020742D01*
X009777Y020806D01*
X005219Y020806D01*
X004402Y019989D01*
X014685Y020760D02*
X014902Y020760D01*
X015597Y020064D01*
X015597Y020500D01*
X015757Y020340D01*
X015854Y020340D01*
X015857Y020343D01*
X015857Y020702D01*
X016190Y020702D01*
X016420Y020472D01*
X016420Y020108D01*
X016617Y019911D01*
X016617Y020154D01*
X016646Y020183D01*
X016428Y020089D02*
X016428Y019839D01*
X016306Y019961D01*
X016176Y019961D01*
X016009Y019794D01*
X016009Y019740D01*
X016392Y019774D01*
X016428Y020089D02*
X016084Y020433D01*
X016084Y020194D01*
X015776Y019886D01*
X015597Y020064D01*
X015837Y019868D02*
X015767Y019798D01*
X015767Y019698D01*
X015829Y019637D01*
X015881Y019637D01*
X015901Y019618D01*
X017014Y019618D01*
X017045Y019648D01*
X017045Y019862D01*
X016958Y019949D01*
X016958Y020289D01*
X016488Y020760D01*
X015857Y020702D02*
X015773Y020702D01*
X015776Y020699D01*
X015837Y019868D02*
X015845Y019868D01*
X015973Y019740D02*
X016009Y019740D01*
X016768Y010957D02*
X016513Y010702D01*
X016318Y010702D01*
X016318Y010033D02*
X016502Y009849D01*
X017470Y009849D01*
X007945Y004382D02*
X007630Y004382D01*
X007512Y004500D01*
X006803Y004500D01*
X006724Y004421D01*
X006724Y003634D01*
X006764Y003594D01*
X007197Y003752D02*
X007866Y003752D01*
X007945Y003831D01*
X007892Y003884D01*
X007892Y004072D01*
X007945Y004382D02*
X007512Y004815D01*
X007118Y004815D01*
X005406Y002177D02*
X005406Y001626D01*
X005386Y001646D01*
X004913Y001646D01*
D28*
X002315Y003319D02*
X002315Y003988D01*
X002315Y009657D01*
X000819Y011153D01*
X000661Y011153D01*
X000937Y010366D02*
X001724Y009579D01*
X001331Y004736D02*
X001331Y004500D01*
X000909Y004500D01*
X007930Y001807D02*
X007959Y000943D01*
X010976Y000878D02*
X010976Y001794D01*
X014087Y001751D02*
X014087Y000878D01*
X014892Y004072D02*
X017025Y004072D01*
X017248Y004295D01*
X016941Y004295D01*
X016827Y004181D01*
X016827Y004223D01*
X018339Y004654D02*
X018202Y006868D01*
X018252Y006681D02*
X018315Y006681D01*
X018327Y006693D01*
X018181Y007571D02*
X018181Y007689D01*
X018614Y008122D01*
X018614Y008988D01*
X018654Y009027D01*
X018654Y008949D01*
X018299Y008594D01*
X018220Y008476D02*
X018299Y008397D01*
X018299Y007649D01*
X018220Y007610D02*
X018181Y007571D01*
X018220Y007610D02*
X018220Y008476D01*
X017205Y006865D02*
X017205Y006468D01*
X018339Y004752D02*
X018339Y004654D01*
X015653Y016648D02*
X015653Y016932D01*
X015661Y016941D01*
X015661Y016823D01*
X015780Y016705D01*
X018551Y018299D02*
X018947Y017903D01*
X019026Y017903D01*
X019067Y017945D01*
X018976Y017874D02*
X018947Y017903D01*
X008654Y017886D02*
X008654Y016823D01*
X008339Y017610D02*
X007276Y018673D01*
X007039Y018673D01*
X007079Y018712D01*
X007079Y018680D01*
X007103Y018656D01*
X007079Y018712D02*
X007827Y018712D01*
X008654Y017886D01*
D29*
X010465Y018516D02*
X010504Y018516D01*
X010937Y018949D01*
X010937Y019933D01*
X010780Y020090D01*
X010386Y020090D01*
X010346Y020051D01*
X010346Y019933D01*
X010365Y019933D01*
X010819Y020090D02*
X010898Y020090D01*
X010937Y020051D01*
X010937Y019972D01*
X010819Y020090D01*
X010937Y019972D02*
X010937Y019933D01*
X013417Y020878D02*
X016921Y020878D01*
X017118Y021075D01*
X017039Y021153D01*
X003260Y021153D01*
X003181Y021075D01*
X000307Y018201D01*
X000307Y018083D01*
X000307Y018043D01*
X003772Y018043D01*
X006331Y020602D01*
X014638Y020602D01*
X014874Y020366D01*
X015740Y019500D01*
X017787Y019500D01*
X018772Y018516D01*
X018772Y019067D01*
X016882Y020957D01*
X016921Y020957D01*
X017197Y020681D01*
X015346Y020681D01*
X014992Y020327D01*
X014835Y020484D01*
X016961Y020484D01*
X019126Y018319D01*
X018496Y018319D01*
X017000Y016823D01*
X017000Y016508D01*
X016921Y016429D01*
X016764Y016429D01*
X016724Y016468D01*
X016764Y016468D01*
X016843Y016547D01*
X016921Y016547D01*
X016921Y016665D01*
X016882Y016626D01*
X016882Y017177D01*
X016646Y017413D01*
X015819Y017413D01*
X015543Y017138D01*
X016252Y017138D01*
X016291Y017098D01*
X016291Y017138D01*
X016488Y017334D01*
X015819Y017334D01*
X015780Y017295D01*
X015780Y017256D01*
X015740Y017216D01*
X016252Y017216D01*
X016291Y017256D01*
X016055Y017256D01*
X015425Y016626D01*
X015425Y016350D01*
X015858Y015917D01*
X015976Y015917D01*
X015504Y016390D01*
X015504Y016271D01*
X015898Y015878D01*
X016213Y015878D01*
X016370Y015720D01*
X016370Y016508D01*
X017906Y018043D01*
X018614Y018043D01*
X019323Y017334D01*
X019323Y010051D01*
X017906Y008634D01*
X017906Y002886D01*
X017433Y002413D01*
X017157Y002413D01*
X017000Y002256D01*
X017079Y002334D02*
X017984Y003240D01*
X017984Y003083D01*
X017354Y002453D01*
X017354Y002531D01*
X017827Y003004D01*
X018299Y003004D01*
X018890Y003594D01*
X018890Y003870D01*
X018142Y004618D01*
X018142Y007177D01*
X017945Y007374D01*
X018024Y007374D01*
X018299Y007649D01*
X019047Y007649D02*
X019047Y007334D01*
X019047Y007649D02*
X019441Y008043D01*
X019441Y002964D01*
X018575Y002098D01*
X018693Y002531D02*
X019283Y002531D01*
X019480Y002728D01*
X019480Y018712D01*
X017118Y021075D01*
X003339Y021075D01*
X003496Y020917D01*
X016882Y020917D01*
X018535Y019264D01*
X018575Y019264D01*
X019126Y018712D01*
X019126Y018673D01*
X019283Y018516D01*
X019323Y018516D01*
X019323Y018358D01*
X016764Y020917D01*
X016685Y020917D01*
X016724Y020878D01*
X016764Y020878D01*
X016843Y020957D01*
X016882Y020957D01*
X016921Y020957D02*
X017000Y020957D01*
X019402Y018555D01*
X019402Y018240D01*
X019402Y018555D02*
X019402Y018673D01*
X017079Y020996D01*
X016606Y020996D01*
X016370Y020760D01*
X005583Y020760D01*
X002827Y018004D01*
X000346Y018004D01*
X003339Y020996D01*
X003457Y020996D01*
X000386Y017925D01*
X000583Y017728D01*
X000583Y002964D01*
X000307Y003240D01*
X000307Y018043D01*
X000307Y018083D02*
X003299Y021075D01*
X003181Y021075D01*
X003299Y021075D02*
X003339Y021075D01*
X005819Y018240D02*
X005858Y018240D01*
X005937Y018319D01*
X005898Y018201D02*
X005898Y018122D01*
X013533Y018513D02*
X013569Y018476D01*
X013569Y018472D01*
X014874Y020366D02*
X014874Y020523D01*
X015740Y019657D01*
X015740Y019500D01*
X015937Y018715D02*
X015937Y018518D01*
X015941Y018514D01*
X015976Y015917D02*
X016173Y015917D01*
X018772Y017571D02*
X019067Y017571D01*
X019067Y017649D01*
X017953Y004549D02*
X017938Y004549D01*
X017938Y002804D01*
X018031Y002711D01*
X018031Y004483D01*
X018046Y004498D01*
X018645Y003114D02*
X018645Y002982D01*
X017989Y002326D01*
X017981Y002326D01*
X017969Y002314D01*
X018693Y002531D02*
X016724Y000563D01*
X010898Y000563D01*
X011173Y000838D01*
X011173Y002334D01*
X011291Y002216D01*
X011291Y001193D01*
X011961Y000523D01*
X013535Y000523D01*
X014008Y000996D01*
X014402Y000996D01*
X014402Y002177D01*
X014362Y002216D01*
X014283Y002295D01*
X014362Y002216D02*
X014362Y001193D01*
X014835Y000720D01*
X016882Y000720D01*
X017039Y000878D01*
X017039Y001783D01*
X017000Y001744D01*
X017000Y001311D01*
X017000Y001271D01*
X016961Y001271D01*
X016685Y000996D01*
X016685Y000838D01*
X017000Y001153D01*
X017000Y001271D01*
X016961Y001271D02*
X017000Y001311D01*
X016685Y000996D02*
X016016Y000327D01*
X003417Y000327D01*
X003378Y000287D02*
X003339Y000248D01*
X017000Y000248D01*
X019283Y002531D01*
X019402Y002728D02*
X017000Y000327D01*
X016016Y000327D01*
X019402Y002728D02*
X019480Y002728D01*
X003339Y000248D02*
X003299Y000248D01*
X003260Y000287D01*
X003063Y000484D01*
X003102Y000484D01*
X003299Y000287D01*
X003260Y000287D01*
X003142Y000484D02*
X003102Y000484D01*
M02*
