G75*
G70*
%OFA0B0*%
%FSLAX24Y24*%
%IPPOS*%
%LPD*%
%AMOC8*
5,1,8,0,0,1.08239X$1,22.5*
%
%ADD10C,0.0160*%
%ADD11C,0.0000*%
%ADD12C,0.0600*%
%ADD13C,0.0560*%
%ADD14OC8,0.0560*%
%ADD15C,0.0860*%
%ADD16C,0.0520*%
%ADD17C,0.0700*%
%ADD18C,0.1000*%
%ADD19C,0.0240*%
%ADD20C,0.0100*%
%ADD21C,0.0560*%
%ADD22C,0.0400*%
%ADD23C,0.0120*%
%ADD24C,0.0500*%
D10*
X000247Y000184D02*
X000247Y021273D01*
X020095Y021273D01*
X020095Y000184D01*
X000247Y000184D01*
X006882Y007531D02*
X007787Y006626D01*
X007945Y006626D01*
X007906Y006665D01*
X007945Y006626D02*
X008102Y006626D01*
X008181Y006705D01*
X008181Y006862D01*
X007945Y006626D01*
X008181Y006862D02*
X008181Y006941D01*
X008142Y006980D01*
X008142Y007020D01*
X008181Y006941D02*
X008181Y007413D01*
X007866Y007728D01*
X007827Y007728D01*
X004283Y010051D02*
X004087Y009854D01*
X003732Y009854D01*
X003457Y010130D01*
X003575Y010248D01*
X003732Y010248D01*
X003457Y010130D02*
X003457Y011075D01*
X003732Y011350D01*
X004323Y010760D02*
X004323Y010484D01*
X004283Y010445D01*
X004283Y010051D01*
X004283Y010169D02*
X004165Y010051D01*
X004008Y010051D01*
X005937Y011647D02*
X005976Y011647D01*
X014402Y009264D02*
X014402Y008516D01*
X014520Y008397D01*
X015268Y008397D01*
X015307Y008397D01*
X015504Y008397D01*
X015268Y008634D01*
X015268Y008516D01*
X015307Y008476D01*
X015228Y008476D01*
X015150Y008555D01*
X015110Y008555D01*
X015071Y008516D01*
X014953Y008516D01*
X014953Y008555D01*
X014835Y008555D01*
X014795Y008516D01*
X014638Y008516D01*
X014598Y008555D01*
X014480Y008555D01*
X014598Y008555D02*
X014795Y008555D01*
X014953Y008555D02*
X015031Y008555D01*
X015396Y008849D02*
X015396Y008880D01*
X015504Y008988D01*
X015150Y009342D01*
X015504Y009342D01*
X015386Y009224D01*
X015976Y009224D01*
X016016Y009264D01*
X015937Y009342D01*
X016055Y009342D01*
X016134Y009421D01*
X016685Y009972D01*
X016803Y010090D01*
X017945Y010090D01*
X017984Y010051D01*
X017354Y010051D01*
X016134Y008831D01*
X016134Y009421D01*
X016055Y009342D02*
X016409Y009342D01*
X015937Y009342D02*
X015504Y009342D01*
X015268Y009106D02*
X015228Y009106D01*
X015110Y009224D01*
X015110Y009303D01*
X015150Y009342D01*
X014480Y009342D01*
X014402Y009264D01*
X014795Y009224D02*
X014835Y009224D01*
X014874Y009264D01*
X014953Y009264D02*
X014953Y009106D01*
X014913Y009106D01*
X014795Y009224D01*
X014953Y009264D02*
X015071Y009146D01*
X015071Y009106D01*
X015110Y009146D01*
X015110Y009224D01*
X015504Y008988D02*
X015504Y008712D01*
X015504Y008397D02*
X015780Y008122D01*
X016961Y009460D02*
X016921Y009500D01*
X016921Y009854D01*
X016961Y009894D01*
X017984Y009894D01*
X017984Y009657D01*
X017866Y009539D01*
X017551Y009539D01*
X017630Y009618D01*
X017470Y009777D01*
X017470Y009849D01*
X017630Y009618D02*
X017984Y009618D01*
X017787Y009421D01*
X017236Y009421D01*
X017787Y013201D02*
X018102Y013201D01*
X018220Y013319D01*
X018220Y013831D01*
X018014Y013831D01*
X017977Y013793D01*
X018220Y013831D02*
X018220Y013988D01*
X018142Y014067D01*
X018142Y014106D01*
X017945Y014303D01*
X018024Y014421D02*
X017591Y014421D01*
X017512Y014500D01*
X017512Y013988D01*
X017591Y013909D01*
X017591Y013397D01*
X017709Y013279D01*
X017709Y013594D01*
X017709Y013634D01*
X017669Y013673D01*
X017669Y013319D01*
X017787Y013201D01*
X018220Y013909D02*
X018220Y014224D01*
X018024Y014421D01*
X018063Y015720D02*
X017787Y015720D01*
X017591Y015917D01*
X017591Y016508D01*
X017669Y016429D01*
X017669Y016508D01*
X017768Y016606D01*
X017878Y016606D01*
X017996Y016488D01*
X017768Y016606D02*
X018063Y016901D01*
X018102Y016862D01*
X018142Y016823D01*
X017748Y016823D01*
X017669Y016901D01*
X017748Y016980D02*
X018142Y016980D01*
X018220Y016901D01*
X018220Y015878D01*
X018063Y015720D01*
X017669Y015957D02*
X017669Y016429D01*
X017591Y016508D02*
X017591Y016626D01*
D11*
X018485Y020353D02*
X018487Y020403D01*
X018493Y020453D01*
X018503Y020502D01*
X018517Y020550D01*
X018534Y020597D01*
X018555Y020642D01*
X018580Y020686D01*
X018608Y020727D01*
X018640Y020766D01*
X018674Y020803D01*
X018711Y020837D01*
X018751Y020867D01*
X018793Y020894D01*
X018837Y020918D01*
X018883Y020939D01*
X018930Y020955D01*
X018978Y020968D01*
X019028Y020977D01*
X019077Y020982D01*
X019128Y020983D01*
X019178Y020980D01*
X019227Y020973D01*
X019276Y020962D01*
X019324Y020947D01*
X019370Y020929D01*
X019415Y020907D01*
X019458Y020881D01*
X019499Y020852D01*
X019538Y020820D01*
X019574Y020785D01*
X019606Y020747D01*
X019636Y020707D01*
X019663Y020664D01*
X019686Y020620D01*
X019705Y020574D01*
X019721Y020526D01*
X019733Y020477D01*
X019741Y020428D01*
X019745Y020378D01*
X019745Y020328D01*
X019741Y020278D01*
X019733Y020229D01*
X019721Y020180D01*
X019705Y020132D01*
X019686Y020086D01*
X019663Y020042D01*
X019636Y019999D01*
X019606Y019959D01*
X019574Y019921D01*
X019538Y019886D01*
X019499Y019854D01*
X019458Y019825D01*
X019415Y019799D01*
X019370Y019777D01*
X019324Y019759D01*
X019276Y019744D01*
X019227Y019733D01*
X019178Y019726D01*
X019128Y019723D01*
X019077Y019724D01*
X019028Y019729D01*
X018978Y019738D01*
X018930Y019751D01*
X018883Y019767D01*
X018837Y019788D01*
X018793Y019812D01*
X018751Y019839D01*
X018711Y019869D01*
X018674Y019903D01*
X018640Y019940D01*
X018608Y019979D01*
X018580Y020020D01*
X018555Y020064D01*
X018534Y020109D01*
X018517Y020156D01*
X018503Y020204D01*
X018493Y020253D01*
X018487Y020303D01*
X018485Y020353D01*
X000513Y020402D02*
X000515Y020452D01*
X000521Y020502D01*
X000531Y020551D01*
X000545Y020599D01*
X000562Y020646D01*
X000583Y020691D01*
X000608Y020735D01*
X000636Y020776D01*
X000668Y020815D01*
X000702Y020852D01*
X000739Y020886D01*
X000779Y020916D01*
X000821Y020943D01*
X000865Y020967D01*
X000911Y020988D01*
X000958Y021004D01*
X001006Y021017D01*
X001056Y021026D01*
X001105Y021031D01*
X001156Y021032D01*
X001206Y021029D01*
X001255Y021022D01*
X001304Y021011D01*
X001352Y020996D01*
X001398Y020978D01*
X001443Y020956D01*
X001486Y020930D01*
X001527Y020901D01*
X001566Y020869D01*
X001602Y020834D01*
X001634Y020796D01*
X001664Y020756D01*
X001691Y020713D01*
X001714Y020669D01*
X001733Y020623D01*
X001749Y020575D01*
X001761Y020526D01*
X001769Y020477D01*
X001773Y020427D01*
X001773Y020377D01*
X001769Y020327D01*
X001761Y020278D01*
X001749Y020229D01*
X001733Y020181D01*
X001714Y020135D01*
X001691Y020091D01*
X001664Y020048D01*
X001634Y020008D01*
X001602Y019970D01*
X001566Y019935D01*
X001527Y019903D01*
X001486Y019874D01*
X001443Y019848D01*
X001398Y019826D01*
X001352Y019808D01*
X001304Y019793D01*
X001255Y019782D01*
X001206Y019775D01*
X001156Y019772D01*
X001105Y019773D01*
X001056Y019778D01*
X001006Y019787D01*
X000958Y019800D01*
X000911Y019816D01*
X000865Y019837D01*
X000821Y019861D01*
X000779Y019888D01*
X000739Y019918D01*
X000702Y019952D01*
X000668Y019989D01*
X000636Y020028D01*
X000608Y020069D01*
X000583Y020113D01*
X000562Y020158D01*
X000545Y020205D01*
X000531Y020253D01*
X000521Y020302D01*
X000515Y020352D01*
X000513Y020402D01*
X000543Y001114D02*
X000545Y001164D01*
X000551Y001214D01*
X000561Y001263D01*
X000575Y001311D01*
X000592Y001358D01*
X000613Y001403D01*
X000638Y001447D01*
X000666Y001488D01*
X000698Y001527D01*
X000732Y001564D01*
X000769Y001598D01*
X000809Y001628D01*
X000851Y001655D01*
X000895Y001679D01*
X000941Y001700D01*
X000988Y001716D01*
X001036Y001729D01*
X001086Y001738D01*
X001135Y001743D01*
X001186Y001744D01*
X001236Y001741D01*
X001285Y001734D01*
X001334Y001723D01*
X001382Y001708D01*
X001428Y001690D01*
X001473Y001668D01*
X001516Y001642D01*
X001557Y001613D01*
X001596Y001581D01*
X001632Y001546D01*
X001664Y001508D01*
X001694Y001468D01*
X001721Y001425D01*
X001744Y001381D01*
X001763Y001335D01*
X001779Y001287D01*
X001791Y001238D01*
X001799Y001189D01*
X001803Y001139D01*
X001803Y001089D01*
X001799Y001039D01*
X001791Y000990D01*
X001779Y000941D01*
X001763Y000893D01*
X001744Y000847D01*
X001721Y000803D01*
X001694Y000760D01*
X001664Y000720D01*
X001632Y000682D01*
X001596Y000647D01*
X001557Y000615D01*
X001516Y000586D01*
X001473Y000560D01*
X001428Y000538D01*
X001382Y000520D01*
X001334Y000505D01*
X001285Y000494D01*
X001236Y000487D01*
X001186Y000484D01*
X001135Y000485D01*
X001086Y000490D01*
X001036Y000499D01*
X000988Y000512D01*
X000941Y000528D01*
X000895Y000549D01*
X000851Y000573D01*
X000809Y000600D01*
X000769Y000630D01*
X000732Y000664D01*
X000698Y000701D01*
X000666Y000740D01*
X000638Y000781D01*
X000613Y000825D01*
X000592Y000870D01*
X000575Y000917D01*
X000561Y000965D01*
X000551Y001014D01*
X000545Y001064D01*
X000543Y001114D01*
X018496Y001114D02*
X018498Y001164D01*
X018504Y001214D01*
X018514Y001263D01*
X018528Y001311D01*
X018545Y001358D01*
X018566Y001403D01*
X018591Y001447D01*
X018619Y001488D01*
X018651Y001527D01*
X018685Y001564D01*
X018722Y001598D01*
X018762Y001628D01*
X018804Y001655D01*
X018848Y001679D01*
X018894Y001700D01*
X018941Y001716D01*
X018989Y001729D01*
X019039Y001738D01*
X019088Y001743D01*
X019139Y001744D01*
X019189Y001741D01*
X019238Y001734D01*
X019287Y001723D01*
X019335Y001708D01*
X019381Y001690D01*
X019426Y001668D01*
X019469Y001642D01*
X019510Y001613D01*
X019549Y001581D01*
X019585Y001546D01*
X019617Y001508D01*
X019647Y001468D01*
X019674Y001425D01*
X019697Y001381D01*
X019716Y001335D01*
X019732Y001287D01*
X019744Y001238D01*
X019752Y001189D01*
X019756Y001139D01*
X019756Y001089D01*
X019752Y001039D01*
X019744Y000990D01*
X019732Y000941D01*
X019716Y000893D01*
X019697Y000847D01*
X019674Y000803D01*
X019647Y000760D01*
X019617Y000720D01*
X019585Y000682D01*
X019549Y000647D01*
X019510Y000615D01*
X019469Y000586D01*
X019426Y000560D01*
X019381Y000538D01*
X019335Y000520D01*
X019287Y000505D01*
X019238Y000494D01*
X019189Y000487D01*
X019139Y000484D01*
X019088Y000485D01*
X019039Y000490D01*
X018989Y000499D01*
X018941Y000512D01*
X018894Y000528D01*
X018848Y000549D01*
X018804Y000573D01*
X018762Y000600D01*
X018722Y000630D01*
X018685Y000664D01*
X018651Y000701D01*
X018619Y000740D01*
X018591Y000781D01*
X018566Y000825D01*
X018545Y000870D01*
X018528Y000917D01*
X018514Y000965D01*
X018504Y001014D01*
X018498Y001064D01*
X018496Y001114D01*
D12*
X017307Y001553D02*
X017307Y002153D01*
X016307Y002153D02*
X016307Y001553D01*
X014104Y001511D02*
X014104Y002111D01*
X013104Y002111D02*
X013104Y001511D01*
X011011Y001507D02*
X011011Y002107D01*
X010011Y002107D02*
X010011Y001507D01*
X007930Y001507D02*
X007930Y002107D01*
X006930Y002107D02*
X006930Y001507D01*
X017212Y004308D02*
X017212Y004908D01*
X018212Y004908D02*
X018212Y004308D01*
X018202Y006568D02*
X018202Y007168D01*
X017202Y007168D02*
X017202Y006568D01*
X017170Y009849D02*
X017770Y009849D01*
X017770Y010849D02*
X017170Y010849D01*
X017977Y013493D02*
X017977Y014093D01*
X018977Y014093D02*
X018977Y013493D01*
X018975Y015947D02*
X018975Y016547D01*
X017975Y016547D02*
X017975Y015947D01*
X016692Y018774D02*
X016092Y018774D01*
X016092Y019774D02*
X016692Y019774D01*
X013780Y020004D02*
X013780Y019404D01*
X012780Y019404D02*
X012780Y020004D01*
X010653Y020004D02*
X010653Y019404D01*
X009653Y019404D02*
X009653Y020004D01*
X007403Y019656D02*
X006803Y019656D01*
X006803Y018656D02*
X007403Y018656D01*
D13*
X004956Y004155D03*
D14*
X004956Y005155D03*
X004956Y006155D03*
X004956Y007155D03*
X004956Y008155D03*
X004956Y009155D03*
X004956Y010155D03*
X003956Y010155D03*
X003956Y009155D03*
X003956Y008155D03*
X003956Y007155D03*
X003956Y006155D03*
X003956Y005155D03*
X003956Y004155D03*
D15*
X004376Y013090D02*
X003516Y013090D01*
X002057Y013841D02*
X002057Y014701D01*
X003516Y015452D02*
X004376Y015452D01*
D16*
X008653Y016388D02*
X008653Y016908D01*
X009653Y016908D02*
X009653Y016388D01*
X010653Y016388D02*
X010653Y016908D01*
X011653Y016908D02*
X011653Y016388D01*
X012653Y016388D02*
X012653Y016908D01*
X013653Y016908D02*
X013653Y016388D01*
X014653Y016388D02*
X014653Y016908D01*
X015653Y016908D02*
X015653Y016388D01*
X015653Y013908D02*
X015653Y013388D01*
X014653Y013388D02*
X014653Y013908D01*
X013653Y013908D02*
X013653Y013388D01*
X012653Y013388D02*
X012653Y013908D01*
X011653Y013908D02*
X011653Y013388D01*
X010653Y013388D02*
X010653Y013908D01*
X009653Y013908D02*
X009653Y013388D01*
X008653Y013388D02*
X008653Y013908D01*
X008580Y012109D02*
X008580Y011589D01*
X009580Y011589D02*
X009580Y012109D01*
X010580Y012109D02*
X010580Y011589D01*
X011580Y011589D02*
X011580Y012109D01*
X012580Y012109D02*
X012580Y011589D01*
X013580Y011589D02*
X013580Y012109D01*
X014580Y012109D02*
X014580Y011589D01*
X014580Y009109D02*
X014580Y008589D01*
X013580Y008589D02*
X013580Y009109D01*
X012580Y009109D02*
X012580Y008589D01*
X011580Y008589D02*
X011580Y009109D01*
X010580Y009109D02*
X010580Y008589D01*
X009580Y008589D02*
X009580Y009109D01*
X008580Y009109D02*
X008580Y008589D01*
X008892Y007332D02*
X008892Y006812D01*
X009892Y006812D02*
X009892Y007332D01*
X010892Y007332D02*
X010892Y006812D01*
X011892Y006812D02*
X011892Y007332D01*
X012892Y007332D02*
X012892Y006812D01*
X013892Y006812D02*
X013892Y007332D01*
X014892Y007332D02*
X014892Y006812D01*
X014892Y004332D02*
X014892Y003812D01*
X013892Y003812D02*
X013892Y004332D01*
X012892Y004332D02*
X012892Y003812D01*
X011892Y003812D02*
X011892Y004332D01*
X010892Y004332D02*
X010892Y003812D01*
X009892Y003812D02*
X009892Y004332D01*
X008892Y004332D02*
X008892Y003812D01*
X007892Y003812D02*
X007892Y004332D01*
X007892Y006812D02*
X007892Y007332D01*
D17*
X007669Y007334D02*
X007669Y007295D01*
X007892Y007072D01*
X003956Y010155D02*
X003825Y010155D01*
X003732Y010248D01*
X003732Y010523D01*
X003890Y010681D01*
D18*
X003890Y010899D01*
X004638Y011647D01*
X005937Y011647D01*
X005955Y011647D01*
X006724Y010878D01*
X006724Y008279D01*
X007669Y007334D01*
D19*
X007892Y007072D02*
X007971Y007072D01*
X006685Y005996D02*
X010504Y005996D01*
X010898Y006390D01*
X010898Y007066D01*
X010892Y007072D01*
X006685Y005996D02*
X005844Y005155D01*
X004956Y005155D01*
D20*
X004488Y005577D02*
X004141Y005577D01*
X004134Y005585D02*
X003996Y005585D01*
X003996Y005195D01*
X003916Y005195D01*
X003916Y005585D01*
X003778Y005585D01*
X003526Y005333D01*
X003526Y005195D01*
X003916Y005195D01*
X003916Y005115D01*
X003526Y005115D01*
X003526Y004977D01*
X003778Y004725D01*
X003916Y004725D01*
X003916Y005114D01*
X003996Y005114D01*
X003996Y004725D01*
X004134Y004725D01*
X004326Y004917D01*
X004326Y004894D01*
X004565Y004655D01*
X004422Y004512D01*
X004359Y004360D01*
X004134Y004585D01*
X003996Y004585D01*
X003996Y004195D01*
X003916Y004195D01*
X003916Y004585D01*
X003778Y004585D01*
X003526Y004333D01*
X003526Y004195D01*
X003916Y004195D01*
X003916Y004115D01*
X003526Y004115D01*
X003526Y003977D01*
X003778Y003725D01*
X003916Y003725D01*
X003916Y004114D01*
X003996Y004114D01*
X003996Y003725D01*
X004134Y003725D01*
X004359Y003950D01*
X004422Y003798D01*
X004599Y003621D01*
X004831Y003525D01*
X005081Y003525D01*
X005132Y003546D01*
X005900Y003546D01*
X006139Y003546D01*
X006360Y003637D01*
X007272Y004549D01*
X007321Y004549D01*
X007282Y004454D01*
X007282Y003691D01*
X007374Y003467D01*
X007546Y003295D01*
X007770Y003202D01*
X008013Y003202D01*
X008237Y003295D01*
X008392Y003450D01*
X008546Y003295D01*
X008770Y003202D01*
X009013Y003202D01*
X009237Y003295D01*
X009392Y003450D01*
X009546Y003295D01*
X009770Y003202D01*
X010013Y003202D01*
X010237Y003295D01*
X010392Y003450D01*
X010546Y003295D01*
X010770Y003202D01*
X011013Y003202D01*
X011237Y003295D01*
X011392Y003450D01*
X011546Y003295D01*
X011770Y003202D01*
X012013Y003202D01*
X012237Y003295D01*
X012392Y003450D01*
X012546Y003295D01*
X012770Y003202D01*
X013013Y003202D01*
X013237Y003295D01*
X013392Y003450D01*
X013546Y003295D01*
X013770Y003202D01*
X014013Y003202D01*
X014237Y003295D01*
X014392Y003450D01*
X014546Y003295D01*
X014770Y003202D01*
X015013Y003202D01*
X015237Y003295D01*
X015409Y003467D01*
X015502Y003691D01*
X015502Y004454D01*
X015409Y004678D01*
X015338Y004749D01*
X016273Y005684D01*
X016442Y005853D01*
X016533Y006073D01*
X016533Y007562D01*
X018026Y009054D01*
X018031Y009057D01*
X018228Y009253D01*
X018349Y009374D01*
X018351Y009380D01*
X018363Y009391D01*
X018424Y009538D01*
X018424Y009971D01*
X018424Y010131D01*
X018363Y010278D01*
X018351Y010289D01*
X018349Y010295D01*
X018188Y010455D01*
X018064Y010506D01*
X018114Y010556D01*
X018155Y010613D01*
X018187Y010676D01*
X018209Y010744D01*
X018218Y010799D01*
X017521Y010799D01*
X017521Y010899D01*
X018218Y010899D01*
X019565Y010899D01*
X019565Y010997D02*
X018195Y010997D01*
X018187Y011022D02*
X018155Y011085D01*
X018114Y011142D01*
X018064Y011192D01*
X018006Y011234D01*
X017943Y011266D01*
X017876Y011288D01*
X017806Y011299D01*
X017520Y011299D01*
X017520Y010899D01*
X017420Y010899D01*
X017420Y010799D01*
X016723Y010799D01*
X016731Y010744D01*
X016753Y010676D01*
X016786Y010613D01*
X016827Y010556D01*
X016863Y010520D01*
X016718Y010520D01*
X016560Y010455D01*
X016439Y010334D01*
X016321Y010216D01*
X016321Y010216D01*
X015890Y009786D01*
X015877Y009772D01*
X015851Y009772D01*
X015589Y009772D01*
X015418Y009772D01*
X015064Y009772D01*
X014566Y009772D01*
X014395Y009772D01*
X014237Y009707D01*
X014158Y009628D01*
X014041Y009511D01*
X013926Y009626D01*
X013702Y009719D01*
X013459Y009719D01*
X013235Y009626D01*
X013080Y009472D01*
X012926Y009626D01*
X012702Y009719D01*
X012459Y009719D01*
X012235Y009626D01*
X012080Y009472D01*
X011926Y009626D01*
X011702Y009719D01*
X011459Y009719D01*
X011235Y009626D01*
X011080Y009472D01*
X010926Y009626D01*
X010702Y009719D01*
X010459Y009719D01*
X010235Y009626D01*
X010080Y009472D01*
X009926Y009626D01*
X009702Y009719D01*
X009459Y009719D01*
X009235Y009626D01*
X009080Y009472D01*
X008926Y009626D01*
X008702Y009719D01*
X008459Y009719D01*
X008235Y009626D01*
X008063Y009455D01*
X007970Y009230D01*
X007970Y008468D01*
X008063Y008243D01*
X008235Y008072D01*
X008459Y007979D01*
X008702Y007979D01*
X008926Y008072D01*
X009080Y008226D01*
X009235Y008072D01*
X009459Y007979D01*
X009702Y007979D01*
X009926Y008072D01*
X010080Y008226D01*
X010235Y008072D01*
X010459Y007979D01*
X010702Y007979D01*
X010926Y008072D01*
X011080Y008226D01*
X011235Y008072D01*
X011459Y007979D01*
X011702Y007979D01*
X011926Y008072D01*
X012080Y008226D01*
X012235Y008072D01*
X012459Y007979D01*
X012702Y007979D01*
X012926Y008072D01*
X013080Y008226D01*
X013235Y008072D01*
X013459Y007979D01*
X013702Y007979D01*
X013926Y008072D01*
X014080Y008226D01*
X014235Y008072D01*
X014239Y008070D01*
X014276Y008033D01*
X014434Y007967D01*
X014975Y007967D01*
X015000Y007942D01*
X014770Y007942D01*
X014546Y007849D01*
X014392Y007695D01*
X014237Y007849D01*
X014013Y007942D01*
X013770Y007942D01*
X013546Y007849D01*
X013392Y007695D01*
X013237Y007849D01*
X013013Y007942D01*
X012770Y007942D01*
X012546Y007849D01*
X012392Y007695D01*
X012237Y007849D01*
X012013Y007942D01*
X011770Y007942D01*
X011546Y007849D01*
X011392Y007695D01*
X011237Y007849D01*
X011013Y007942D01*
X010770Y007942D01*
X010546Y007849D01*
X010392Y007695D01*
X010237Y007849D01*
X010013Y007942D01*
X009770Y007942D01*
X009546Y007849D01*
X009392Y007695D01*
X009237Y007849D01*
X009013Y007942D01*
X008770Y007942D01*
X008546Y007849D01*
X008374Y007678D01*
X008283Y007456D01*
X008272Y007490D01*
X008242Y007547D01*
X008204Y007599D01*
X008159Y007645D01*
X008106Y007683D01*
X008049Y007712D01*
X007988Y007732D01*
X007924Y007742D01*
X007922Y007742D01*
X007922Y007103D01*
X007862Y007103D01*
X007862Y007742D01*
X007859Y007742D01*
X007796Y007732D01*
X007734Y007712D01*
X007677Y007683D01*
X007624Y007645D01*
X007579Y007599D01*
X007541Y007547D01*
X007512Y007490D01*
X007492Y007428D01*
X007482Y007365D01*
X007482Y007102D01*
X007861Y007102D01*
X007861Y007042D01*
X007482Y007042D01*
X007482Y006780D01*
X007492Y006716D01*
X007512Y006655D01*
X007541Y006597D01*
X007579Y006545D01*
X007624Y006500D01*
X007671Y006466D01*
X006592Y006466D01*
X006419Y006394D01*
X006287Y006262D01*
X005649Y005625D01*
X005377Y005625D01*
X005347Y005655D01*
X005586Y005894D01*
X005586Y006416D01*
X005347Y006655D01*
X005586Y006894D01*
X005586Y007416D01*
X005347Y007655D01*
X005586Y007894D01*
X005586Y008416D01*
X005347Y008655D01*
X005586Y008894D01*
X005586Y009416D01*
X005347Y009655D01*
X005586Y009894D01*
X005586Y010416D01*
X005217Y010785D01*
X004695Y010785D01*
X004468Y010558D01*
X004369Y010599D01*
X004198Y010599D01*
X004143Y010576D01*
X004134Y010585D01*
X003996Y010585D01*
X003996Y010490D01*
X003987Y010481D01*
X003922Y010481D01*
X003916Y010478D01*
X003916Y010585D01*
X003778Y010585D01*
X003526Y010333D01*
X003526Y010195D01*
X003602Y010195D01*
X003578Y010137D01*
X003578Y010115D01*
X003526Y010115D01*
X003526Y009977D01*
X003607Y009896D01*
X003643Y009807D01*
X003764Y009686D01*
X003922Y009621D01*
X004080Y009621D01*
X004251Y009621D01*
X004409Y009686D01*
X004471Y009749D01*
X004565Y009655D01*
X004326Y009416D01*
X004326Y009393D01*
X004134Y009585D01*
X003996Y009585D01*
X003996Y009195D01*
X003916Y009195D01*
X003916Y009585D01*
X003778Y009585D01*
X003526Y009333D01*
X003526Y009195D01*
X003916Y009195D01*
X003916Y009115D01*
X003526Y009115D01*
X003526Y008977D01*
X003778Y008725D01*
X003916Y008725D01*
X003916Y009114D01*
X003996Y009114D01*
X003996Y008725D01*
X004134Y008725D01*
X004326Y008917D01*
X004326Y008894D01*
X004565Y008655D01*
X004326Y008416D01*
X004326Y008393D01*
X004134Y008585D01*
X003996Y008585D01*
X003996Y008195D01*
X003916Y008195D01*
X003916Y008585D01*
X003778Y008585D01*
X003526Y008333D01*
X003526Y008195D01*
X003916Y008195D01*
X003916Y008115D01*
X003526Y008115D01*
X003526Y007977D01*
X003778Y007725D01*
X003916Y007725D01*
X003916Y008114D01*
X003996Y008114D01*
X003996Y007725D01*
X004134Y007725D01*
X004326Y007917D01*
X004326Y007894D01*
X004565Y007655D01*
X004326Y007416D01*
X004326Y007393D01*
X004134Y007585D01*
X003996Y007585D01*
X003996Y007195D01*
X003916Y007195D01*
X003916Y007585D01*
X003778Y007585D01*
X003526Y007333D01*
X003526Y007195D01*
X003916Y007195D01*
X003916Y007115D01*
X003526Y007115D01*
X003526Y006977D01*
X003778Y006725D01*
X003916Y006725D01*
X003916Y007114D01*
X003996Y007114D01*
X003996Y006725D01*
X004134Y006725D01*
X004326Y006917D01*
X004326Y006894D01*
X004565Y006655D01*
X004326Y006416D01*
X004326Y006393D01*
X004134Y006585D01*
X003996Y006585D01*
X003996Y006195D01*
X003916Y006195D01*
X003916Y006585D01*
X003778Y006585D01*
X003526Y006333D01*
X003526Y006195D01*
X003916Y006195D01*
X003916Y006115D01*
X003526Y006115D01*
X003526Y005977D01*
X003778Y005725D01*
X003916Y005725D01*
X003916Y006114D01*
X003996Y006114D01*
X003996Y005725D01*
X004134Y005725D01*
X004326Y005917D01*
X004326Y005894D01*
X004565Y005655D01*
X004326Y005416D01*
X004326Y005393D01*
X004134Y005585D01*
X003996Y005577D02*
X003916Y005577D01*
X003916Y005479D02*
X003996Y005479D01*
X003996Y005380D02*
X003916Y005380D01*
X003916Y005282D02*
X003996Y005282D01*
X003916Y005183D02*
X000777Y005183D01*
X000777Y005085D02*
X003526Y005085D01*
X003526Y004986D02*
X000777Y004986D01*
X000777Y004888D02*
X003615Y004888D01*
X003714Y004789D02*
X000777Y004789D01*
X000777Y004691D02*
X004529Y004691D01*
X004503Y004592D02*
X000777Y004592D01*
X000777Y004494D02*
X003687Y004494D01*
X003588Y004395D02*
X000777Y004395D01*
X000777Y004296D02*
X003526Y004296D01*
X003526Y004198D02*
X000777Y004198D01*
X000777Y004099D02*
X003526Y004099D01*
X003526Y004001D02*
X000777Y004001D01*
X000777Y003902D02*
X003600Y003902D01*
X003699Y003804D02*
X000777Y003804D01*
X000777Y003705D02*
X004515Y003705D01*
X004419Y003804D02*
X004213Y003804D01*
X004312Y003902D02*
X004379Y003902D01*
X004633Y003607D02*
X000777Y003607D01*
X000777Y003508D02*
X007357Y003508D01*
X007317Y003607D02*
X006286Y003607D01*
X006428Y003705D02*
X007282Y003705D01*
X007282Y003804D02*
X006526Y003804D01*
X006625Y003902D02*
X007282Y003902D01*
X007282Y004001D02*
X006723Y004001D01*
X006822Y004099D02*
X007282Y004099D01*
X007282Y004198D02*
X006921Y004198D01*
X007019Y004296D02*
X007282Y004296D01*
X007282Y004395D02*
X007118Y004395D01*
X007216Y004494D02*
X007298Y004494D01*
X007432Y003410D02*
X000777Y003410D01*
X000777Y003311D02*
X007530Y003311D01*
X007746Y003212D02*
X000777Y003212D01*
X000777Y003114D02*
X019565Y003114D01*
X019565Y003212D02*
X015037Y003212D01*
X015253Y003311D02*
X019565Y003311D01*
X019565Y003410D02*
X015351Y003410D01*
X015426Y003508D02*
X019565Y003508D01*
X019565Y003607D02*
X015467Y003607D01*
X015502Y003705D02*
X016969Y003705D01*
X017082Y003658D02*
X016844Y003757D01*
X016661Y003940D01*
X016562Y004179D01*
X016562Y005038D01*
X016661Y005276D01*
X016844Y005459D01*
X017082Y005558D01*
X017341Y005558D01*
X017580Y005459D01*
X017712Y005327D01*
X017844Y005459D01*
X018082Y005558D01*
X018341Y005558D01*
X018580Y005459D01*
X018763Y005276D01*
X018862Y005038D01*
X018862Y004179D01*
X018763Y003940D01*
X018580Y003757D01*
X018341Y003658D01*
X018082Y003658D01*
X017844Y003757D01*
X017712Y003889D01*
X017580Y003757D01*
X017341Y003658D01*
X017082Y003658D01*
X016797Y003804D02*
X015502Y003804D01*
X015502Y003902D02*
X016699Y003902D01*
X016636Y004001D02*
X015502Y004001D01*
X015502Y004099D02*
X016595Y004099D01*
X016562Y004198D02*
X015502Y004198D01*
X015502Y004296D02*
X016562Y004296D01*
X016562Y004395D02*
X015502Y004395D01*
X015485Y004494D02*
X016562Y004494D01*
X016562Y004592D02*
X015444Y004592D01*
X015396Y004691D02*
X016562Y004691D01*
X016562Y004789D02*
X015378Y004789D01*
X015476Y004888D02*
X016562Y004888D01*
X016562Y004986D02*
X015575Y004986D01*
X015674Y005085D02*
X016581Y005085D01*
X016622Y005183D02*
X015772Y005183D01*
X015871Y005282D02*
X016666Y005282D01*
X016765Y005380D02*
X015969Y005380D01*
X016068Y005479D02*
X016891Y005479D01*
X017073Y005918D02*
X017332Y005918D01*
X017570Y006017D01*
X017702Y006148D01*
X017834Y006017D01*
X018073Y005918D01*
X018332Y005918D01*
X018570Y006017D01*
X018753Y006199D01*
X018852Y006438D01*
X018852Y007297D01*
X018753Y007536D01*
X018570Y007719D01*
X018332Y007818D01*
X018073Y007818D01*
X017834Y007719D01*
X017702Y007587D01*
X017570Y007719D01*
X017332Y007818D01*
X017073Y007818D01*
X016834Y007719D01*
X016651Y007536D01*
X016552Y007297D01*
X016552Y006438D01*
X016651Y006199D01*
X016834Y006017D01*
X017073Y005918D01*
X016942Y005972D02*
X016491Y005972D01*
X016532Y006070D02*
X016780Y006070D01*
X016682Y006169D02*
X016533Y006169D01*
X016533Y006267D02*
X016623Y006267D01*
X016582Y006366D02*
X016533Y006366D01*
X016533Y006464D02*
X016552Y006464D01*
X016552Y006563D02*
X016533Y006563D01*
X016533Y006661D02*
X016552Y006661D01*
X016552Y006760D02*
X016533Y006760D01*
X016533Y006859D02*
X016552Y006859D01*
X016552Y006957D02*
X016533Y006957D01*
X016533Y007056D02*
X016552Y007056D01*
X016552Y007154D02*
X016533Y007154D01*
X016533Y007253D02*
X016552Y007253D01*
X016533Y007351D02*
X016575Y007351D01*
X016533Y007450D02*
X016616Y007450D01*
X016664Y007548D02*
X016533Y007548D01*
X016618Y007647D02*
X016762Y007647D01*
X016717Y007745D02*
X016899Y007745D01*
X016815Y007844D02*
X019565Y007844D01*
X019565Y007943D02*
X016914Y007943D01*
X017012Y008041D02*
X019565Y008041D01*
X019565Y008140D02*
X017111Y008140D01*
X017209Y008238D02*
X019565Y008238D01*
X019565Y008337D02*
X017308Y008337D01*
X017407Y008435D02*
X019565Y008435D01*
X019565Y008534D02*
X017505Y008534D01*
X017604Y008632D02*
X019565Y008632D01*
X019565Y008731D02*
X017702Y008731D01*
X017801Y008829D02*
X019565Y008829D01*
X019565Y008928D02*
X017899Y008928D01*
X017998Y009026D02*
X019565Y009026D01*
X019565Y009125D02*
X018099Y009125D01*
X018198Y009224D02*
X019565Y009224D01*
X019565Y009322D02*
X018296Y009322D01*
X018375Y009421D02*
X019565Y009421D01*
X019565Y009519D02*
X018416Y009519D01*
X018424Y009618D02*
X019565Y009618D01*
X019565Y009716D02*
X018424Y009716D01*
X018424Y009815D02*
X019565Y009815D01*
X019565Y009913D02*
X018424Y009913D01*
X018424Y010012D02*
X019565Y010012D01*
X019565Y010110D02*
X018424Y010110D01*
X018391Y010209D02*
X019565Y010209D01*
X019565Y010308D02*
X018336Y010308D01*
X018237Y010406D02*
X019565Y010406D01*
X019565Y010505D02*
X018068Y010505D01*
X018148Y010603D02*
X019565Y010603D01*
X019565Y010702D02*
X018196Y010702D01*
X018218Y010899D02*
X018209Y010954D01*
X018187Y011022D01*
X018147Y011096D02*
X019565Y011096D01*
X019565Y011194D02*
X018060Y011194D01*
X017843Y011293D02*
X019565Y011293D01*
X019565Y011392D02*
X015159Y011392D01*
X015190Y011468D02*
X015190Y012230D01*
X015097Y012455D01*
X014926Y012626D01*
X014702Y012719D01*
X014459Y012719D01*
X014235Y012626D01*
X014080Y012472D01*
X013926Y012626D01*
X013702Y012719D01*
X013459Y012719D01*
X013235Y012626D01*
X013080Y012472D01*
X012926Y012626D01*
X012702Y012719D01*
X012459Y012719D01*
X012235Y012626D01*
X012080Y012472D01*
X011926Y012626D01*
X011702Y012719D01*
X011459Y012719D01*
X011235Y012626D01*
X011080Y012472D01*
X010926Y012626D01*
X010702Y012719D01*
X010459Y012719D01*
X010235Y012626D01*
X010080Y012472D01*
X009926Y012626D01*
X009702Y012719D01*
X009459Y012719D01*
X009235Y012626D01*
X009063Y012455D01*
X008971Y012233D01*
X008960Y012266D01*
X008931Y012324D01*
X008893Y012376D01*
X008847Y012422D01*
X008795Y012460D01*
X008738Y012489D01*
X008676Y012509D01*
X008613Y012519D01*
X008610Y012519D01*
X008610Y011879D01*
X008550Y011879D01*
X008550Y011819D01*
X008170Y011819D01*
X008170Y011557D01*
X008180Y011493D01*
X008200Y011432D01*
X008230Y011374D01*
X008268Y011322D01*
X008313Y011276D01*
X008365Y011238D01*
X008423Y011209D01*
X008484Y011189D01*
X008548Y011179D01*
X008550Y011179D01*
X008550Y011819D01*
X008610Y011819D01*
X008610Y011179D01*
X008613Y011179D01*
X008676Y011189D01*
X008738Y011209D01*
X008795Y011238D01*
X008847Y011276D01*
X008893Y011322D01*
X008931Y011374D01*
X008960Y011432D01*
X008971Y011465D01*
X009063Y011243D01*
X009235Y011072D01*
X009459Y010979D01*
X009702Y010979D01*
X009926Y011072D01*
X010080Y011226D01*
X010235Y011072D01*
X010459Y010979D01*
X010702Y010979D01*
X010926Y011072D01*
X011080Y011226D01*
X011235Y011072D01*
X011459Y010979D01*
X011702Y010979D01*
X011926Y011072D01*
X012080Y011226D01*
X012235Y011072D01*
X012459Y010979D01*
X012702Y010979D01*
X012926Y011072D01*
X013080Y011226D01*
X013235Y011072D01*
X013459Y010979D01*
X013702Y010979D01*
X013926Y011072D01*
X014080Y011226D01*
X014235Y011072D01*
X014459Y010979D01*
X014702Y010979D01*
X014926Y011072D01*
X015097Y011243D01*
X015190Y011468D01*
X015190Y011490D02*
X019565Y011490D01*
X019565Y011589D02*
X015190Y011589D01*
X015190Y011687D02*
X019565Y011687D01*
X019565Y011786D02*
X015190Y011786D01*
X015190Y011884D02*
X019565Y011884D01*
X019565Y011983D02*
X015190Y011983D01*
X015190Y012081D02*
X019565Y012081D01*
X019565Y012180D02*
X015190Y012180D01*
X015170Y012278D02*
X019565Y012278D01*
X019565Y012377D02*
X015130Y012377D01*
X015076Y012476D02*
X019565Y012476D01*
X019565Y012574D02*
X014978Y012574D01*
X014814Y012673D02*
X019565Y012673D01*
X019565Y012771D02*
X018189Y012771D01*
X018188Y012771D02*
X018346Y012836D01*
X018464Y012954D01*
X018530Y013021D01*
X018609Y012942D01*
X018848Y012843D01*
X019106Y012843D01*
X019345Y012942D01*
X019528Y013125D01*
X019565Y013214D01*
X019565Y002107D01*
X019543Y002120D01*
X019268Y002194D01*
X018984Y002194D01*
X018709Y002120D01*
X018463Y001978D01*
X018262Y001777D01*
X018120Y001531D01*
X018046Y001256D01*
X018046Y000972D01*
X018115Y000714D01*
X002184Y000714D01*
X002253Y000972D01*
X002253Y001256D01*
X002180Y001531D01*
X002037Y001777D01*
X001836Y001978D01*
X001590Y002120D01*
X001315Y002194D01*
X001031Y002194D01*
X000777Y002126D01*
X000777Y019382D01*
X001001Y019322D01*
X001286Y019322D01*
X001560Y019396D01*
X001807Y019538D01*
X002008Y019739D01*
X002150Y019985D01*
X002223Y020260D01*
X002223Y020544D01*
X002170Y020743D01*
X018102Y020743D01*
X018036Y020495D01*
X018036Y020211D01*
X018109Y019936D01*
X018251Y019690D01*
X018452Y019489D01*
X018699Y019347D01*
X018973Y019273D01*
X019258Y019273D01*
X019532Y019347D01*
X019565Y019366D01*
X019565Y016822D01*
X019526Y016915D01*
X019344Y017098D01*
X019105Y017197D01*
X018846Y017197D01*
X018607Y017098D01*
X018605Y017096D01*
X018585Y017145D01*
X018577Y017153D01*
X018569Y017174D01*
X018414Y017328D01*
X017312Y018431D01*
X017262Y018451D01*
X017342Y018645D01*
X017342Y018903D01*
X017243Y019142D01*
X017112Y019274D01*
X017243Y019406D01*
X017342Y019645D01*
X017342Y019903D01*
X017243Y020142D01*
X017061Y020325D01*
X016822Y020424D01*
X015963Y020424D01*
X015724Y020325D01*
X015541Y020142D01*
X015442Y019903D01*
X015442Y019645D01*
X015541Y019406D01*
X015673Y019274D01*
X015541Y019142D01*
X015442Y018903D01*
X015442Y018645D01*
X015499Y018508D01*
X013953Y018508D01*
X013722Y018412D01*
X013545Y018235D01*
X013119Y017809D01*
X013023Y017577D01*
X013023Y017401D01*
X012998Y017426D01*
X012774Y017518D01*
X012531Y017518D01*
X012307Y017426D01*
X012153Y017271D01*
X011998Y017426D01*
X011774Y017518D01*
X011531Y017518D01*
X011307Y017426D01*
X011153Y017271D01*
X010998Y017426D01*
X010774Y017518D01*
X010531Y017518D01*
X010307Y017426D01*
X010153Y017271D01*
X009998Y017426D01*
X009774Y017518D01*
X009531Y017518D01*
X009307Y017426D01*
X009153Y017271D01*
X008998Y017426D01*
X008774Y017518D01*
X008531Y017518D01*
X008307Y017426D01*
X008136Y017254D01*
X008043Y017030D01*
X008043Y016267D01*
X008136Y016043D01*
X008307Y015871D01*
X008531Y015778D01*
X008774Y015778D01*
X008998Y015871D01*
X009153Y016026D01*
X009307Y015871D01*
X009531Y015778D01*
X009774Y015778D01*
X009998Y015871D01*
X010153Y016026D01*
X010307Y015871D01*
X010531Y015778D01*
X010774Y015778D01*
X010998Y015871D01*
X011153Y016026D01*
X011307Y015871D01*
X011531Y015778D01*
X011774Y015778D01*
X011998Y015871D01*
X012023Y015896D01*
X012023Y015891D01*
X012119Y015660D01*
X013289Y014489D01*
X013339Y014439D01*
X013307Y014426D01*
X013153Y014271D01*
X012998Y014426D01*
X012774Y014518D01*
X012531Y014518D01*
X012307Y014426D01*
X012153Y014271D01*
X011998Y014426D01*
X011774Y014518D01*
X011531Y014518D01*
X011307Y014426D01*
X011153Y014271D01*
X010998Y014426D01*
X010774Y014518D01*
X010531Y014518D01*
X010307Y014426D01*
X010153Y014271D01*
X009998Y014426D01*
X009774Y014518D01*
X009531Y014518D01*
X009307Y014426D01*
X009153Y014271D01*
X008998Y014426D01*
X008774Y014518D01*
X008531Y014518D01*
X008307Y014426D01*
X008136Y014254D01*
X008043Y014030D01*
X008043Y013267D01*
X008136Y013043D01*
X008307Y012871D01*
X008531Y012778D01*
X008774Y012778D01*
X008998Y012871D01*
X009153Y013026D01*
X009307Y012871D01*
X009531Y012778D01*
X009774Y012778D01*
X009998Y012871D01*
X010153Y013026D01*
X010307Y012871D01*
X010531Y012778D01*
X010774Y012778D01*
X010998Y012871D01*
X011153Y013026D01*
X011307Y012871D01*
X011531Y012778D01*
X011774Y012778D01*
X011998Y012871D01*
X012153Y013026D01*
X012307Y012871D01*
X012531Y012778D01*
X012774Y012778D01*
X012998Y012871D01*
X013153Y013026D01*
X013307Y012871D01*
X013531Y012778D01*
X013774Y012778D01*
X013998Y012871D01*
X014153Y013026D01*
X014307Y012871D01*
X014531Y012778D01*
X014774Y012778D01*
X014998Y012871D01*
X015170Y013043D01*
X015262Y013265D01*
X015273Y013231D01*
X015302Y013174D01*
X015340Y013121D01*
X015386Y013076D01*
X015438Y013038D01*
X015495Y013009D01*
X015557Y012989D01*
X015620Y012978D01*
X015623Y012978D01*
X015623Y013618D01*
X015683Y013618D01*
X015683Y012978D01*
X015685Y012978D01*
X015749Y012989D01*
X015810Y013009D01*
X015868Y013038D01*
X015920Y013076D01*
X015965Y013121D01*
X016003Y013174D01*
X016033Y013231D01*
X016053Y013292D01*
X016063Y013356D01*
X016063Y013618D01*
X015683Y013618D01*
X015683Y013678D01*
X016063Y013678D01*
X016063Y013941D01*
X016053Y014004D01*
X016033Y014066D01*
X016003Y014123D01*
X015965Y014176D01*
X015925Y014216D01*
X016348Y014216D01*
X017161Y013404D01*
X017161Y013312D01*
X017226Y013154D01*
X017305Y013075D01*
X017423Y012957D01*
X017544Y012836D01*
X017702Y012771D01*
X018017Y012771D01*
X018188Y012771D01*
X018379Y012870D02*
X018784Y012870D01*
X018583Y012968D02*
X018478Y012968D01*
X019170Y012870D02*
X019565Y012870D01*
X019565Y012968D02*
X019371Y012968D01*
X019470Y013067D02*
X019565Y013067D01*
X019565Y013165D02*
X019545Y013165D01*
X017701Y012771D02*
X005089Y012771D01*
X005048Y012673D02*
X009347Y012673D01*
X009183Y012574D02*
X004964Y012574D01*
X005038Y012648D02*
X005156Y012935D01*
X005156Y013245D01*
X005038Y013532D01*
X004818Y013751D01*
X004532Y013870D01*
X003361Y013870D01*
X003075Y013751D01*
X002855Y013532D01*
X002736Y013245D01*
X002736Y012935D01*
X002855Y012648D01*
X003075Y012428D01*
X003361Y012310D01*
X004532Y012310D01*
X004818Y012428D01*
X005038Y012648D01*
X005130Y012870D02*
X008311Y012870D01*
X008210Y012968D02*
X005156Y012968D01*
X005156Y013067D02*
X008126Y013067D01*
X008085Y013165D02*
X005156Y013165D01*
X005149Y013264D02*
X008044Y013264D01*
X008043Y013362D02*
X005108Y013362D01*
X005067Y013461D02*
X008043Y013461D01*
X008043Y013559D02*
X005010Y013559D01*
X004911Y013658D02*
X008043Y013658D01*
X008043Y013757D02*
X004805Y013757D01*
X004567Y013855D02*
X008043Y013855D01*
X008043Y013954D02*
X002637Y013954D01*
X002637Y014052D02*
X008052Y014052D01*
X008093Y014151D02*
X002637Y014151D01*
X002637Y014242D02*
X002086Y014242D01*
X002086Y014300D01*
X002085Y014300D02*
X002028Y014300D01*
X002028Y015281D01*
X002011Y015281D01*
X001921Y015266D01*
X001834Y015238D01*
X001753Y015197D01*
X001679Y015143D01*
X001614Y015079D01*
X001561Y015005D01*
X001519Y014923D01*
X001491Y014837D01*
X001477Y014746D01*
X001477Y014300D01*
X002028Y014300D01*
X002028Y014242D01*
X002085Y014242D01*
X002085Y013261D01*
X002102Y013261D01*
X002193Y013275D01*
X002279Y013303D01*
X002361Y013345D01*
X002435Y013398D01*
X002499Y013463D01*
X002553Y013537D01*
X002594Y013618D01*
X002622Y013705D01*
X002637Y013795D01*
X002637Y014242D01*
X002637Y014300D02*
X002637Y014746D01*
X002622Y014837D01*
X002594Y014923D01*
X002553Y015005D01*
X002499Y015079D01*
X002435Y015143D01*
X002361Y015197D01*
X002279Y015238D01*
X002193Y015266D01*
X002102Y015281D01*
X002085Y015281D01*
X002085Y014300D01*
X002086Y014300D02*
X002637Y014300D01*
X002637Y014348D02*
X008229Y014348D01*
X008134Y014249D02*
X002086Y014249D01*
X002028Y014249D02*
X000777Y014249D01*
X000777Y014151D02*
X001477Y014151D01*
X001477Y014242D02*
X001477Y013795D01*
X001491Y013705D01*
X001519Y013618D01*
X001561Y013537D01*
X001614Y013463D01*
X001679Y013398D01*
X001753Y013345D01*
X001834Y013303D01*
X001921Y013275D01*
X002011Y013261D01*
X002028Y013261D01*
X002028Y014242D01*
X001477Y014242D01*
X001477Y014348D02*
X000777Y014348D01*
X000777Y014446D02*
X001477Y014446D01*
X001477Y014545D02*
X000777Y014545D01*
X000777Y014643D02*
X001477Y014643D01*
X001477Y014742D02*
X000777Y014742D01*
X000777Y014841D02*
X001492Y014841D01*
X001527Y014939D02*
X000777Y014939D01*
X000777Y015038D02*
X001585Y015038D01*
X001672Y015136D02*
X000777Y015136D01*
X000777Y015235D02*
X001827Y015235D01*
X002028Y015235D02*
X002085Y015235D01*
X002085Y015136D02*
X002028Y015136D01*
X002028Y015038D02*
X002085Y015038D01*
X002085Y014939D02*
X002028Y014939D01*
X002028Y014841D02*
X002085Y014841D01*
X002085Y014742D02*
X002028Y014742D01*
X002028Y014643D02*
X002085Y014643D01*
X002085Y014545D02*
X002028Y014545D01*
X002028Y014446D02*
X002085Y014446D01*
X002085Y014348D02*
X002028Y014348D01*
X002028Y014151D02*
X002085Y014151D01*
X002085Y014052D02*
X002028Y014052D01*
X002028Y013954D02*
X002085Y013954D01*
X002085Y013855D02*
X002028Y013855D01*
X002028Y013757D02*
X002085Y013757D01*
X002085Y013658D02*
X002028Y013658D01*
X002028Y013559D02*
X002085Y013559D01*
X002085Y013461D02*
X002028Y013461D01*
X002028Y013362D02*
X002085Y013362D01*
X002085Y013264D02*
X002028Y013264D01*
X001992Y013264D02*
X000777Y013264D01*
X000777Y013362D02*
X001728Y013362D01*
X001616Y013461D02*
X000777Y013461D01*
X000777Y013559D02*
X001549Y013559D01*
X001506Y013658D02*
X000777Y013658D01*
X000777Y013757D02*
X001483Y013757D01*
X001477Y013855D02*
X000777Y013855D01*
X000777Y013954D02*
X001477Y013954D01*
X001477Y014052D02*
X000777Y014052D01*
X000777Y013165D02*
X002736Y013165D01*
X002736Y013067D02*
X000777Y013067D01*
X000777Y012968D02*
X002736Y012968D01*
X002763Y012870D02*
X000777Y012870D01*
X000777Y012771D02*
X002804Y012771D01*
X002845Y012673D02*
X000777Y012673D01*
X000777Y012574D02*
X002929Y012574D01*
X003028Y012476D02*
X000777Y012476D01*
X000777Y012377D02*
X003199Y012377D01*
X002744Y013264D02*
X002121Y013264D01*
X002385Y013362D02*
X002785Y013362D01*
X002826Y013461D02*
X002497Y013461D01*
X002564Y013559D02*
X002883Y013559D01*
X002982Y013658D02*
X002607Y013658D01*
X002631Y013757D02*
X003088Y013757D01*
X003326Y013855D02*
X002637Y013855D01*
X002637Y014446D02*
X008357Y014446D01*
X008948Y014446D02*
X009357Y014446D01*
X009229Y014348D02*
X009076Y014348D01*
X009948Y014446D02*
X010357Y014446D01*
X010229Y014348D02*
X010076Y014348D01*
X010948Y014446D02*
X011357Y014446D01*
X011229Y014348D02*
X011076Y014348D01*
X011948Y014446D02*
X012357Y014446D01*
X012229Y014348D02*
X012076Y014348D01*
X012948Y014446D02*
X013332Y014446D01*
X013233Y014545D02*
X002637Y014545D01*
X002637Y014643D02*
X013135Y014643D01*
X013036Y014742D02*
X002637Y014742D01*
X002621Y014841D02*
X012938Y014841D01*
X012839Y014939D02*
X004648Y014939D01*
X004680Y014956D02*
X004599Y014914D01*
X004512Y014886D01*
X004422Y014872D01*
X003975Y014872D01*
X003975Y015423D01*
X003918Y015423D01*
X003918Y014872D01*
X003471Y014872D01*
X003381Y014886D01*
X003294Y014914D01*
X003212Y014956D01*
X003139Y015010D01*
X003074Y015074D01*
X003020Y015148D01*
X002979Y015229D01*
X002951Y015316D01*
X002936Y015406D01*
X002936Y015423D01*
X003917Y015423D01*
X003917Y015481D01*
X002936Y015481D01*
X002936Y015498D01*
X002951Y015588D01*
X002979Y015675D01*
X003020Y015756D01*
X003074Y015830D01*
X003139Y015894D01*
X003212Y015948D01*
X003294Y015989D01*
X003381Y016018D01*
X003471Y016032D01*
X003918Y016032D01*
X003918Y015481D01*
X003975Y015481D01*
X003975Y016032D01*
X004422Y016032D01*
X004512Y016018D01*
X004599Y015989D01*
X004680Y015948D01*
X004754Y015894D01*
X004819Y015830D01*
X004873Y015756D01*
X004914Y015675D01*
X004942Y015588D01*
X004956Y015498D01*
X004956Y015481D01*
X003975Y015481D01*
X003975Y015423D01*
X004956Y015423D01*
X004956Y015406D01*
X004942Y015316D01*
X004914Y015229D01*
X004873Y015148D01*
X004819Y015074D01*
X004754Y015010D01*
X004680Y014956D01*
X004782Y015038D02*
X012741Y015038D01*
X012642Y015136D02*
X004864Y015136D01*
X004916Y015235D02*
X012543Y015235D01*
X012445Y015333D02*
X004945Y015333D01*
X004951Y015530D02*
X012248Y015530D01*
X012346Y015432D02*
X003975Y015432D01*
X003917Y015432D02*
X000777Y015432D01*
X000777Y015530D02*
X002942Y015530D01*
X002964Y015629D02*
X000777Y015629D01*
X000777Y015727D02*
X003006Y015727D01*
X003071Y015826D02*
X000777Y015826D01*
X000777Y015925D02*
X003180Y015925D01*
X003415Y016023D02*
X000777Y016023D01*
X000777Y016122D02*
X008103Y016122D01*
X008062Y016220D02*
X000777Y016220D01*
X000777Y016319D02*
X008043Y016319D01*
X008043Y016417D02*
X000777Y016417D01*
X000777Y016516D02*
X008043Y016516D01*
X008043Y016614D02*
X000777Y016614D01*
X000777Y016713D02*
X008043Y016713D01*
X008043Y016811D02*
X000777Y016811D01*
X000777Y016910D02*
X008043Y016910D01*
X008043Y017009D02*
X000777Y017009D01*
X000777Y017107D02*
X008075Y017107D01*
X008116Y017206D02*
X000777Y017206D01*
X000777Y017304D02*
X008186Y017304D01*
X008284Y017403D02*
X000777Y017403D01*
X000777Y017501D02*
X008490Y017501D01*
X008816Y017501D02*
X009490Y017501D01*
X009284Y017403D02*
X009021Y017403D01*
X009120Y017304D02*
X009186Y017304D01*
X009816Y017501D02*
X010490Y017501D01*
X010284Y017403D02*
X010021Y017403D01*
X010120Y017304D02*
X010186Y017304D01*
X010816Y017501D02*
X011490Y017501D01*
X011284Y017403D02*
X011021Y017403D01*
X011120Y017304D02*
X011186Y017304D01*
X011816Y017501D02*
X012490Y017501D01*
X012284Y017403D02*
X012021Y017403D01*
X012120Y017304D02*
X012186Y017304D01*
X012816Y017501D02*
X013023Y017501D01*
X013021Y017403D02*
X013023Y017403D01*
X013032Y017600D02*
X000777Y017600D01*
X000777Y017698D02*
X013073Y017698D01*
X013114Y017797D02*
X000777Y017797D01*
X000777Y017895D02*
X013205Y017895D01*
X013304Y017994D02*
X000777Y017994D01*
X000777Y018092D02*
X006465Y018092D01*
X006435Y018105D02*
X006674Y018006D01*
X007532Y018006D01*
X007771Y018105D01*
X007954Y018288D01*
X008053Y018527D01*
X008053Y018785D01*
X007954Y019024D01*
X007822Y019156D01*
X007954Y019288D01*
X008053Y019527D01*
X008053Y019785D01*
X007954Y020024D01*
X007771Y020207D01*
X007532Y020306D01*
X006674Y020306D01*
X006435Y020207D01*
X006252Y020024D01*
X006153Y019785D01*
X006153Y019527D01*
X006252Y019288D01*
X006384Y019156D01*
X006252Y019024D01*
X006153Y018785D01*
X006153Y018527D01*
X006252Y018288D01*
X006435Y018105D01*
X006349Y018191D02*
X000777Y018191D01*
X000777Y018290D02*
X006251Y018290D01*
X006210Y018388D02*
X000777Y018388D01*
X000777Y018487D02*
X006169Y018487D01*
X006153Y018585D02*
X000777Y018585D01*
X000777Y018684D02*
X006153Y018684D01*
X006153Y018782D02*
X000777Y018782D01*
X000777Y018881D02*
X006193Y018881D01*
X006233Y018979D02*
X000777Y018979D01*
X000777Y019078D02*
X006306Y019078D01*
X006363Y019176D02*
X000777Y019176D01*
X000777Y019275D02*
X006265Y019275D01*
X006216Y019374D02*
X001478Y019374D01*
X001693Y019472D02*
X006176Y019472D01*
X006153Y019571D02*
X001839Y019571D01*
X001938Y019669D02*
X006153Y019669D01*
X006153Y019768D02*
X002024Y019768D01*
X002081Y019866D02*
X006187Y019866D01*
X006227Y019965D02*
X002138Y019965D01*
X002171Y020063D02*
X006291Y020063D01*
X006390Y020162D02*
X002197Y020162D01*
X002223Y020260D02*
X006564Y020260D01*
X007642Y020260D02*
X009056Y020260D01*
X009015Y020162D02*
X007816Y020162D01*
X007915Y020063D02*
X009003Y020063D01*
X009003Y020133D02*
X009102Y020372D01*
X009285Y020555D01*
X009524Y020654D01*
X009783Y020654D01*
X010022Y020555D01*
X010153Y020423D01*
X010285Y020555D01*
X010524Y020654D01*
X010783Y020654D01*
X011022Y020555D01*
X011204Y020372D01*
X011303Y020133D01*
X011303Y019275D01*
X012130Y019275D01*
X012130Y019274D02*
X012229Y019035D01*
X012412Y018853D01*
X012651Y018754D01*
X012910Y018754D01*
X013149Y018853D01*
X013280Y018984D01*
X013412Y018853D01*
X013651Y018754D01*
X013910Y018754D01*
X014149Y018853D01*
X014331Y019035D01*
X014430Y019274D01*
X014430Y020133D01*
X014331Y020372D01*
X014149Y020555D01*
X013910Y020654D01*
X013651Y020654D01*
X013412Y020555D01*
X013280Y020423D01*
X013149Y020555D01*
X012910Y020654D01*
X012651Y020654D01*
X012412Y020555D01*
X012229Y020372D01*
X012130Y020133D01*
X012130Y019274D01*
X012130Y019374D02*
X011303Y019374D01*
X011303Y019472D02*
X012130Y019472D01*
X012130Y019571D02*
X011303Y019571D01*
X011303Y019669D02*
X012130Y019669D01*
X012130Y019768D02*
X011303Y019768D01*
X011303Y019866D02*
X012130Y019866D01*
X012130Y019965D02*
X011303Y019965D01*
X011303Y020063D02*
X012130Y020063D01*
X012142Y020162D02*
X011292Y020162D01*
X011251Y020260D02*
X012183Y020260D01*
X012224Y020359D02*
X011210Y020359D01*
X011119Y020458D02*
X012315Y020458D01*
X012416Y020556D02*
X011019Y020556D01*
X010288Y020556D02*
X010019Y020556D01*
X010119Y020458D02*
X010188Y020458D01*
X009288Y020556D02*
X002220Y020556D01*
X002223Y020458D02*
X009188Y020458D01*
X009097Y020359D02*
X002223Y020359D01*
X002194Y020655D02*
X018078Y020655D01*
X018052Y020556D02*
X014145Y020556D01*
X014246Y020458D02*
X018036Y020458D01*
X018036Y020359D02*
X016979Y020359D01*
X017125Y020260D02*
X018036Y020260D01*
X018049Y020162D02*
X017224Y020162D01*
X017276Y020063D02*
X018075Y020063D01*
X018101Y019965D02*
X017317Y019965D01*
X017342Y019866D02*
X018149Y019866D01*
X018206Y019768D02*
X017342Y019768D01*
X017342Y019669D02*
X018272Y019669D01*
X018371Y019571D02*
X017312Y019571D01*
X017271Y019472D02*
X018481Y019472D01*
X018652Y019374D02*
X017211Y019374D01*
X017113Y019275D02*
X018966Y019275D01*
X019265Y019275D02*
X019565Y019275D01*
X019565Y019176D02*
X017209Y019176D01*
X017270Y019078D02*
X019565Y019078D01*
X019565Y018979D02*
X017311Y018979D01*
X017342Y018881D02*
X019565Y018881D01*
X019565Y018782D02*
X017342Y018782D01*
X017342Y018684D02*
X019565Y018684D01*
X019565Y018585D02*
X017318Y018585D01*
X017277Y018487D02*
X019565Y018487D01*
X019565Y018388D02*
X017354Y018388D01*
X017453Y018290D02*
X019565Y018290D01*
X019565Y018191D02*
X017551Y018191D01*
X017650Y018092D02*
X019565Y018092D01*
X019565Y017994D02*
X017748Y017994D01*
X017847Y017895D02*
X019565Y017895D01*
X019565Y017797D02*
X017945Y017797D01*
X018044Y017698D02*
X019565Y017698D01*
X019565Y017600D02*
X018142Y017600D01*
X018241Y017501D02*
X019565Y017501D01*
X019565Y017403D02*
X018339Y017403D01*
X018438Y017304D02*
X019565Y017304D01*
X019565Y017206D02*
X018537Y017206D01*
X018601Y017107D02*
X018629Y017107D01*
X019322Y017107D02*
X019565Y017107D01*
X019565Y017009D02*
X019433Y017009D01*
X019529Y016910D02*
X019565Y016910D01*
X016709Y013855D02*
X016063Y013855D01*
X016063Y013757D02*
X016808Y013757D01*
X016907Y013658D02*
X015683Y013658D01*
X015683Y013559D02*
X015623Y013559D01*
X015623Y013461D02*
X015683Y013461D01*
X015683Y013362D02*
X015623Y013362D01*
X015623Y013264D02*
X015683Y013264D01*
X015683Y013165D02*
X015623Y013165D01*
X015623Y013067D02*
X015683Y013067D01*
X015907Y013067D02*
X017313Y013067D01*
X017221Y013165D02*
X015997Y013165D01*
X016043Y013264D02*
X017180Y013264D01*
X017161Y013362D02*
X016063Y013362D01*
X016063Y013461D02*
X017104Y013461D01*
X017005Y013559D02*
X016063Y013559D01*
X016061Y013954D02*
X016611Y013954D01*
X016512Y014052D02*
X016037Y014052D01*
X015983Y014151D02*
X016414Y014151D01*
X015262Y013264D02*
X015261Y013264D01*
X015220Y013165D02*
X015308Y013165D01*
X015398Y013067D02*
X015180Y013067D01*
X015095Y012968D02*
X017412Y012968D01*
X017510Y012870D02*
X014994Y012870D01*
X014347Y012673D02*
X013814Y012673D01*
X013978Y012574D02*
X014183Y012574D01*
X014084Y012476D02*
X014076Y012476D01*
X013994Y012870D02*
X014311Y012870D01*
X014210Y012968D02*
X014095Y012968D01*
X013311Y012870D02*
X012994Y012870D01*
X013095Y012968D02*
X013210Y012968D01*
X013347Y012673D02*
X012814Y012673D01*
X012978Y012574D02*
X013183Y012574D01*
X013084Y012476D02*
X013076Y012476D01*
X012347Y012673D02*
X011814Y012673D01*
X011978Y012574D02*
X012183Y012574D01*
X012084Y012476D02*
X012076Y012476D01*
X011994Y012870D02*
X012311Y012870D01*
X012210Y012968D02*
X012095Y012968D01*
X011311Y012870D02*
X010994Y012870D01*
X011095Y012968D02*
X011210Y012968D01*
X011347Y012673D02*
X010814Y012673D01*
X010978Y012574D02*
X011183Y012574D01*
X011084Y012476D02*
X011076Y012476D01*
X010347Y012673D02*
X009814Y012673D01*
X009978Y012574D02*
X010183Y012574D01*
X010084Y012476D02*
X010076Y012476D01*
X009994Y012870D02*
X010311Y012870D01*
X010210Y012968D02*
X010095Y012968D01*
X009311Y012870D02*
X008994Y012870D01*
X009095Y012968D02*
X009210Y012968D01*
X009084Y012476D02*
X008764Y012476D01*
X008610Y012476D02*
X008550Y012476D01*
X008550Y012519D02*
X008548Y012519D01*
X008484Y012509D01*
X008423Y012489D01*
X008365Y012460D01*
X008313Y012422D01*
X008268Y012376D01*
X008230Y012324D01*
X008200Y012266D01*
X008180Y012205D01*
X008170Y012141D01*
X008170Y011879D01*
X008550Y011879D01*
X008550Y012519D01*
X008550Y012377D02*
X008610Y012377D01*
X008610Y012278D02*
X008550Y012278D01*
X008550Y012180D02*
X008610Y012180D01*
X008610Y012081D02*
X008550Y012081D01*
X008550Y011983D02*
X008610Y011983D01*
X008610Y011884D02*
X008550Y011884D01*
X008550Y011786D02*
X008610Y011786D01*
X008610Y011687D02*
X008550Y011687D01*
X008550Y011589D02*
X008610Y011589D01*
X008610Y011490D02*
X008550Y011490D01*
X008550Y011392D02*
X008610Y011392D01*
X008610Y011293D02*
X008550Y011293D01*
X008550Y011194D02*
X008610Y011194D01*
X008693Y011194D02*
X009112Y011194D01*
X009043Y011293D02*
X008864Y011293D01*
X008940Y011392D02*
X009002Y011392D01*
X009211Y011096D02*
X000777Y011096D01*
X000777Y011194D02*
X008468Y011194D01*
X008296Y011293D02*
X000777Y011293D01*
X000777Y011392D02*
X008221Y011392D01*
X008181Y011490D02*
X000777Y011490D01*
X000777Y011589D02*
X008170Y011589D01*
X008170Y011687D02*
X000777Y011687D01*
X000777Y011786D02*
X008170Y011786D01*
X008170Y011884D02*
X000777Y011884D01*
X000777Y011983D02*
X008170Y011983D01*
X008170Y012081D02*
X000777Y012081D01*
X000777Y012180D02*
X008176Y012180D01*
X008207Y012278D02*
X000777Y012278D01*
X000777Y010997D02*
X009415Y010997D01*
X009746Y010997D02*
X010415Y010997D01*
X010211Y011096D02*
X009950Y011096D01*
X010048Y011194D02*
X010112Y011194D01*
X010746Y010997D02*
X011415Y010997D01*
X011211Y011096D02*
X010950Y011096D01*
X011048Y011194D02*
X011112Y011194D01*
X011746Y010997D02*
X012415Y010997D01*
X012211Y011096D02*
X011950Y011096D01*
X012048Y011194D02*
X012112Y011194D01*
X012746Y010997D02*
X013415Y010997D01*
X013211Y011096D02*
X012950Y011096D01*
X013048Y011194D02*
X013112Y011194D01*
X013746Y010997D02*
X014415Y010997D01*
X014211Y011096D02*
X013950Y011096D01*
X014048Y011194D02*
X014112Y011194D01*
X014746Y010997D02*
X016746Y010997D01*
X016753Y011022D02*
X016731Y010954D01*
X016723Y010899D01*
X000777Y010899D01*
X000777Y010800D02*
X017420Y010800D01*
X017420Y010899D02*
X016723Y010899D01*
X016753Y011022D02*
X016786Y011085D01*
X016827Y011142D01*
X016877Y011192D01*
X016935Y011234D01*
X016998Y011266D01*
X017065Y011288D01*
X017135Y011299D01*
X017420Y011299D01*
X017420Y010899D01*
X017420Y010997D02*
X017520Y010997D01*
X017520Y011096D02*
X017420Y011096D01*
X017420Y011194D02*
X017520Y011194D01*
X017520Y011293D02*
X017420Y011293D01*
X017098Y011293D02*
X015118Y011293D01*
X015048Y011194D02*
X016881Y011194D01*
X016794Y011096D02*
X014950Y011096D01*
X016117Y010012D02*
X005586Y010012D01*
X005586Y010110D02*
X016215Y010110D01*
X016314Y010209D02*
X005586Y010209D01*
X005586Y010308D02*
X016412Y010308D01*
X016511Y010406D02*
X005586Y010406D01*
X005497Y010505D02*
X016680Y010505D01*
X016793Y010603D02*
X005398Y010603D01*
X005300Y010702D02*
X016745Y010702D01*
X016882Y010090D02*
X016902Y010071D01*
X016843Y010012D01*
X017945Y010012D01*
X017984Y010090D02*
X016921Y010090D01*
X016902Y010071D01*
X016882Y010090D02*
X017000Y010090D01*
X016764Y009854D01*
X016764Y009736D01*
X016843Y009657D01*
X016843Y009697D01*
X016882Y009657D01*
X016882Y009460D01*
X016213Y008791D01*
X015780Y008516D02*
X015780Y007886D01*
X015268Y008397D01*
X015268Y008358D02*
X015268Y008476D01*
X016882Y010090D01*
X017000Y010090D02*
X017276Y010090D01*
X017521Y009899D02*
X017940Y009899D01*
X017984Y009854D01*
X017984Y009799D01*
X017666Y009799D01*
X017521Y009863D01*
X017521Y009899D01*
X017630Y009815D02*
X017984Y009815D01*
X017866Y009815D02*
X017866Y009775D01*
X018024Y009618D01*
X018024Y010051D01*
X017984Y010090D01*
X017866Y009815D02*
X017787Y009736D01*
X017709Y009736D01*
X017709Y009775D01*
X017827Y009775D01*
X017906Y009697D01*
X017906Y009500D01*
X016134Y007728D01*
X016134Y007689D01*
X016173Y007846D02*
X015898Y008122D01*
X015661Y008122D01*
X015465Y008319D01*
X015425Y008319D01*
X015465Y008279D01*
X015504Y008279D01*
X015307Y008397D02*
X015819Y007886D01*
X015937Y007689D02*
X015268Y008358D01*
X014999Y007943D02*
X005586Y007943D01*
X005586Y008041D02*
X008309Y008041D01*
X008167Y008140D02*
X005586Y008140D01*
X005586Y008238D02*
X008069Y008238D01*
X008025Y008337D02*
X005586Y008337D01*
X005566Y008435D02*
X007984Y008435D01*
X007970Y008534D02*
X005468Y008534D01*
X005369Y008632D02*
X007970Y008632D01*
X007970Y008731D02*
X005423Y008731D01*
X005522Y008829D02*
X007970Y008829D01*
X007970Y008928D02*
X005586Y008928D01*
X005586Y009026D02*
X007970Y009026D01*
X007970Y009125D02*
X005586Y009125D01*
X005586Y009224D02*
X007970Y009224D01*
X008008Y009322D02*
X005586Y009322D01*
X005581Y009421D02*
X008049Y009421D01*
X008128Y009519D02*
X005482Y009519D01*
X005384Y009618D02*
X008226Y009618D01*
X008453Y009716D02*
X005409Y009716D01*
X005507Y009815D02*
X015920Y009815D01*
X015890Y009786D02*
X015890Y009786D01*
X016018Y009913D02*
X005586Y009913D01*
X004528Y009618D02*
X000777Y009618D01*
X000777Y009716D02*
X003734Y009716D01*
X003640Y009815D02*
X000777Y009815D01*
X000777Y009913D02*
X003589Y009913D01*
X003526Y010012D02*
X000777Y010012D01*
X000777Y010110D02*
X003526Y010110D01*
X003526Y010209D02*
X000777Y010209D01*
X000777Y010308D02*
X003526Y010308D01*
X003599Y010406D02*
X000777Y010406D01*
X000777Y010505D02*
X003698Y010505D01*
X003916Y010505D02*
X003996Y010505D01*
X004514Y010603D02*
X000777Y010603D01*
X000777Y010702D02*
X004612Y010702D01*
X004504Y009716D02*
X004439Y009716D01*
X004430Y009519D02*
X004200Y009519D01*
X004298Y009421D02*
X004331Y009421D01*
X003996Y009421D02*
X003916Y009421D01*
X003916Y009519D02*
X003996Y009519D01*
X003996Y009322D02*
X003916Y009322D01*
X003916Y009224D02*
X003996Y009224D01*
X003916Y009125D02*
X000777Y009125D01*
X000777Y009026D02*
X003526Y009026D01*
X003575Y008928D02*
X000777Y008928D01*
X000777Y008829D02*
X003673Y008829D01*
X003772Y008731D02*
X000777Y008731D01*
X000777Y008632D02*
X004543Y008632D01*
X004489Y008731D02*
X004140Y008731D01*
X004239Y008829D02*
X004390Y008829D01*
X004444Y008534D02*
X004185Y008534D01*
X004284Y008435D02*
X004346Y008435D01*
X003996Y008435D02*
X003916Y008435D01*
X003916Y008337D02*
X003996Y008337D01*
X003996Y008238D02*
X003916Y008238D01*
X003916Y008140D02*
X000777Y008140D01*
X000777Y008238D02*
X003526Y008238D01*
X003530Y008337D02*
X000777Y008337D01*
X000777Y008435D02*
X003629Y008435D01*
X003727Y008534D02*
X000777Y008534D01*
X000777Y008041D02*
X003526Y008041D01*
X003560Y007943D02*
X000777Y007943D01*
X000777Y007844D02*
X003659Y007844D01*
X003757Y007745D02*
X000777Y007745D01*
X000777Y007647D02*
X004557Y007647D01*
X004474Y007745D02*
X004155Y007745D01*
X004253Y007844D02*
X004376Y007844D01*
X004459Y007548D02*
X004170Y007548D01*
X004269Y007450D02*
X004360Y007450D01*
X003996Y007450D02*
X003916Y007450D01*
X003916Y007548D02*
X003996Y007548D01*
X003996Y007351D02*
X003916Y007351D01*
X003916Y007253D02*
X003996Y007253D01*
X003916Y007154D02*
X000777Y007154D01*
X000777Y007056D02*
X003526Y007056D01*
X003546Y006957D02*
X000777Y006957D01*
X000777Y006859D02*
X003644Y006859D01*
X003743Y006760D02*
X000777Y006760D01*
X000777Y006661D02*
X004558Y006661D01*
X004473Y006563D02*
X004156Y006563D01*
X004254Y006464D02*
X004375Y006464D01*
X004460Y006760D02*
X004169Y006760D01*
X004268Y006859D02*
X004361Y006859D01*
X003996Y006859D02*
X003916Y006859D01*
X003916Y006957D02*
X003996Y006957D01*
X003996Y007056D02*
X003916Y007056D01*
X003916Y006760D02*
X003996Y006760D01*
X003996Y006563D02*
X003916Y006563D01*
X003916Y006464D02*
X003996Y006464D01*
X003996Y006366D02*
X003916Y006366D01*
X003916Y006267D02*
X003996Y006267D01*
X003916Y006169D02*
X000777Y006169D01*
X000777Y006267D02*
X003526Y006267D01*
X003559Y006366D02*
X000777Y006366D01*
X000777Y006464D02*
X003658Y006464D01*
X003756Y006563D02*
X000777Y006563D01*
X000777Y006070D02*
X003526Y006070D01*
X003531Y005972D02*
X000777Y005972D01*
X000777Y005873D02*
X003630Y005873D01*
X003728Y005775D02*
X000777Y005775D01*
X000777Y005676D02*
X004544Y005676D01*
X004445Y005775D02*
X004184Y005775D01*
X004283Y005873D02*
X004347Y005873D01*
X003996Y005873D02*
X003916Y005873D01*
X003916Y005775D02*
X003996Y005775D01*
X003996Y005972D02*
X003916Y005972D01*
X003916Y006070D02*
X003996Y006070D01*
X003771Y005577D02*
X000777Y005577D01*
X000777Y005479D02*
X003672Y005479D01*
X003574Y005380D02*
X000777Y005380D01*
X000777Y005282D02*
X003526Y005282D01*
X003916Y005085D02*
X003996Y005085D01*
X003996Y004986D02*
X003916Y004986D01*
X003916Y004888D02*
X003996Y004888D01*
X003996Y004789D02*
X003916Y004789D01*
X004199Y004789D02*
X004431Y004789D01*
X004332Y004888D02*
X004297Y004888D01*
X004225Y004494D02*
X004415Y004494D01*
X004374Y004395D02*
X004324Y004395D01*
X003996Y004395D02*
X003916Y004395D01*
X003916Y004494D02*
X003996Y004494D01*
X003996Y004296D02*
X003916Y004296D01*
X003916Y004198D02*
X003996Y004198D01*
X003996Y004099D02*
X003916Y004099D01*
X003916Y004001D02*
X003996Y004001D01*
X003996Y003902D02*
X003916Y003902D01*
X003916Y003804D02*
X003996Y003804D01*
X004956Y004155D02*
X004965Y004146D01*
X004389Y005479D02*
X004240Y005479D01*
X005368Y005676D02*
X005700Y005676D01*
X005799Y005775D02*
X005467Y005775D01*
X005565Y005873D02*
X005898Y005873D01*
X005996Y005972D02*
X005586Y005972D01*
X005586Y006070D02*
X006095Y006070D01*
X006193Y006169D02*
X005586Y006169D01*
X005586Y006267D02*
X006292Y006267D01*
X006390Y006366D02*
X005586Y006366D01*
X005537Y006464D02*
X006588Y006464D01*
X007485Y006760D02*
X005452Y006760D01*
X005354Y006661D02*
X007510Y006661D01*
X007566Y006563D02*
X005439Y006563D01*
X005551Y006859D02*
X007482Y006859D01*
X007482Y006957D02*
X005586Y006957D01*
X005586Y007056D02*
X007861Y007056D01*
X007862Y007042D02*
X007862Y006466D01*
X007922Y006466D01*
X007922Y007042D01*
X007922Y007102D01*
X008282Y007102D01*
X008282Y007042D01*
X007922Y007042D01*
X007862Y007042D01*
X007922Y007056D02*
X008282Y007056D01*
X008181Y006862D02*
X007971Y007072D01*
X007922Y007154D02*
X007862Y007154D01*
X007862Y007253D02*
X007922Y007253D01*
X007922Y007351D02*
X007862Y007351D01*
X007862Y007450D02*
X007922Y007450D01*
X007922Y007548D02*
X007862Y007548D01*
X007862Y007647D02*
X007922Y007647D01*
X008063Y007649D02*
X008220Y007492D01*
X008299Y007492D01*
X008220Y007413D01*
X008181Y007413D01*
X008220Y007413D02*
X008220Y007334D01*
X008241Y007548D02*
X008321Y007548D01*
X008362Y007647D02*
X008156Y007647D01*
X008442Y007745D02*
X005438Y007745D01*
X005355Y007647D02*
X007627Y007647D01*
X007542Y007548D02*
X005453Y007548D01*
X005552Y007450D02*
X007499Y007450D01*
X007482Y007351D02*
X005586Y007351D01*
X005586Y007253D02*
X007482Y007253D01*
X007482Y007154D02*
X005586Y007154D01*
X005536Y007844D02*
X008541Y007844D01*
X008851Y008041D02*
X009309Y008041D01*
X009167Y008140D02*
X008994Y008140D01*
X009243Y007844D02*
X009541Y007844D01*
X009442Y007745D02*
X009341Y007745D01*
X009851Y008041D02*
X010309Y008041D01*
X010167Y008140D02*
X009994Y008140D01*
X010243Y007844D02*
X010541Y007844D01*
X010442Y007745D02*
X010341Y007745D01*
X010851Y008041D02*
X011309Y008041D01*
X011167Y008140D02*
X010994Y008140D01*
X011243Y007844D02*
X011541Y007844D01*
X011442Y007745D02*
X011341Y007745D01*
X011851Y008041D02*
X012309Y008041D01*
X012167Y008140D02*
X011994Y008140D01*
X012243Y007844D02*
X012541Y007844D01*
X012442Y007745D02*
X012341Y007745D01*
X012851Y008041D02*
X013309Y008041D01*
X013167Y008140D02*
X012994Y008140D01*
X013243Y007844D02*
X013541Y007844D01*
X013442Y007745D02*
X013341Y007745D01*
X013851Y008041D02*
X014268Y008041D01*
X014167Y008140D02*
X013994Y008140D01*
X014243Y007844D02*
X014541Y007844D01*
X014442Y007745D02*
X014341Y007745D01*
X014539Y008968D02*
X014402Y009106D01*
X014402Y009303D01*
X014260Y009716D02*
X013708Y009716D01*
X013934Y009618D02*
X014148Y009618D01*
X014049Y009519D02*
X014033Y009519D01*
X013453Y009716D02*
X012708Y009716D01*
X012934Y009618D02*
X013226Y009618D01*
X013128Y009519D02*
X013033Y009519D01*
X012453Y009716D02*
X011708Y009716D01*
X011934Y009618D02*
X012226Y009618D01*
X012128Y009519D02*
X012033Y009519D01*
X011453Y009716D02*
X010708Y009716D01*
X010934Y009618D02*
X011226Y009618D01*
X011128Y009519D02*
X011033Y009519D01*
X010453Y009716D02*
X009708Y009716D01*
X009934Y009618D02*
X010226Y009618D01*
X010128Y009519D02*
X010033Y009519D01*
X009453Y009716D02*
X008708Y009716D01*
X008934Y009618D02*
X009226Y009618D01*
X009128Y009519D02*
X009033Y009519D01*
X008990Y012278D02*
X008954Y012278D01*
X008892Y012377D02*
X009031Y012377D01*
X008397Y012476D02*
X004865Y012476D01*
X004694Y012377D02*
X008268Y012377D01*
X008417Y015826D02*
X004822Y015826D01*
X004887Y015727D02*
X012090Y015727D01*
X012050Y015826D02*
X011889Y015826D01*
X012149Y015629D02*
X004929Y015629D01*
X004713Y015925D02*
X008254Y015925D01*
X008155Y016023D02*
X004478Y016023D01*
X003975Y016023D02*
X003918Y016023D01*
X003918Y015925D02*
X003975Y015925D01*
X003975Y015826D02*
X003918Y015826D01*
X003918Y015727D02*
X003975Y015727D01*
X003975Y015629D02*
X003918Y015629D01*
X003918Y015530D02*
X003975Y015530D01*
X003975Y015333D02*
X003918Y015333D01*
X003918Y015235D02*
X003975Y015235D01*
X003975Y015136D02*
X003918Y015136D01*
X003918Y015038D02*
X003975Y015038D01*
X003975Y014939D02*
X003918Y014939D01*
X003245Y014939D02*
X002586Y014939D01*
X002529Y015038D02*
X003111Y015038D01*
X003029Y015136D02*
X002442Y015136D01*
X002286Y015235D02*
X002977Y015235D01*
X002948Y015333D02*
X000777Y015333D01*
X000777Y019374D02*
X000809Y019374D01*
X007843Y019176D02*
X009044Y019176D01*
X009085Y019078D02*
X007900Y019078D01*
X007973Y018979D02*
X009159Y018979D01*
X009102Y019036D02*
X009285Y018853D01*
X009524Y018754D01*
X009783Y018754D01*
X010022Y018853D01*
X010153Y018985D01*
X010285Y018853D01*
X010524Y018754D01*
X010783Y018754D01*
X011022Y018853D01*
X011204Y019036D01*
X011303Y019275D01*
X011263Y019176D02*
X012171Y019176D01*
X012212Y019078D02*
X011222Y019078D01*
X011148Y018979D02*
X012285Y018979D01*
X012384Y018881D02*
X011050Y018881D01*
X010851Y018782D02*
X012582Y018782D01*
X012979Y018782D02*
X013582Y018782D01*
X013384Y018881D02*
X013177Y018881D01*
X013275Y018979D02*
X013285Y018979D01*
X013698Y018388D02*
X007996Y018388D01*
X008036Y018487D02*
X013902Y018487D01*
X013600Y018290D02*
X007955Y018290D01*
X007857Y018191D02*
X013501Y018191D01*
X013402Y018092D02*
X007741Y018092D01*
X008053Y018585D02*
X015467Y018585D01*
X015442Y018684D02*
X008053Y018684D01*
X008053Y018782D02*
X009456Y018782D01*
X009257Y018881D02*
X008013Y018881D01*
X007941Y019275D02*
X009003Y019275D01*
X009102Y019036D01*
X009003Y019275D02*
X009003Y020133D01*
X009003Y019965D02*
X007979Y019965D01*
X008019Y019866D02*
X009003Y019866D01*
X009003Y019768D02*
X008053Y019768D01*
X008053Y019669D02*
X009003Y019669D01*
X009003Y019571D02*
X008053Y019571D01*
X008030Y019472D02*
X009003Y019472D01*
X009003Y019374D02*
X007990Y019374D01*
X009851Y018782D02*
X010456Y018782D01*
X010257Y018881D02*
X010050Y018881D01*
X010148Y018979D02*
X010159Y018979D01*
X010150Y016023D02*
X010155Y016023D01*
X010254Y015925D02*
X010051Y015925D01*
X009889Y015826D02*
X010417Y015826D01*
X010889Y015826D02*
X011417Y015826D01*
X011254Y015925D02*
X011051Y015925D01*
X011150Y016023D02*
X011155Y016023D01*
X009417Y015826D02*
X008889Y015826D01*
X009051Y015925D02*
X009254Y015925D01*
X009155Y016023D02*
X009150Y016023D01*
X013076Y014348D02*
X013229Y014348D01*
X016843Y009854D02*
X016843Y009697D01*
X017521Y010800D02*
X019565Y010800D01*
X019565Y007745D02*
X018506Y007745D01*
X018642Y007647D02*
X019565Y007647D01*
X019565Y007548D02*
X018741Y007548D01*
X018789Y007450D02*
X019565Y007450D01*
X019565Y007351D02*
X018830Y007351D01*
X018852Y007253D02*
X019565Y007253D01*
X019565Y007154D02*
X018852Y007154D01*
X018852Y007056D02*
X019565Y007056D01*
X019565Y006957D02*
X018852Y006957D01*
X018852Y006859D02*
X019565Y006859D01*
X019565Y006760D02*
X018852Y006760D01*
X018852Y006661D02*
X019565Y006661D01*
X019565Y006563D02*
X018852Y006563D01*
X018852Y006464D02*
X019565Y006464D01*
X019565Y006366D02*
X018822Y006366D01*
X018781Y006267D02*
X019565Y006267D01*
X019565Y006169D02*
X018723Y006169D01*
X018624Y006070D02*
X019565Y006070D01*
X019565Y005972D02*
X018462Y005972D01*
X018533Y005479D02*
X019565Y005479D01*
X019565Y005577D02*
X016166Y005577D01*
X016265Y005676D02*
X019565Y005676D01*
X019565Y005775D02*
X016363Y005775D01*
X016450Y005873D02*
X019565Y005873D01*
X019565Y005380D02*
X018659Y005380D01*
X018757Y005282D02*
X019565Y005282D01*
X019565Y005183D02*
X018801Y005183D01*
X018842Y005085D02*
X019565Y005085D01*
X019565Y004986D02*
X018862Y004986D01*
X018862Y004888D02*
X019565Y004888D01*
X019565Y004789D02*
X018862Y004789D01*
X018862Y004691D02*
X019565Y004691D01*
X019565Y004592D02*
X018862Y004592D01*
X018862Y004494D02*
X019565Y004494D01*
X019565Y004395D02*
X018862Y004395D01*
X018862Y004296D02*
X019565Y004296D01*
X019565Y004198D02*
X018862Y004198D01*
X018829Y004099D02*
X019565Y004099D01*
X019565Y004001D02*
X018788Y004001D01*
X018725Y003902D02*
X019565Y003902D01*
X019565Y003804D02*
X018626Y003804D01*
X018454Y003705D02*
X019565Y003705D01*
X019565Y003015D02*
X000777Y003015D01*
X000777Y002917D02*
X019565Y002917D01*
X019565Y002818D02*
X000777Y002818D01*
X000777Y002720D02*
X006711Y002720D01*
X006800Y002757D02*
X006562Y002658D01*
X006379Y002475D01*
X006280Y002236D01*
X006280Y001378D01*
X006379Y001139D01*
X006562Y000956D01*
X006800Y000857D01*
X007059Y000857D01*
X007298Y000956D01*
X007430Y001088D01*
X007562Y000956D01*
X007800Y000857D01*
X008059Y000857D01*
X008298Y000956D01*
X008481Y001139D01*
X008580Y001378D01*
X008580Y002236D01*
X008481Y002475D01*
X008298Y002658D01*
X008059Y002757D01*
X007800Y002757D01*
X007562Y002658D01*
X007430Y002526D01*
X007298Y002658D01*
X007059Y002757D01*
X006800Y002757D01*
X006525Y002621D02*
X000777Y002621D01*
X000777Y002523D02*
X006426Y002523D01*
X006358Y002424D02*
X000777Y002424D01*
X000777Y002326D02*
X006317Y002326D01*
X006280Y002227D02*
X000777Y002227D01*
X000777Y002128D02*
X000787Y002128D01*
X001560Y002128D02*
X006280Y002128D01*
X006280Y002030D02*
X001747Y002030D01*
X001883Y001931D02*
X006280Y001931D01*
X006280Y001833D02*
X001982Y001833D01*
X002062Y001734D02*
X006280Y001734D01*
X006280Y001636D02*
X002119Y001636D01*
X002176Y001537D02*
X006280Y001537D01*
X006280Y001439D02*
X002204Y001439D01*
X002231Y001340D02*
X006295Y001340D01*
X006336Y001242D02*
X002253Y001242D01*
X002253Y001143D02*
X006377Y001143D01*
X006473Y001044D02*
X002253Y001044D01*
X002246Y000946D02*
X006585Y000946D01*
X007274Y000946D02*
X007585Y000946D01*
X007473Y001044D02*
X007387Y001044D01*
X008274Y000946D02*
X009667Y000946D01*
X009643Y000956D02*
X009882Y000857D01*
X010140Y000857D01*
X010379Y000956D01*
X010511Y001088D01*
X010643Y000956D01*
X010882Y000857D01*
X011140Y000857D01*
X011379Y000956D01*
X011562Y001139D01*
X011661Y001378D01*
X011661Y002236D01*
X011562Y002475D01*
X011379Y002658D01*
X011140Y002757D01*
X010882Y002757D01*
X010643Y002658D01*
X010511Y002526D01*
X010379Y002658D01*
X010140Y002757D01*
X009882Y002757D01*
X009643Y002658D01*
X009460Y002475D01*
X009361Y002236D01*
X009361Y001378D01*
X009460Y001139D01*
X009643Y000956D01*
X009555Y001044D02*
X008387Y001044D01*
X008483Y001143D02*
X009458Y001143D01*
X009418Y001242D02*
X008523Y001242D01*
X008564Y001340D02*
X009377Y001340D01*
X009361Y001439D02*
X008580Y001439D01*
X008580Y001537D02*
X009361Y001537D01*
X009361Y001636D02*
X008580Y001636D01*
X008580Y001734D02*
X009361Y001734D01*
X009361Y001833D02*
X008580Y001833D01*
X008580Y001931D02*
X009361Y001931D01*
X009361Y002030D02*
X008580Y002030D01*
X008580Y002128D02*
X009361Y002128D01*
X009361Y002227D02*
X008580Y002227D01*
X008543Y002326D02*
X009398Y002326D01*
X009439Y002424D02*
X008502Y002424D01*
X008433Y002523D02*
X009507Y002523D01*
X009606Y002621D02*
X008335Y002621D01*
X008149Y002720D02*
X009792Y002720D01*
X010231Y002720D02*
X010792Y002720D01*
X010606Y002621D02*
X010416Y002621D01*
X010746Y003212D02*
X010037Y003212D01*
X010253Y003311D02*
X010530Y003311D01*
X010432Y003410D02*
X010351Y003410D01*
X009746Y003212D02*
X009037Y003212D01*
X009253Y003311D02*
X009530Y003311D01*
X009432Y003410D02*
X009351Y003410D01*
X008746Y003212D02*
X008037Y003212D01*
X008253Y003311D02*
X008530Y003311D01*
X008432Y003410D02*
X008351Y003410D01*
X007711Y002720D02*
X007149Y002720D01*
X007335Y002621D02*
X007525Y002621D01*
X010355Y000946D02*
X010667Y000946D01*
X010555Y001044D02*
X010468Y001044D01*
X011355Y000946D02*
X012769Y000946D01*
X012736Y000960D02*
X012975Y000861D01*
X013233Y000861D01*
X013472Y000960D01*
X013604Y001091D01*
X013736Y000960D01*
X013975Y000861D01*
X014233Y000861D01*
X014472Y000960D01*
X014655Y001142D01*
X014754Y001381D01*
X014754Y002240D01*
X014655Y002479D01*
X014472Y002662D01*
X014233Y002761D01*
X013975Y002761D01*
X013736Y002662D01*
X013604Y002530D01*
X013472Y002662D01*
X013233Y002761D01*
X012975Y002761D01*
X012736Y002662D01*
X012553Y002479D01*
X012454Y002240D01*
X012454Y001381D01*
X012553Y001142D01*
X012736Y000960D01*
X012651Y001044D02*
X011468Y001044D01*
X011564Y001143D02*
X012553Y001143D01*
X012512Y001242D02*
X011605Y001242D01*
X011646Y001340D02*
X012471Y001340D01*
X012454Y001439D02*
X011661Y001439D01*
X011661Y001537D02*
X012454Y001537D01*
X012454Y001636D02*
X011661Y001636D01*
X011661Y001734D02*
X012454Y001734D01*
X012454Y001833D02*
X011661Y001833D01*
X011661Y001931D02*
X012454Y001931D01*
X012454Y002030D02*
X011661Y002030D01*
X011661Y002128D02*
X012454Y002128D01*
X012454Y002227D02*
X011661Y002227D01*
X011624Y002326D02*
X012490Y002326D01*
X012530Y002424D02*
X011583Y002424D01*
X011515Y002523D02*
X012597Y002523D01*
X012695Y002621D02*
X011416Y002621D01*
X011231Y002720D02*
X012876Y002720D01*
X013332Y002720D02*
X013876Y002720D01*
X013695Y002621D02*
X013513Y002621D01*
X013746Y003212D02*
X013037Y003212D01*
X013253Y003311D02*
X013530Y003311D01*
X013432Y003410D02*
X013351Y003410D01*
X012746Y003212D02*
X012037Y003212D01*
X012253Y003311D02*
X012530Y003311D01*
X012432Y003410D02*
X012351Y003410D01*
X011746Y003212D02*
X011037Y003212D01*
X011253Y003311D02*
X011530Y003311D01*
X011432Y003410D02*
X011351Y003410D01*
X013439Y000946D02*
X013769Y000946D01*
X013651Y001044D02*
X013557Y001044D01*
X014439Y000946D02*
X016073Y000946D01*
X016178Y000903D02*
X016436Y000903D01*
X016675Y001002D01*
X016807Y001133D01*
X016939Y001002D01*
X017178Y000903D01*
X017436Y000903D01*
X017675Y001002D01*
X017858Y001184D01*
X017957Y001423D01*
X017957Y002282D01*
X017858Y002521D01*
X017675Y002704D01*
X017436Y002803D01*
X017178Y002803D01*
X016939Y002704D01*
X016807Y002572D01*
X016675Y002704D01*
X016436Y002803D01*
X016178Y002803D01*
X015939Y002704D01*
X015756Y002521D01*
X015657Y002282D01*
X015657Y001423D01*
X015756Y001184D01*
X015939Y001002D01*
X016178Y000903D01*
X015896Y001044D02*
X014557Y001044D01*
X014655Y001143D02*
X015798Y001143D01*
X015732Y001242D02*
X014696Y001242D01*
X014737Y001340D02*
X015692Y001340D01*
X015657Y001439D02*
X014754Y001439D01*
X014754Y001537D02*
X015657Y001537D01*
X015657Y001636D02*
X014754Y001636D01*
X014754Y001734D02*
X015657Y001734D01*
X015657Y001833D02*
X014754Y001833D01*
X014754Y001931D02*
X015657Y001931D01*
X015657Y002030D02*
X014754Y002030D01*
X014754Y002128D02*
X015657Y002128D01*
X015657Y002227D02*
X014754Y002227D01*
X014719Y002326D02*
X015675Y002326D01*
X015716Y002424D02*
X014678Y002424D01*
X014611Y002523D02*
X015758Y002523D01*
X015856Y002621D02*
X014513Y002621D01*
X014332Y002720D02*
X015978Y002720D01*
X016637Y002720D02*
X016978Y002720D01*
X016856Y002621D02*
X016758Y002621D01*
X017637Y002720D02*
X019565Y002720D01*
X019565Y002621D02*
X017758Y002621D01*
X017856Y002523D02*
X019565Y002523D01*
X019565Y002424D02*
X017898Y002424D01*
X017939Y002326D02*
X019565Y002326D01*
X019565Y002227D02*
X017957Y002227D01*
X017957Y002128D02*
X018740Y002128D01*
X018553Y002030D02*
X017957Y002030D01*
X017957Y001931D02*
X018416Y001931D01*
X018318Y001833D02*
X017957Y001833D01*
X017957Y001734D02*
X018237Y001734D01*
X018180Y001636D02*
X017957Y001636D01*
X017957Y001537D02*
X018123Y001537D01*
X018095Y001439D02*
X017957Y001439D01*
X017923Y001340D02*
X018069Y001340D01*
X018046Y001242D02*
X017882Y001242D01*
X017817Y001143D02*
X018046Y001143D01*
X018046Y001044D02*
X017718Y001044D01*
X017541Y000946D02*
X018053Y000946D01*
X018079Y000847D02*
X002220Y000847D01*
X002193Y000749D02*
X018106Y000749D01*
X017073Y000946D02*
X016541Y000946D01*
X016718Y001044D02*
X016896Y001044D01*
X014746Y003212D02*
X014037Y003212D01*
X014253Y003311D02*
X014530Y003311D01*
X014432Y003410D02*
X014351Y003410D01*
X017454Y003705D02*
X017969Y003705D01*
X017797Y003804D02*
X017626Y003804D01*
X017659Y005380D02*
X017765Y005380D01*
X017891Y005479D02*
X017533Y005479D01*
X017462Y005972D02*
X017942Y005972D01*
X017780Y006070D02*
X017624Y006070D01*
X017642Y007647D02*
X017762Y007647D01*
X017899Y007745D02*
X017506Y007745D01*
X015937Y007689D02*
X015937Y007571D01*
X014539Y008968D01*
X019512Y002128D02*
X019565Y002128D01*
X007922Y006563D02*
X007862Y006563D01*
X007862Y006661D02*
X007922Y006661D01*
X007922Y006760D02*
X007862Y006760D01*
X007862Y006859D02*
X007922Y006859D01*
X007922Y006957D02*
X007862Y006957D01*
X003996Y007745D02*
X003916Y007745D01*
X003916Y007844D02*
X003996Y007844D01*
X003996Y007943D02*
X003916Y007943D01*
X003916Y008041D02*
X003996Y008041D01*
X003996Y008534D02*
X003916Y008534D01*
X003916Y008731D02*
X003996Y008731D01*
X003996Y008829D02*
X003916Y008829D01*
X003916Y008928D02*
X003996Y008928D01*
X003996Y009026D02*
X003916Y009026D01*
X003526Y009224D02*
X000777Y009224D01*
X000777Y009322D02*
X003526Y009322D01*
X003614Y009421D02*
X000777Y009421D01*
X000777Y009519D02*
X003713Y009519D01*
X003742Y007548D02*
X000777Y007548D01*
X000777Y007450D02*
X003643Y007450D01*
X003545Y007351D02*
X000777Y007351D01*
X000777Y007253D02*
X003526Y007253D01*
X013979Y018782D02*
X015442Y018782D01*
X015442Y018881D02*
X014177Y018881D01*
X014275Y018979D02*
X015474Y018979D01*
X015515Y019078D02*
X014349Y019078D01*
X014390Y019176D02*
X015576Y019176D01*
X015672Y019275D02*
X014430Y019275D01*
X014430Y019374D02*
X015574Y019374D01*
X015514Y019472D02*
X014430Y019472D01*
X014430Y019571D02*
X015473Y019571D01*
X015442Y019669D02*
X014430Y019669D01*
X014430Y019768D02*
X015442Y019768D01*
X015442Y019866D02*
X014430Y019866D01*
X014430Y019965D02*
X015468Y019965D01*
X015509Y020063D02*
X014430Y020063D01*
X014418Y020162D02*
X015561Y020162D01*
X015660Y020260D02*
X014378Y020260D01*
X014337Y020359D02*
X015806Y020359D01*
X013416Y020556D02*
X013145Y020556D01*
X013246Y020458D02*
X013315Y020458D01*
D21*
X014079Y017878D02*
X016606Y017878D01*
X017996Y016488D01*
X017996Y016268D01*
X017975Y016247D01*
X016924Y014846D02*
X017977Y013793D01*
X016924Y014846D02*
X013823Y014846D01*
X012653Y016016D01*
X012653Y016648D01*
X013653Y016648D02*
X013653Y017452D01*
X014079Y017878D01*
D22*
X016409Y017964D02*
X017000Y017964D01*
X018102Y016862D01*
X018102Y016075D01*
X017945Y015917D01*
X017906Y015917D01*
X017827Y015996D01*
X017827Y016311D01*
X016409Y017728D01*
X016685Y014933D02*
X016567Y014815D01*
X016567Y014775D01*
X017787Y013555D01*
X017748Y013555D01*
X017709Y013594D01*
X017787Y013555D02*
X017787Y014185D01*
X017039Y014933D01*
X017039Y014421D01*
X018024Y013437D01*
X017984Y013437D01*
X017906Y013358D01*
X016764Y014854D02*
X016606Y014854D01*
X016685Y014933D02*
X016843Y014933D01*
X016764Y014854D01*
D23*
X016685Y009815D02*
X016646Y009775D01*
X016646Y009736D01*
X016764Y009618D01*
X016685Y009618D01*
X016606Y009697D01*
X016606Y009618D01*
X016685Y009539D01*
X016685Y009460D01*
X015858Y008634D01*
X015858Y008791D01*
X015780Y008870D01*
X015858Y008870D01*
X015937Y008791D01*
X015937Y008870D01*
X016409Y009342D01*
X016606Y009539D01*
X016606Y009579D01*
X016528Y009657D01*
X016528Y009618D01*
X016488Y009579D01*
X016488Y009500D01*
X015898Y008909D01*
X015858Y008909D01*
X015819Y008949D01*
X016449Y009579D01*
X016449Y009539D01*
X016094Y009185D01*
X015268Y009185D01*
X015150Y009303D01*
X015150Y009224D01*
X015268Y009106D01*
X015327Y008968D02*
X014539Y008968D01*
X015327Y008968D02*
X015780Y008516D01*
X015661Y008988D02*
X015622Y008988D01*
X015583Y009027D01*
X015661Y008988D02*
X015780Y009106D01*
X015819Y009106D01*
X015780Y009106D02*
X015465Y009106D01*
X016252Y009027D02*
X017039Y009815D01*
X016685Y009815D01*
X017354Y009342D02*
X016173Y008161D01*
X016173Y008004D01*
X016213Y007964D01*
X016213Y008083D01*
X016291Y008161D01*
X016331Y008161D01*
X017433Y009264D01*
X017472Y009264D01*
X017512Y009303D01*
X017512Y009264D01*
X016252Y008004D01*
X016252Y009027D01*
X017354Y009342D02*
X017669Y009342D01*
X016173Y007846D01*
D24*
X015933Y008312D02*
X015396Y008849D01*
X014580Y008849D01*
X015933Y008312D02*
X017470Y009849D01*
X015933Y008312D02*
X015933Y006193D01*
X014890Y005149D01*
X007024Y005149D01*
X006020Y004146D01*
X004965Y004146D01*
M02*
