%
M48
M72
T01C0.0315
T02C0.0320
T03C0.0360
T04C0.0394
T05C0.0400
T06C0.1260
%
T01
X2057Y14271
X3946Y15452
T02
X7892Y4072
X8892Y4072
X9892Y4072
X10892Y4072
X11892Y4072
X12892Y4072
X13892Y4072
X14892Y4072
X14892Y7072
X13892Y7072
X12892Y7072
X11892Y7072
X10892Y7072
X9892Y7072
X8892Y7072
X7892Y7072
X8580Y8849
X9580Y8849
X10580Y8849
X11580Y8849
X12580Y8849
X13580Y8849
X14580Y8849
X14580Y11849
X13580Y11849
X12580Y11849
X11580Y11849
X10580Y11849
X9580Y11849
X8580Y11849
X8653Y13648
X9653Y13648
X10653Y13648
X11653Y13648
X12653Y13648
X13653Y13648
X14653Y13648
X15653Y13648
X15653Y16648
X14653Y16648
X13653Y16648
X12653Y16648
X11653Y16648
X10653Y16648
X9653Y16648
X8653Y16648
T03
X3956Y4155
X3956Y5155
X3956Y6155
X3956Y7155
X3956Y8155
X3956Y9155
X3956Y10155
X4956Y10155
X4956Y9155
X4956Y8155
X4956Y7155
X4956Y6155
X4956Y5155
X4956Y4155
T04
X3946Y13090
T05
X6930Y1807
X7930Y1807
X10011Y1807
X11011Y1807
X13104Y1811
X14104Y1811
X16307Y1853
X17307Y1853
X18212Y4608
X17212Y4608
X17202Y6868
X18202Y6868
X17470Y9849
X17470Y10849
X17977Y13793
X18977Y13793
X18975Y16247
X17975Y16247
X16392Y18774
X16392Y19774
X13780Y19704
X12780Y19704
X10653Y19704
X9653Y19704
X7103Y19656
X7103Y18656
T06
X1173Y1114
X1143Y20402
X19115Y20353
X19126Y1114
M30
