G75*
G70*
%OFA0B0*%
%FSLAX24Y24*%
%IPPOS*%
%LPD*%
%AMOC8*
5,1,8,0,0,1.08239X$1,22.5*
%
%ADD10C,0.0160*%
%ADD11C,0.0000*%
%ADD12C,0.1340*%
%ADD13C,0.0040*%
%ADD14C,0.0030*%
%ADD15C,0.0680*%
%ADD16C,0.0640*%
%ADD17OC8,0.0640*%
%ADD18C,0.0940*%
%ADD19C,0.0600*%
D10*
X000247Y000184D02*
X000247Y021273D01*
X020095Y021273D01*
X020095Y000184D01*
X000247Y000184D01*
D11*
X000543Y001114D02*
X000545Y001164D01*
X000551Y001214D01*
X000561Y001263D01*
X000575Y001311D01*
X000592Y001358D01*
X000613Y001403D01*
X000638Y001447D01*
X000666Y001488D01*
X000698Y001527D01*
X000732Y001564D01*
X000769Y001598D01*
X000809Y001628D01*
X000851Y001655D01*
X000895Y001679D01*
X000941Y001700D01*
X000988Y001716D01*
X001036Y001729D01*
X001086Y001738D01*
X001135Y001743D01*
X001186Y001744D01*
X001236Y001741D01*
X001285Y001734D01*
X001334Y001723D01*
X001382Y001708D01*
X001428Y001690D01*
X001473Y001668D01*
X001516Y001642D01*
X001557Y001613D01*
X001596Y001581D01*
X001632Y001546D01*
X001664Y001508D01*
X001694Y001468D01*
X001721Y001425D01*
X001744Y001381D01*
X001763Y001335D01*
X001779Y001287D01*
X001791Y001238D01*
X001799Y001189D01*
X001803Y001139D01*
X001803Y001089D01*
X001799Y001039D01*
X001791Y000990D01*
X001779Y000941D01*
X001763Y000893D01*
X001744Y000847D01*
X001721Y000803D01*
X001694Y000760D01*
X001664Y000720D01*
X001632Y000682D01*
X001596Y000647D01*
X001557Y000615D01*
X001516Y000586D01*
X001473Y000560D01*
X001428Y000538D01*
X001382Y000520D01*
X001334Y000505D01*
X001285Y000494D01*
X001236Y000487D01*
X001186Y000484D01*
X001135Y000485D01*
X001086Y000490D01*
X001036Y000499D01*
X000988Y000512D01*
X000941Y000528D01*
X000895Y000549D01*
X000851Y000573D01*
X000809Y000600D01*
X000769Y000630D01*
X000732Y000664D01*
X000698Y000701D01*
X000666Y000740D01*
X000638Y000781D01*
X000613Y000825D01*
X000592Y000870D01*
X000575Y000917D01*
X000561Y000965D01*
X000551Y001014D01*
X000545Y001064D01*
X000543Y001114D01*
X000513Y020402D02*
X000515Y020452D01*
X000521Y020502D01*
X000531Y020551D01*
X000545Y020599D01*
X000562Y020646D01*
X000583Y020691D01*
X000608Y020735D01*
X000636Y020776D01*
X000668Y020815D01*
X000702Y020852D01*
X000739Y020886D01*
X000779Y020916D01*
X000821Y020943D01*
X000865Y020967D01*
X000911Y020988D01*
X000958Y021004D01*
X001006Y021017D01*
X001056Y021026D01*
X001105Y021031D01*
X001156Y021032D01*
X001206Y021029D01*
X001255Y021022D01*
X001304Y021011D01*
X001352Y020996D01*
X001398Y020978D01*
X001443Y020956D01*
X001486Y020930D01*
X001527Y020901D01*
X001566Y020869D01*
X001602Y020834D01*
X001634Y020796D01*
X001664Y020756D01*
X001691Y020713D01*
X001714Y020669D01*
X001733Y020623D01*
X001749Y020575D01*
X001761Y020526D01*
X001769Y020477D01*
X001773Y020427D01*
X001773Y020377D01*
X001769Y020327D01*
X001761Y020278D01*
X001749Y020229D01*
X001733Y020181D01*
X001714Y020135D01*
X001691Y020091D01*
X001664Y020048D01*
X001634Y020008D01*
X001602Y019970D01*
X001566Y019935D01*
X001527Y019903D01*
X001486Y019874D01*
X001443Y019848D01*
X001398Y019826D01*
X001352Y019808D01*
X001304Y019793D01*
X001255Y019782D01*
X001206Y019775D01*
X001156Y019772D01*
X001105Y019773D01*
X001056Y019778D01*
X001006Y019787D01*
X000958Y019800D01*
X000911Y019816D01*
X000865Y019837D01*
X000821Y019861D01*
X000779Y019888D01*
X000739Y019918D01*
X000702Y019952D01*
X000668Y019989D01*
X000636Y020028D01*
X000608Y020069D01*
X000583Y020113D01*
X000562Y020158D01*
X000545Y020205D01*
X000531Y020253D01*
X000521Y020302D01*
X000515Y020352D01*
X000513Y020402D01*
X018485Y020353D02*
X018487Y020403D01*
X018493Y020453D01*
X018503Y020502D01*
X018517Y020550D01*
X018534Y020597D01*
X018555Y020642D01*
X018580Y020686D01*
X018608Y020727D01*
X018640Y020766D01*
X018674Y020803D01*
X018711Y020837D01*
X018751Y020867D01*
X018793Y020894D01*
X018837Y020918D01*
X018883Y020939D01*
X018930Y020955D01*
X018978Y020968D01*
X019028Y020977D01*
X019077Y020982D01*
X019128Y020983D01*
X019178Y020980D01*
X019227Y020973D01*
X019276Y020962D01*
X019324Y020947D01*
X019370Y020929D01*
X019415Y020907D01*
X019458Y020881D01*
X019499Y020852D01*
X019538Y020820D01*
X019574Y020785D01*
X019606Y020747D01*
X019636Y020707D01*
X019663Y020664D01*
X019686Y020620D01*
X019705Y020574D01*
X019721Y020526D01*
X019733Y020477D01*
X019741Y020428D01*
X019745Y020378D01*
X019745Y020328D01*
X019741Y020278D01*
X019733Y020229D01*
X019721Y020180D01*
X019705Y020132D01*
X019686Y020086D01*
X019663Y020042D01*
X019636Y019999D01*
X019606Y019959D01*
X019574Y019921D01*
X019538Y019886D01*
X019499Y019854D01*
X019458Y019825D01*
X019415Y019799D01*
X019370Y019777D01*
X019324Y019759D01*
X019276Y019744D01*
X019227Y019733D01*
X019178Y019726D01*
X019128Y019723D01*
X019077Y019724D01*
X019028Y019729D01*
X018978Y019738D01*
X018930Y019751D01*
X018883Y019767D01*
X018837Y019788D01*
X018793Y019812D01*
X018751Y019839D01*
X018711Y019869D01*
X018674Y019903D01*
X018640Y019940D01*
X018608Y019979D01*
X018580Y020020D01*
X018555Y020064D01*
X018534Y020109D01*
X018517Y020156D01*
X018503Y020204D01*
X018493Y020253D01*
X018487Y020303D01*
X018485Y020353D01*
X018496Y001114D02*
X018498Y001164D01*
X018504Y001214D01*
X018514Y001263D01*
X018528Y001311D01*
X018545Y001358D01*
X018566Y001403D01*
X018591Y001447D01*
X018619Y001488D01*
X018651Y001527D01*
X018685Y001564D01*
X018722Y001598D01*
X018762Y001628D01*
X018804Y001655D01*
X018848Y001679D01*
X018894Y001700D01*
X018941Y001716D01*
X018989Y001729D01*
X019039Y001738D01*
X019088Y001743D01*
X019139Y001744D01*
X019189Y001741D01*
X019238Y001734D01*
X019287Y001723D01*
X019335Y001708D01*
X019381Y001690D01*
X019426Y001668D01*
X019469Y001642D01*
X019510Y001613D01*
X019549Y001581D01*
X019585Y001546D01*
X019617Y001508D01*
X019647Y001468D01*
X019674Y001425D01*
X019697Y001381D01*
X019716Y001335D01*
X019732Y001287D01*
X019744Y001238D01*
X019752Y001189D01*
X019756Y001139D01*
X019756Y001089D01*
X019752Y001039D01*
X019744Y000990D01*
X019732Y000941D01*
X019716Y000893D01*
X019697Y000847D01*
X019674Y000803D01*
X019647Y000760D01*
X019617Y000720D01*
X019585Y000682D01*
X019549Y000647D01*
X019510Y000615D01*
X019469Y000586D01*
X019426Y000560D01*
X019381Y000538D01*
X019335Y000520D01*
X019287Y000505D01*
X019238Y000494D01*
X019189Y000487D01*
X019139Y000484D01*
X019088Y000485D01*
X019039Y000490D01*
X018989Y000499D01*
X018941Y000512D01*
X018894Y000528D01*
X018848Y000549D01*
X018804Y000573D01*
X018762Y000600D01*
X018722Y000630D01*
X018685Y000664D01*
X018651Y000701D01*
X018619Y000740D01*
X018591Y000781D01*
X018566Y000825D01*
X018545Y000870D01*
X018528Y000917D01*
X018514Y000965D01*
X018504Y001014D01*
X018498Y001064D01*
X018496Y001114D01*
D12*
X019126Y001114D03*
X019115Y020353D03*
X001143Y020402D03*
X001173Y001114D03*
D13*
X001381Y003969D02*
X001554Y004142D01*
X001381Y004316D01*
X001901Y004316D01*
X001901Y004484D02*
X001901Y004658D01*
X001901Y004571D02*
X001381Y004571D01*
X001381Y004484D02*
X001381Y004658D01*
X001381Y004828D02*
X001381Y005175D01*
X001381Y005001D02*
X001901Y005001D01*
X001381Y005859D02*
X001381Y006206D01*
X001381Y006375D02*
X001901Y006375D01*
X001901Y006722D01*
X001815Y006891D02*
X001901Y006977D01*
X001901Y007151D01*
X001815Y007237D01*
X001901Y007406D02*
X001381Y007406D01*
X001468Y007237D02*
X001381Y007151D01*
X001381Y006977D01*
X001468Y006891D01*
X001815Y006891D01*
X001641Y006548D02*
X001641Y006375D01*
X001901Y006033D02*
X001381Y006033D01*
X001381Y006375D02*
X001381Y006722D01*
X001641Y007406D02*
X001641Y007753D01*
X001381Y007753D02*
X001901Y007753D01*
X001901Y008611D02*
X001381Y008611D01*
X001381Y008784D02*
X001381Y008437D01*
X001381Y008953D02*
X001901Y008953D01*
X001901Y009300D01*
X001901Y009469D02*
X001554Y009469D01*
X001381Y009642D01*
X001554Y009816D01*
X001901Y009816D01*
X001901Y009984D02*
X001381Y009984D01*
X001554Y010158D01*
X001381Y010331D01*
X001901Y010331D01*
X001641Y009816D02*
X001641Y009469D01*
X001641Y009127D02*
X001641Y008953D01*
X001381Y008953D02*
X001381Y009300D01*
X001381Y003969D02*
X001901Y003969D01*
X000755Y017220D02*
X000647Y017220D01*
X000592Y017274D01*
X000592Y017491D01*
X000538Y017546D01*
X000429Y017546D01*
X000429Y017437D01*
X000484Y017383D01*
X000918Y017383D01*
X000809Y017491D02*
X000809Y017274D01*
X000755Y017220D01*
X001298Y017871D02*
X001406Y017871D01*
X001406Y017980D01*
X001515Y017980D01*
X001515Y018088D01*
X001352Y018251D01*
X001515Y018305D02*
X001515Y018414D01*
X001623Y018522D01*
X001732Y018522D01*
X001786Y018468D01*
X001569Y018251D01*
X001623Y018197D02*
X001515Y018305D01*
X001623Y018197D02*
X001732Y018197D01*
X001840Y018305D01*
X002328Y018793D02*
X002491Y018956D01*
X002491Y019065D01*
X002383Y019173D01*
X002274Y019173D01*
X002111Y019010D01*
X002437Y018685D01*
X002654Y019119D02*
X002437Y019336D01*
X002545Y019444D02*
X002545Y019227D01*
X002545Y019444D02*
X002600Y019499D01*
X002762Y019553D02*
X002762Y019661D01*
X002871Y019770D01*
X002979Y019770D01*
X003034Y019716D01*
X002817Y019499D01*
X002871Y019444D02*
X002762Y019553D01*
X002871Y019444D02*
X002979Y019444D01*
X003088Y019553D01*
X003305Y019770D02*
X003034Y020041D01*
X003034Y020150D01*
X003196Y019987D02*
X003088Y019878D01*
X003305Y020095D02*
X003305Y020204D01*
X003413Y020312D01*
X003522Y020312D01*
X003576Y020258D01*
X003359Y020041D01*
X003413Y019987D02*
X003305Y020095D01*
X003413Y019987D02*
X003522Y019987D01*
X003630Y020095D01*
X003793Y020258D02*
X003576Y020475D01*
X003685Y020367D02*
X003685Y020584D01*
X003739Y020638D01*
X004173Y021072D02*
X004281Y021180D01*
X004173Y021180D02*
X004390Y020963D01*
X004498Y020963D01*
X004553Y021126D02*
X004661Y021126D01*
X004770Y021235D01*
X004770Y021343D01*
X004661Y021452D01*
X004553Y021452D01*
X004444Y021343D01*
X004444Y021235D01*
X004553Y021126D01*
X005095Y021886D02*
X005204Y021994D01*
X005041Y022048D02*
X005041Y022157D01*
X005041Y022048D02*
X005312Y021777D01*
X005475Y021940D02*
X005583Y022048D01*
X005529Y021994D02*
X005204Y022320D01*
X005149Y022265D01*
X005475Y022374D02*
X005638Y022211D01*
X005746Y022211D01*
X005909Y022374D01*
X005963Y022320D02*
X005963Y022211D01*
X005909Y022157D01*
X005963Y022320D02*
X005692Y022591D01*
X005963Y022537D02*
X006017Y022591D01*
X006072Y022537D01*
X006017Y022482D01*
X005963Y022537D01*
X006126Y022699D02*
X006180Y022754D01*
X006234Y022699D01*
X006180Y022645D01*
X006126Y022699D01*
X006289Y022862D02*
X006343Y022916D01*
X006397Y022862D01*
X006343Y022808D01*
X006289Y022862D01*
X001298Y017871D02*
X001135Y018034D01*
D14*
X000871Y018274D02*
X000740Y018143D01*
X000478Y018405D01*
X000609Y018536D01*
X000696Y018536D01*
X000740Y018492D01*
X000740Y018405D01*
X000609Y018274D01*
X000740Y018405D02*
X000827Y018405D01*
X000871Y018361D01*
X000871Y018274D01*
X000957Y018447D02*
X001044Y018447D01*
X001131Y018534D01*
X001131Y018622D01*
X001044Y018709D01*
X000957Y018709D01*
X000870Y018622D01*
X000870Y018534D01*
X000957Y018447D01*
X001174Y018751D02*
X001174Y018926D01*
X001217Y018969D01*
X001303Y019055D02*
X001434Y019186D01*
X001522Y019186D01*
X001652Y019055D01*
X001478Y018881D02*
X001303Y019055D01*
X001086Y018838D02*
X001261Y018664D01*
X001955Y019445D02*
X001824Y019576D01*
X001955Y019445D02*
X002042Y019445D01*
X002042Y019532D01*
X002130Y019533D01*
X002130Y019620D01*
X001999Y019751D01*
X002085Y019837D02*
X002128Y019880D01*
X002303Y019706D01*
X002346Y019749D02*
X002259Y019662D01*
X002433Y019923D02*
X002520Y019923D01*
X002433Y019923D02*
X002258Y020097D01*
X002258Y020010D02*
X002345Y020097D01*
X002475Y020140D02*
X002475Y020227D01*
X002563Y020315D01*
X002650Y020315D01*
X002781Y020184D01*
X002606Y020009D02*
X002344Y020271D01*
X002041Y019967D02*
X001997Y020011D01*
X002952Y020704D02*
X003083Y020574D01*
X003171Y020574D01*
X003171Y020661D01*
X003258Y020661D01*
X003258Y020748D01*
X003127Y020879D01*
X003213Y020965D02*
X003256Y021009D01*
X003431Y020834D01*
X003387Y020790D02*
X003475Y020878D01*
X003561Y020964D02*
X003386Y021138D01*
X003517Y021269D01*
X003605Y021269D01*
X003736Y021138D01*
X003778Y021268D02*
X003865Y021268D01*
X003996Y021399D01*
X004040Y021355D02*
X003821Y021573D01*
X003690Y021442D01*
X003690Y021355D01*
X003778Y021268D01*
X003996Y021224D02*
X004040Y021268D01*
X004040Y021355D01*
X004082Y021485D02*
X004213Y021616D01*
X004213Y021703D01*
X004125Y021703D01*
X004038Y021616D01*
X003951Y021616D01*
X003951Y021703D01*
X004082Y021834D01*
X003169Y021096D02*
X003126Y021139D01*
X003186Y001526D02*
X003138Y001477D01*
X003138Y001429D01*
X003186Y001381D01*
X003283Y001381D01*
X003331Y001332D01*
X003331Y001284D01*
X003283Y001236D01*
X003186Y001236D01*
X003138Y001284D01*
X003038Y001236D02*
X002942Y001236D01*
X002990Y001236D02*
X002990Y001526D01*
X002942Y001526D02*
X003038Y001526D01*
X003186Y001526D02*
X003283Y001526D01*
X003331Y001477D01*
X003433Y001526D02*
X003626Y001526D01*
X003529Y001526D02*
X003529Y001236D01*
X003727Y001284D02*
X003727Y001477D01*
X003776Y001526D01*
X003872Y001526D01*
X003921Y001477D01*
X003921Y001284D01*
X003872Y001236D01*
X003776Y001236D01*
X003727Y001284D01*
X004022Y001236D02*
X004022Y001526D01*
X004215Y001236D01*
X004215Y001526D01*
X004611Y001526D02*
X004611Y001236D01*
X004756Y001236D01*
X004805Y001284D01*
X004805Y001332D01*
X004756Y001381D01*
X004611Y001381D01*
X004611Y001526D02*
X004756Y001526D01*
X004805Y001477D01*
X004805Y001429D01*
X004756Y001381D01*
X004906Y001477D02*
X004906Y001284D01*
X004954Y001236D01*
X005051Y001236D01*
X005099Y001284D01*
X005099Y001477D01*
X005051Y001526D01*
X004954Y001526D01*
X004906Y001477D01*
X005200Y001429D02*
X005200Y001236D01*
X005200Y001381D02*
X005394Y001381D01*
X005394Y001429D02*
X005394Y001236D01*
X005495Y001236D02*
X005495Y001526D01*
X005640Y001526D01*
X005689Y001477D01*
X005689Y001381D01*
X005640Y001332D01*
X005495Y001332D01*
X005592Y001332D02*
X005689Y001236D01*
X005790Y001236D02*
X005935Y001236D01*
X005983Y001284D01*
X005983Y001477D01*
X005935Y001526D01*
X005790Y001526D01*
X005790Y001236D01*
X005394Y001429D02*
X005297Y001526D01*
X005200Y001429D01*
X002840Y001381D02*
X002792Y001332D01*
X002647Y001332D01*
X002647Y001236D02*
X002647Y001526D01*
X002792Y001526D01*
X002840Y001477D01*
X002840Y001381D01*
D15*
X006930Y001507D02*
X006930Y002107D01*
X007930Y002107D02*
X007930Y001507D01*
X010011Y001507D02*
X010011Y002107D01*
X011011Y002107D02*
X011011Y001507D01*
X013104Y001511D02*
X013104Y002111D01*
X014104Y002111D02*
X014104Y001511D01*
X016307Y001553D02*
X016307Y002153D01*
X017307Y002153D02*
X017307Y001553D01*
X017212Y004308D02*
X017212Y004908D01*
X018212Y004908D02*
X018212Y004308D01*
X018202Y006568D02*
X018202Y007168D01*
X017202Y007168D02*
X017202Y006568D01*
X017170Y009849D02*
X017770Y009849D01*
X017770Y010849D02*
X017170Y010849D01*
X017977Y013493D02*
X017977Y014093D01*
X018977Y014093D02*
X018977Y013493D01*
X018975Y015947D02*
X018975Y016547D01*
X017975Y016547D02*
X017975Y015947D01*
X016692Y018774D02*
X016092Y018774D01*
X016092Y019774D02*
X016692Y019774D01*
X013780Y020004D02*
X013780Y019404D01*
X012780Y019404D02*
X012780Y020004D01*
X010653Y020004D02*
X010653Y019404D01*
X009653Y019404D02*
X009653Y020004D01*
X007403Y019656D02*
X006803Y019656D01*
X006803Y018656D02*
X007403Y018656D01*
D16*
X004956Y004155D03*
D17*
X004956Y005155D03*
X004956Y006155D03*
X004956Y007155D03*
X004956Y008155D03*
X004956Y009155D03*
X004956Y010155D03*
X003956Y010155D03*
X003956Y009155D03*
X003956Y008155D03*
X003956Y007155D03*
X003956Y006155D03*
X003956Y005155D03*
X003956Y004155D03*
D18*
X004376Y013090D02*
X003516Y013090D01*
X002057Y013841D02*
X002057Y014701D01*
X003516Y015452D02*
X004376Y015452D01*
D19*
X008653Y016388D02*
X008653Y016908D01*
X009653Y016908D02*
X009653Y016388D01*
X010653Y016388D02*
X010653Y016908D01*
X011653Y016908D02*
X011653Y016388D01*
X012653Y016388D02*
X012653Y016908D01*
X013653Y016908D02*
X013653Y016388D01*
X014653Y016388D02*
X014653Y016908D01*
X015653Y016908D02*
X015653Y016388D01*
X015653Y013908D02*
X015653Y013388D01*
X014653Y013388D02*
X014653Y013908D01*
X013653Y013908D02*
X013653Y013388D01*
X012653Y013388D02*
X012653Y013908D01*
X011653Y013908D02*
X011653Y013388D01*
X010653Y013388D02*
X010653Y013908D01*
X009653Y013908D02*
X009653Y013388D01*
X008653Y013388D02*
X008653Y013908D01*
X008580Y012109D02*
X008580Y011589D01*
X009580Y011589D02*
X009580Y012109D01*
X010580Y012109D02*
X010580Y011589D01*
X011580Y011589D02*
X011580Y012109D01*
X012580Y012109D02*
X012580Y011589D01*
X013580Y011589D02*
X013580Y012109D01*
X014580Y012109D02*
X014580Y011589D01*
X014580Y009109D02*
X014580Y008589D01*
X013580Y008589D02*
X013580Y009109D01*
X012580Y009109D02*
X012580Y008589D01*
X011580Y008589D02*
X011580Y009109D01*
X010580Y009109D02*
X010580Y008589D01*
X009580Y008589D02*
X009580Y009109D01*
X008580Y009109D02*
X008580Y008589D01*
X008892Y007332D02*
X008892Y006812D01*
X009892Y006812D02*
X009892Y007332D01*
X010892Y007332D02*
X010892Y006812D01*
X011892Y006812D02*
X011892Y007332D01*
X012892Y007332D02*
X012892Y006812D01*
X013892Y006812D02*
X013892Y007332D01*
X014892Y007332D02*
X014892Y006812D01*
X014892Y004332D02*
X014892Y003812D01*
X013892Y003812D02*
X013892Y004332D01*
X012892Y004332D02*
X012892Y003812D01*
X011892Y003812D02*
X011892Y004332D01*
X010892Y004332D02*
X010892Y003812D01*
X009892Y003812D02*
X009892Y004332D01*
X008892Y004332D02*
X008892Y003812D01*
X007892Y003812D02*
X007892Y004332D01*
X007892Y006812D02*
X007892Y007332D01*
M02*
