%
M48
M72
T01C0.0315
T02C0.0320
T03C0.0360
T04C0.0394
T05C0.0400
T06C0.1260
%
T01
X1996Y14271
X3886Y15452
T02
X7831Y4072
X8831Y4072
X9831Y4072
X10831Y4072
X11831Y4072
X12831Y4072
X13831Y4072
X14831Y4072
X14831Y7072
X13831Y7072
X12831Y7072
X11831Y7072
X10831Y7072
X9831Y7072
X8831Y7072
X7831Y7072
X8520Y8849
X9520Y8849
X10520Y8849
X11520Y8849
X12520Y8849
X13520Y8849
X14520Y8849
X14520Y11849
X13520Y11849
X12520Y11849
X11520Y11849
X10520Y11849
X9520Y11849
X8520Y11849
X8592Y13648
X9592Y13648
X10592Y13648
X11592Y13648
X12592Y13648
X13592Y13648
X14592Y13648
X15592Y13648
X15592Y16648
X14592Y16648
X13592Y16648
X12592Y16648
X11592Y16648
X10592Y16648
X9592Y16648
X8592Y16648
T03
X3896Y4155
X4896Y4155
X4896Y5155
X4896Y6155
X4896Y7155
X4896Y8155
X4896Y9155
X4896Y10155
X3896Y10155
X3896Y9155
X3896Y8155
X3896Y7155
X3896Y6155
X3896Y5155
T04
X3886Y13090
T05
X6869Y1807
X7869Y1807
X9951Y1807
X10951Y1807
X13044Y1811
X14044Y1811
X16247Y1853
X17247Y1853
X18151Y4608
X17151Y4608
X17142Y6868
X18142Y6868
X17410Y9849
X17410Y10849
X17917Y13793
X18917Y13793
X18915Y16247
X17915Y16247
X16332Y18774
X16332Y19774
X13720Y19704
X12720Y19704
X10593Y19704
X9593Y19704
X7042Y19656
X7042Y18656
T06
X1113Y1114
X19066Y1114
X19055Y20353
X1083Y20402
M30
