G75*
G70*
%OFA0B0*%
%FSLAX24Y24*%
%IPPOS*%
%LPD*%
%AMOC8*
5,1,8,0,0,1.08239X$1,22.5*
%
%ADD10C,0.0160*%
%ADD11C,0.0000*%
%ADD12C,0.1340*%
%ADD13C,0.0040*%
%ADD14C,0.0030*%
%ADD15C,0.0680*%
%ADD16C,0.0640*%
%ADD17OC8,0.0640*%
%ADD18C,0.0940*%
%ADD19C,0.0600*%
D10*
X000186Y000184D02*
X000186Y021273D01*
X020035Y021273D01*
X020034Y000184D01*
X000186Y000184D01*
D11*
X000483Y001114D02*
X000485Y001164D01*
X000491Y001214D01*
X000501Y001263D01*
X000515Y001311D01*
X000532Y001358D01*
X000553Y001403D01*
X000578Y001447D01*
X000606Y001488D01*
X000638Y001527D01*
X000672Y001564D01*
X000709Y001598D01*
X000749Y001628D01*
X000791Y001655D01*
X000835Y001679D01*
X000881Y001700D01*
X000928Y001716D01*
X000976Y001729D01*
X001026Y001738D01*
X001075Y001743D01*
X001126Y001744D01*
X001176Y001741D01*
X001225Y001734D01*
X001274Y001723D01*
X001322Y001708D01*
X001368Y001690D01*
X001413Y001668D01*
X001456Y001642D01*
X001497Y001613D01*
X001536Y001581D01*
X001572Y001546D01*
X001604Y001508D01*
X001634Y001468D01*
X001661Y001425D01*
X001684Y001381D01*
X001703Y001335D01*
X001719Y001287D01*
X001731Y001238D01*
X001739Y001189D01*
X001743Y001139D01*
X001743Y001089D01*
X001739Y001039D01*
X001731Y000990D01*
X001719Y000941D01*
X001703Y000893D01*
X001684Y000847D01*
X001661Y000803D01*
X001634Y000760D01*
X001604Y000720D01*
X001572Y000682D01*
X001536Y000647D01*
X001497Y000615D01*
X001456Y000586D01*
X001413Y000560D01*
X001368Y000538D01*
X001322Y000520D01*
X001274Y000505D01*
X001225Y000494D01*
X001176Y000487D01*
X001126Y000484D01*
X001075Y000485D01*
X001026Y000490D01*
X000976Y000499D01*
X000928Y000512D01*
X000881Y000528D01*
X000835Y000549D01*
X000791Y000573D01*
X000749Y000600D01*
X000709Y000630D01*
X000672Y000664D01*
X000638Y000701D01*
X000606Y000740D01*
X000578Y000781D01*
X000553Y000825D01*
X000532Y000870D01*
X000515Y000917D01*
X000501Y000965D01*
X000491Y001014D01*
X000485Y001064D01*
X000483Y001114D01*
X000453Y020402D02*
X000455Y020452D01*
X000461Y020502D01*
X000471Y020551D01*
X000485Y020599D01*
X000502Y020646D01*
X000523Y020691D01*
X000548Y020735D01*
X000576Y020776D01*
X000608Y020815D01*
X000642Y020852D01*
X000679Y020886D01*
X000719Y020916D01*
X000761Y020943D01*
X000805Y020967D01*
X000851Y020988D01*
X000898Y021004D01*
X000946Y021017D01*
X000996Y021026D01*
X001045Y021031D01*
X001096Y021032D01*
X001146Y021029D01*
X001195Y021022D01*
X001244Y021011D01*
X001292Y020996D01*
X001338Y020978D01*
X001383Y020956D01*
X001426Y020930D01*
X001467Y020901D01*
X001506Y020869D01*
X001542Y020834D01*
X001574Y020796D01*
X001604Y020756D01*
X001631Y020713D01*
X001654Y020669D01*
X001673Y020623D01*
X001689Y020575D01*
X001701Y020526D01*
X001709Y020477D01*
X001713Y020427D01*
X001713Y020377D01*
X001709Y020327D01*
X001701Y020278D01*
X001689Y020229D01*
X001673Y020181D01*
X001654Y020135D01*
X001631Y020091D01*
X001604Y020048D01*
X001574Y020008D01*
X001542Y019970D01*
X001506Y019935D01*
X001467Y019903D01*
X001426Y019874D01*
X001383Y019848D01*
X001338Y019826D01*
X001292Y019808D01*
X001244Y019793D01*
X001195Y019782D01*
X001146Y019775D01*
X001096Y019772D01*
X001045Y019773D01*
X000996Y019778D01*
X000946Y019787D01*
X000898Y019800D01*
X000851Y019816D01*
X000805Y019837D01*
X000761Y019861D01*
X000719Y019888D01*
X000679Y019918D01*
X000642Y019952D01*
X000608Y019989D01*
X000576Y020028D01*
X000548Y020069D01*
X000523Y020113D01*
X000502Y020158D01*
X000485Y020205D01*
X000471Y020253D01*
X000461Y020302D01*
X000455Y020352D01*
X000453Y020402D01*
X018425Y020353D02*
X018427Y020403D01*
X018433Y020453D01*
X018443Y020502D01*
X018457Y020550D01*
X018474Y020597D01*
X018495Y020642D01*
X018520Y020686D01*
X018548Y020727D01*
X018580Y020766D01*
X018614Y020803D01*
X018651Y020837D01*
X018691Y020867D01*
X018733Y020894D01*
X018777Y020918D01*
X018823Y020939D01*
X018870Y020955D01*
X018918Y020968D01*
X018968Y020977D01*
X019017Y020982D01*
X019068Y020983D01*
X019118Y020980D01*
X019167Y020973D01*
X019216Y020962D01*
X019264Y020947D01*
X019310Y020929D01*
X019355Y020907D01*
X019398Y020881D01*
X019439Y020852D01*
X019478Y020820D01*
X019514Y020785D01*
X019546Y020747D01*
X019576Y020707D01*
X019603Y020664D01*
X019626Y020620D01*
X019645Y020574D01*
X019661Y020526D01*
X019673Y020477D01*
X019681Y020428D01*
X019685Y020378D01*
X019685Y020328D01*
X019681Y020278D01*
X019673Y020229D01*
X019661Y020180D01*
X019645Y020132D01*
X019626Y020086D01*
X019603Y020042D01*
X019576Y019999D01*
X019546Y019959D01*
X019514Y019921D01*
X019478Y019886D01*
X019439Y019854D01*
X019398Y019825D01*
X019355Y019799D01*
X019310Y019777D01*
X019264Y019759D01*
X019216Y019744D01*
X019167Y019733D01*
X019118Y019726D01*
X019068Y019723D01*
X019017Y019724D01*
X018968Y019729D01*
X018918Y019738D01*
X018870Y019751D01*
X018823Y019767D01*
X018777Y019788D01*
X018733Y019812D01*
X018691Y019839D01*
X018651Y019869D01*
X018614Y019903D01*
X018580Y019940D01*
X018548Y019979D01*
X018520Y020020D01*
X018495Y020064D01*
X018474Y020109D01*
X018457Y020156D01*
X018443Y020204D01*
X018433Y020253D01*
X018427Y020303D01*
X018425Y020353D01*
X018436Y001114D02*
X018438Y001164D01*
X018444Y001214D01*
X018454Y001263D01*
X018468Y001311D01*
X018485Y001358D01*
X018506Y001403D01*
X018531Y001447D01*
X018559Y001488D01*
X018591Y001527D01*
X018625Y001564D01*
X018662Y001598D01*
X018702Y001628D01*
X018744Y001655D01*
X018788Y001679D01*
X018834Y001700D01*
X018881Y001716D01*
X018929Y001729D01*
X018979Y001738D01*
X019028Y001743D01*
X019079Y001744D01*
X019129Y001741D01*
X019178Y001734D01*
X019227Y001723D01*
X019275Y001708D01*
X019321Y001690D01*
X019366Y001668D01*
X019409Y001642D01*
X019450Y001613D01*
X019489Y001581D01*
X019525Y001546D01*
X019557Y001508D01*
X019587Y001468D01*
X019614Y001425D01*
X019637Y001381D01*
X019656Y001335D01*
X019672Y001287D01*
X019684Y001238D01*
X019692Y001189D01*
X019696Y001139D01*
X019696Y001089D01*
X019692Y001039D01*
X019684Y000990D01*
X019672Y000941D01*
X019656Y000893D01*
X019637Y000847D01*
X019614Y000803D01*
X019587Y000760D01*
X019557Y000720D01*
X019525Y000682D01*
X019489Y000647D01*
X019450Y000615D01*
X019409Y000586D01*
X019366Y000560D01*
X019321Y000538D01*
X019275Y000520D01*
X019227Y000505D01*
X019178Y000494D01*
X019129Y000487D01*
X019079Y000484D01*
X019028Y000485D01*
X018979Y000490D01*
X018929Y000499D01*
X018881Y000512D01*
X018834Y000528D01*
X018788Y000549D01*
X018744Y000573D01*
X018702Y000600D01*
X018662Y000630D01*
X018625Y000664D01*
X018591Y000701D01*
X018559Y000740D01*
X018531Y000781D01*
X018506Y000825D01*
X018485Y000870D01*
X018468Y000917D01*
X018454Y000965D01*
X018444Y001014D01*
X018438Y001064D01*
X018436Y001114D01*
D12*
X019066Y001114D03*
X001113Y001114D03*
X019055Y020353D03*
X001083Y020402D03*
D13*
X001320Y010331D02*
X001841Y010331D01*
X001841Y009984D02*
X001320Y009984D01*
X001494Y010158D01*
X001320Y010331D01*
X001494Y009816D02*
X001841Y009816D01*
X001841Y009469D02*
X001494Y009469D01*
X001320Y009642D01*
X001494Y009816D01*
X001581Y009816D02*
X001581Y009469D01*
X001320Y009300D02*
X001320Y008953D01*
X001841Y008953D01*
X001841Y009300D01*
X001581Y009127D02*
X001581Y008953D01*
X001320Y008784D02*
X001320Y008437D01*
X001320Y008611D02*
X001841Y008611D01*
X001841Y007753D02*
X001320Y007753D01*
X001581Y007753D02*
X001581Y007406D01*
X001754Y007237D02*
X001841Y007151D01*
X001841Y006977D01*
X001754Y006891D01*
X001407Y006891D01*
X001320Y006977D01*
X001320Y007151D01*
X001407Y007237D01*
X001320Y007406D02*
X001841Y007406D01*
X001841Y006722D02*
X001841Y006375D01*
X001320Y006375D01*
X001320Y006722D01*
X001581Y006548D02*
X001581Y006375D01*
X001320Y006206D02*
X001320Y005859D01*
X001320Y006033D02*
X001841Y006033D01*
X001320Y005175D02*
X001320Y004828D01*
X001320Y004658D02*
X001320Y004484D01*
X001320Y004571D02*
X001841Y004571D01*
X001841Y004484D02*
X001841Y004658D01*
X001841Y004316D02*
X001320Y004316D01*
X001494Y004142D01*
X001320Y003969D01*
X001841Y003969D01*
X001841Y005001D02*
X001320Y005001D01*
D14*
X002586Y001526D02*
X002732Y001526D01*
X002780Y001477D01*
X002780Y001381D01*
X002732Y001332D01*
X002586Y001332D01*
X002586Y001236D02*
X002586Y001526D01*
X002881Y001526D02*
X002978Y001526D01*
X002929Y001526D02*
X002929Y001236D01*
X002881Y001236D02*
X002978Y001236D01*
X003077Y001284D02*
X003126Y001236D01*
X003223Y001236D01*
X003271Y001284D01*
X003271Y001332D01*
X003223Y001381D01*
X003126Y001381D01*
X003077Y001429D01*
X003077Y001477D01*
X003126Y001526D01*
X003223Y001526D01*
X003271Y001477D01*
X003372Y001526D02*
X003566Y001526D01*
X003469Y001526D02*
X003469Y001236D01*
X003667Y001284D02*
X003667Y001477D01*
X003715Y001526D01*
X003812Y001526D01*
X003860Y001477D01*
X003860Y001284D01*
X003812Y001236D01*
X003715Y001236D01*
X003667Y001284D01*
X003961Y001236D02*
X003961Y001526D01*
X004155Y001236D01*
X004155Y001526D01*
X004551Y001526D02*
X004551Y001236D01*
X004696Y001236D01*
X004744Y001284D01*
X004744Y001332D01*
X004696Y001381D01*
X004551Y001381D01*
X004551Y001526D02*
X004696Y001526D01*
X004744Y001477D01*
X004744Y001429D01*
X004696Y001381D01*
X004845Y001477D02*
X004845Y001284D01*
X004894Y001236D01*
X004990Y001236D01*
X005039Y001284D01*
X005039Y001477D01*
X004990Y001526D01*
X004894Y001526D01*
X004845Y001477D01*
X005140Y001429D02*
X005140Y001236D01*
X005140Y001381D02*
X005333Y001381D01*
X005333Y001429D02*
X005333Y001236D01*
X005435Y001236D02*
X005435Y001526D01*
X005580Y001526D01*
X005628Y001477D01*
X005628Y001381D01*
X005580Y001332D01*
X005435Y001332D01*
X005531Y001332D02*
X005628Y001236D01*
X005729Y001236D02*
X005874Y001236D01*
X005923Y001284D01*
X005923Y001477D01*
X005874Y001526D01*
X005729Y001526D01*
X005729Y001236D01*
X005333Y001429D02*
X005237Y001526D01*
X005140Y001429D01*
X000999Y017557D02*
X000912Y017557D01*
X000868Y017600D01*
X000868Y017775D01*
X000824Y017819D01*
X000737Y017819D01*
X000737Y017731D01*
X000781Y017688D01*
X001130Y017688D01*
X001043Y017775D02*
X001043Y017600D01*
X000999Y017557D01*
X001432Y018078D02*
X001301Y018208D01*
X001432Y018078D02*
X001520Y018078D01*
X001520Y018165D01*
X001607Y018165D01*
X001607Y018252D01*
X001476Y018383D01*
X001606Y018425D02*
X001606Y018512D01*
X001693Y018600D01*
X001780Y018600D01*
X001824Y018556D01*
X001649Y018382D01*
X001606Y018425D02*
X001693Y018338D01*
X001780Y018338D01*
X001867Y018425D01*
X002257Y018815D02*
X002388Y018946D01*
X002388Y019033D01*
X002301Y019121D01*
X002214Y019121D01*
X002083Y018990D01*
X002344Y018728D01*
X002518Y019076D02*
X002343Y019250D01*
X002430Y019163D02*
X002430Y019337D01*
X002474Y019381D01*
X002604Y019423D02*
X002604Y019511D01*
X002691Y019598D01*
X002778Y019598D01*
X002822Y019554D01*
X002647Y019380D01*
X002604Y019423D02*
X002691Y019336D01*
X002778Y019336D01*
X002866Y019423D01*
X003039Y019596D02*
X002820Y019815D01*
X002820Y019902D01*
X002951Y019771D02*
X002864Y019684D01*
X003038Y019857D02*
X003038Y019945D01*
X003125Y020032D01*
X003212Y020032D01*
X003256Y019988D01*
X003081Y019814D01*
X003038Y019857D02*
X003125Y019770D01*
X003212Y019770D01*
X003299Y019857D01*
X003429Y019987D02*
X003254Y020161D01*
X003342Y020074D02*
X003342Y020249D01*
X003385Y020292D01*
X003112Y020576D02*
X003181Y020644D01*
X003147Y020610D02*
X003010Y020747D01*
X002976Y020713D01*
X002904Y020641D02*
X003007Y020538D01*
X003007Y020470D01*
X002938Y020470D01*
X002938Y020402D01*
X002870Y020402D01*
X002767Y020504D01*
X002522Y020190D02*
X002624Y020088D01*
X002522Y020190D02*
X002453Y020190D01*
X002385Y020122D01*
X002385Y020053D01*
X002280Y020017D02*
X002212Y019949D01*
X002212Y020017D02*
X002349Y019880D01*
X002417Y019880D01*
X002487Y019951D02*
X002282Y020156D01*
X002039Y019913D02*
X002004Y019947D01*
X002107Y019844D02*
X002244Y019707D01*
X002210Y019673D02*
X002278Y019742D01*
X002107Y019844D02*
X002073Y019810D01*
X002001Y019738D02*
X002104Y019636D01*
X002104Y019567D01*
X002036Y019567D01*
X002036Y019499D01*
X001967Y019499D01*
X001865Y019602D01*
X001619Y019288D02*
X001551Y019288D01*
X001448Y019185D01*
X001585Y019048D01*
X001722Y019185D02*
X001619Y019288D01*
X001377Y019114D02*
X001343Y019080D01*
X001343Y018943D01*
X001411Y018875D02*
X001274Y019011D01*
X001237Y018906D02*
X001169Y018906D01*
X001100Y018837D01*
X001100Y018769D01*
X001169Y018701D01*
X001237Y018701D01*
X001306Y018769D01*
X001306Y018837D01*
X001237Y018906D01*
X000995Y018732D02*
X000995Y018663D01*
X000892Y018561D01*
X000995Y018663D02*
X001063Y018663D01*
X001097Y018629D01*
X001097Y018561D01*
X000995Y018458D01*
X000789Y018663D01*
X000892Y018766D01*
X000960Y018766D01*
X000995Y018732D01*
X002941Y020815D02*
X002907Y020849D01*
X003114Y020851D02*
X003217Y020954D01*
X003285Y020954D01*
X003388Y020851D01*
X003425Y020957D02*
X003494Y020957D01*
X003596Y021060D01*
X003631Y021026D02*
X003460Y021197D01*
X003357Y021094D01*
X003357Y021026D01*
X003425Y020957D01*
X003596Y020923D02*
X003631Y020957D01*
X003631Y021026D01*
X003668Y021131D02*
X003770Y021234D01*
X003770Y021302D01*
X003702Y021302D01*
X003634Y021234D01*
X003565Y021234D01*
X003565Y021302D01*
X003668Y021405D01*
X004036Y020943D02*
X003949Y020856D01*
X003949Y020769D01*
X004036Y020681D01*
X004124Y020681D01*
X004211Y020769D01*
X004211Y020856D01*
X004124Y020943D01*
X004036Y020943D01*
X003819Y020726D02*
X003732Y020639D01*
X003732Y020726D02*
X003906Y020551D01*
X003994Y020551D01*
X003251Y020715D02*
X003114Y020851D01*
X004426Y021420D02*
X004426Y021508D01*
X004426Y021420D02*
X004644Y021202D01*
X004774Y021332D02*
X004862Y021419D01*
X004818Y021376D02*
X004556Y021638D01*
X004512Y021594D01*
X004557Y021377D02*
X004470Y021289D01*
X004773Y021680D02*
X004904Y021549D01*
X004991Y021549D01*
X005122Y021680D01*
X005166Y021637D02*
X005166Y021549D01*
X005122Y021506D01*
X005166Y021637D02*
X004948Y021855D01*
X005165Y021810D02*
X005208Y021853D01*
X005252Y021810D01*
X005208Y021766D01*
X005165Y021810D01*
X005295Y021940D02*
X005338Y021984D01*
X005382Y021940D01*
X005338Y021896D01*
X005295Y021940D01*
X005425Y022070D02*
X005469Y022114D01*
X005512Y022070D01*
X005469Y022027D01*
X005425Y022070D01*
D15*
X006742Y019656D02*
X007342Y019656D01*
X007342Y018656D02*
X006742Y018656D01*
X009593Y019404D02*
X009593Y020004D01*
X010593Y020004D02*
X010593Y019404D01*
X012720Y019404D02*
X012720Y020004D01*
X013720Y020004D02*
X013720Y019404D01*
X016032Y019774D02*
X016632Y019774D01*
X016632Y018774D02*
X016032Y018774D01*
X017915Y016547D02*
X017915Y015947D01*
X018915Y015947D02*
X018915Y016547D01*
X018917Y014093D02*
X018917Y013493D01*
X017917Y013493D02*
X017917Y014093D01*
X017710Y010849D02*
X017110Y010849D01*
X017110Y009849D02*
X017710Y009849D01*
X018142Y007168D02*
X018142Y006568D01*
X017142Y006568D02*
X017142Y007168D01*
X017151Y004908D02*
X017151Y004308D01*
X018151Y004308D02*
X018151Y004908D01*
X017247Y002153D02*
X017247Y001553D01*
X016247Y001553D02*
X016247Y002153D01*
X014044Y002111D02*
X014044Y001511D01*
X013044Y001511D02*
X013044Y002111D01*
X010951Y002107D02*
X010951Y001507D01*
X009951Y001507D02*
X009951Y002107D01*
X007869Y002107D02*
X007869Y001507D01*
X006869Y001507D02*
X006869Y002107D01*
D16*
X004896Y004155D03*
D17*
X004896Y005155D03*
X004896Y006155D03*
X004896Y007155D03*
X004896Y008155D03*
X004896Y009155D03*
X004896Y010155D03*
X003896Y010155D03*
X003896Y009155D03*
X003896Y008155D03*
X003896Y007155D03*
X003896Y006155D03*
X003896Y005155D03*
X003896Y004155D03*
D18*
X004316Y013090D02*
X003456Y013090D01*
X001996Y013841D02*
X001996Y014701D01*
X003456Y015452D02*
X004316Y015452D01*
D19*
X008592Y016388D02*
X008592Y016908D01*
X009592Y016908D02*
X009592Y016388D01*
X010592Y016388D02*
X010592Y016908D01*
X011592Y016908D02*
X011592Y016388D01*
X012592Y016388D02*
X012592Y016908D01*
X013592Y016908D02*
X013592Y016388D01*
X014592Y016388D02*
X014592Y016908D01*
X015592Y016908D02*
X015592Y016388D01*
X015592Y013908D02*
X015592Y013388D01*
X014592Y013388D02*
X014592Y013908D01*
X013592Y013908D02*
X013592Y013388D01*
X012592Y013388D02*
X012592Y013908D01*
X011592Y013908D02*
X011592Y013388D01*
X010592Y013388D02*
X010592Y013908D01*
X009592Y013908D02*
X009592Y013388D01*
X008592Y013388D02*
X008592Y013908D01*
X008520Y012109D02*
X008520Y011589D01*
X009520Y011589D02*
X009520Y012109D01*
X010520Y012109D02*
X010520Y011589D01*
X011520Y011589D02*
X011520Y012109D01*
X012520Y012109D02*
X012520Y011589D01*
X013520Y011589D02*
X013520Y012109D01*
X014520Y012109D02*
X014520Y011589D01*
X014520Y009109D02*
X014520Y008589D01*
X013520Y008589D02*
X013520Y009109D01*
X012520Y009109D02*
X012520Y008589D01*
X011520Y008589D02*
X011520Y009109D01*
X010520Y009109D02*
X010520Y008589D01*
X009520Y008589D02*
X009520Y009109D01*
X008520Y009109D02*
X008520Y008589D01*
X008831Y007332D02*
X008831Y006812D01*
X007831Y006812D02*
X007831Y007332D01*
X009831Y007332D02*
X009831Y006812D01*
X010831Y006812D02*
X010831Y007332D01*
X011831Y007332D02*
X011831Y006812D01*
X012831Y006812D02*
X012831Y007332D01*
X013831Y007332D02*
X013831Y006812D01*
X014831Y006812D02*
X014831Y007332D01*
X014831Y004332D02*
X014831Y003812D01*
X013831Y003812D02*
X013831Y004332D01*
X012831Y004332D02*
X012831Y003812D01*
X011831Y003812D02*
X011831Y004332D01*
X010831Y004332D02*
X010831Y003812D01*
X009831Y003812D02*
X009831Y004332D01*
X008831Y004332D02*
X008831Y003812D01*
X007831Y003812D02*
X007831Y004332D01*
M02*
